<svg width="90" height="84" viewBox="0 0 90 84" fill="none" xmlns="http://www.w3.org/2000/svg">
<ellipse cx="45" cy="72.5869" rx="45" ry="11.413" fill="#F2F1F9"/>
<path d="M57.1194 73.0434L32.5921 72.9295C29.642 72.9161 27.2619 70.489 27.273 67.5081L27.5338 5.37676C27.547 2.39367 29.9491 -0.0133415 32.9015 5.56545e-05L57.4288 0.113931C60.379 0.127328 62.759 2.55444 62.7479 5.5353L62.4872 67.6666C62.4761 70.6497 60.0718 73.0567 57.1194 73.0434Z" fill="#3629B7"/>
<path d="M57.3927 2.2597L52.6371 2.23737C51.9984 2.23514 51.4791 2.77772 51.4769 3.45204L51.4725 4.32285C51.4702 4.99718 50.9509 5.53976 50.3123 5.53753L41.0419 5.4951C40.4033 5.49287 39.8906 4.94359 39.8928 4.26927L39.8972 3.39845C39.8994 2.72413 39.3845 2.17708 38.7481 2.17262L37.0752 2.16369L32.914 2.14359C30.8478 2.13466 29.1639 3.82046 29.155 5.90818L28.9009 66.5524C28.8921 68.6402 30.5583 70.3394 32.6245 70.3483L57.1032 70.4622C59.1694 70.4711 60.8533 68.7853 60.8622 66.6976L61.1163 6.05331C61.1274 3.96783 59.4589 2.26863 57.3927 2.2597Z" fill="white"/>
<rect x="31.2314" y="60.6094" width="27.1632" height="7.02722" rx="3.51361" fill="#FFAF2A"/>
<path d="M41.6901 64.0086V65.0566H41.1261V62.2326H42.1541C42.4875 62.2326 42.7381 62.3126 42.9061 62.4726C43.0768 62.6326 43.1621 62.85 43.1621 63.1246C43.1621 63.394 43.0741 63.6086 42.8981 63.7686C42.7248 63.9286 42.4768 64.0086 42.1541 64.0086H41.6901ZM42.0941 63.5566C42.4248 63.5566 42.5901 63.4126 42.5901 63.1246C42.5901 62.9833 42.5515 62.8753 42.4741 62.8006C42.3968 62.726 42.2701 62.6886 42.0941 62.6886H41.6901V63.5566H42.0941ZM44.3965 62.8126C44.5831 62.8126 44.7431 62.8566 44.8765 62.9446C45.0098 63.0326 45.1045 63.1513 45.1605 63.3006V62.8406H45.7205V65.0566H45.1605V64.5926C45.1045 64.742 45.0098 64.862 44.8765 64.9526C44.7431 65.0406 44.5831 65.0846 44.3965 65.0846C44.2098 65.0846 44.0418 65.0393 43.8925 64.9486C43.7431 64.858 43.6258 64.7273 43.5405 64.5566C43.4578 64.3833 43.4165 64.1806 43.4165 63.9486C43.4165 63.7166 43.4578 63.5153 43.5405 63.3446C43.6258 63.1713 43.7431 63.0393 43.8925 62.9486C44.0418 62.858 44.2098 62.8126 44.3965 62.8126ZM44.5725 63.3046C44.3965 63.3046 44.2551 63.362 44.1485 63.4766C44.0418 63.5913 43.9885 63.7486 43.9885 63.9486C43.9885 64.1486 44.0418 64.306 44.1485 64.4206C44.2551 64.5326 44.3965 64.5886 44.5725 64.5886C44.7431 64.5886 44.8831 64.5313 44.9925 64.4166C45.1045 64.2993 45.1605 64.1433 45.1605 63.9486C45.1605 63.7513 45.1045 63.5953 44.9925 63.4806C44.8831 63.3633 44.7431 63.3046 44.5725 63.3046ZM46.6116 62.8406L47.2156 64.3446L47.7756 62.8406H48.3956L47.0396 66.1126H46.4156L46.9156 64.9926L45.9836 62.8406H46.6116Z" fill="white"/>
<g clip-path="url(#clip0_295_37371)">
<path d="M46.7956 28.3045V25.5653H49.5229C50.025 25.5653 50.432 25.1565 50.432 24.6523C50.432 24.1481 50.025 23.7393 49.5229 23.7393H42.2502C41.7481 23.7393 41.3411 24.1481 41.3411 24.6523C41.3411 25.1565 41.7481 25.5653 42.2502 25.5653H44.9775V28.3045H40.432C36.923 28.3045 34.0684 31.1716 34.0684 34.6958V36.5219H37.7047V34.6958C37.7047 33.1853 38.9281 31.9566 40.432 31.9566H53.1593V28.3045H46.7956Z" fill="#3629B7"/>
<path d="M33.1592 42.9129C33.1592 44.6476 34.5228 45.652 35.8865 45.652C37.2501 45.652 38.6137 44.6476 38.6137 42.9129C38.6137 41.1781 35.8865 38.3477 35.8865 38.3477C35.8865 38.3477 33.1592 41.1781 33.1592 42.9129Z" fill="#3629B7"/>
</g>
<line x1="52.75" y1="26.4785" x2="52.75" y2="33.7829" stroke="#5655B9"/>
<g clip-path="url(#clip1_295_37371)">
<path d="M17.9185 56.8828C17.7443 56.7167 17.5132 56.624 17.273 56.624C17.0328 56.624 16.8018 56.7167 16.6276 56.8828C16.3203 57.1905 9.09121 64.5624 9.09121 69.3915C9.08064 70.4736 9.28505 71.5469 9.69249 72.5487C10.0999 73.5504 10.7022 74.4605 11.4641 75.2257C12.2259 75.9909 13.1321 76.5958 14.1295 77.005C15.127 77.4142 16.1956 77.6195 17.273 77.6089C18.3504 77.6195 19.4191 77.4142 20.4165 77.005C21.414 76.5958 22.3201 75.9909 23.082 75.2257C23.8439 74.4605 24.4461 73.5504 24.8536 72.5487C25.261 71.5469 25.4654 70.4736 25.4548 69.3915C25.4548 64.5624 18.2258 57.1905 17.9185 56.8828ZM18.1821 73.0437H17.273C16.7933 73.0517 16.3168 72.9627 15.8721 72.782C15.4273 72.6013 15.0232 72.3326 14.6839 71.9918C14.3447 71.6511 14.0771 71.2453 13.8972 70.7986C13.7173 70.3518 13.6287 69.8733 13.6367 69.3915V68.4784H15.4548V69.3915C15.4548 69.8758 15.6464 70.3403 15.9874 70.6827C16.3284 71.0252 16.7908 71.2176 17.273 71.2176H18.1821V73.0437Z" fill="#3629B7"/>
</g>
<path d="M80.5376 70.1922C79.0965 76.0648 73.1993 79.6503 67.3644 78.1991C66.5673 78.0007 65.8126 77.7189 65.1073 77.3644C64.2202 76.9195 63.4114 76.3597 62.6946 75.7093C62.0546 75.1288 61.4883 74.4753 61.0048 73.7662C60.857 73.5496 60.7168 73.3276 60.5853 73.1005C60.0056 72.1045 59.5812 71.0168 59.3363 69.8767C59.2883 69.654 59.2469 69.4296 59.2133 69.2035C59.0048 67.8225 59.0573 66.3778 59.4109 64.9377C59.4432 64.8061 59.4782 64.6751 59.5164 64.5449C61.1176 58.906 66.8817 55.5125 72.5842 56.9306C73.9875 57.2796 75.2592 57.8884 76.3614 58.6927C76.5742 58.8483 76.7809 59.0108 76.9809 59.1808C77.8549 59.922 78.6024 60.7939 79.2012 61.7588C79.3333 61.9715 79.4579 62.1883 79.5752 62.4096C79.9925 63.1966 80.3154 64.0352 80.5327 64.9078C80.7567 65.8073 80.8687 66.7426 80.8567 67.6938C80.8479 68.3884 80.7729 69.0913 80.6266 69.7951C80.6 69.9284 80.5699 70.0608 80.5376 70.1922Z" fill="#FDD462"/>
<path d="M78.4176 69.6655C78.3855 69.7959 78.3501 69.9255 78.3137 70.0535C77.004 74.5094 72.4148 77.1907 67.8887 76.0651C63.3627 74.9394 60.5419 70.4152 61.4441 65.8579C61.4711 65.7275 61.4996 65.5961 61.5317 65.4657C62.6819 60.779 67.405 57.9083 72.0606 59.0662C76.7162 60.2239 79.5678 64.9786 78.4176 69.6655Z" fill="#F37E00"/>
<path d="M78.3139 70.0536C77.0043 74.5094 72.415 77.1907 67.889 76.0651C67.7876 76.0399 67.6882 76.0126 67.5888 75.984C66.5879 75.6973 65.6757 75.2427 64.8745 74.6573C64.0733 74.0717 63.3838 73.3567 62.8294 72.5493C62.6885 72.3444 62.5564 72.1342 62.4322 71.917C61.8717 70.9307 61.4979 69.8362 61.3505 68.6898C61.314 68.4153 61.2912 68.1365 61.2821 67.8574C61.2589 67.1985 61.3121 66.5285 61.4442 65.8581C62.754 61.4022 67.3433 58.7198 71.8693 59.8454C72.4418 59.9879 72.9871 60.1851 73.502 60.4302C73.7641 60.5544 74.019 60.6922 74.2648 60.8414C75.2692 61.4498 76.1275 62.251 76.8025 63.1826C76.9482 63.3837 77.086 63.5916 77.2145 63.806C77.7147 64.6352 78.0795 65.5476 78.2856 66.5059C78.4862 67.4403 78.5366 68.4167 78.4171 69.4026C78.3919 69.6188 78.357 69.8366 78.3139 70.0536Z" fill="#F7A219"/>
<path d="M69.9653 72.6792L69.6189 74.0914L67.8369 73.6483L68.1679 72.2997C66.9228 71.9091 65.7814 71.2607 65.1387 70.6014L66.6361 68.652C67.3484 69.3555 68.3824 69.9502 69.3555 70.1922C70.2021 70.4028 70.5492 70.3002 70.6242 69.9948C70.899 68.8753 65.7867 68.5622 66.6015 65.2417C66.9543 63.8041 68.2871 62.8533 70.4315 63.0761L70.7718 61.6895L72.5537 62.1326L72.2197 63.4938C73.1331 63.8154 73.9835 64.2835 74.604 64.8697L73.1729 66.8219C72.41 66.1598 71.6417 65.7393 70.8708 65.5474C69.9988 65.3306 69.6584 65.5159 69.5834 65.8211C69.3212 66.8898 74.4304 67.2156 73.6248 70.4977C73.2876 71.8722 72.0085 72.8229 69.9653 72.6792Z" fill="#F37E00"/>
<path d="M70.0283 72.1966L69.6818 73.6088L67.8999 73.1656L68.2308 71.8171C66.9857 71.4265 65.8444 70.7781 65.2017 70.1188L66.6991 68.1694C67.4113 68.8731 68.4454 69.4676 69.4185 69.7095C70.2651 69.9202 70.6122 69.8174 70.6872 69.5122C70.962 68.3927 65.8497 68.0796 66.6645 64.7592C67.0172 63.3217 68.3501 62.3709 70.4945 62.5936L70.8348 61.207L72.6167 61.6501L72.2827 63.0114C73.1961 63.333 74.0465 63.8011 74.667 64.3873L73.2358 66.3397C72.4732 65.6776 71.7047 65.257 70.9338 65.0652C70.0618 64.8484 69.7214 65.0337 69.6464 65.3389C69.3842 66.4076 74.4933 66.7334 73.6878 70.0157C73.3506 71.3896 72.0715 72.3403 70.0283 72.1966Z" fill="#FDD462"/>
<defs>
<clipPath id="clip0_295_37371">
<rect width="21.8182" height="21.913" fill="white" transform="translate(31.3408 23.7393)"/>
</clipPath>
<clipPath id="clip1_295_37371">
<rect width="21.8182" height="21.913" fill="white" transform="translate(6.36377 56.6084)"/>
</clipPath>
</defs>
</svg>
