<svg width="100" height="78" viewBox="0 0 100 78" fill="none" xmlns="http://www.w3.org/2000/svg">
<path d="M87.8161 0.000121548L56.3555 7.62207L60.1553 22.9L91.6159 15.2781L87.8161 0.000121548Z" fill="#87DDD5"/>
<path d="M75.689 18.3724C78.2519 17.7515 79.5649 14.1737 78.6216 10.3812C77.6784 6.58865 74.8361 4.01754 72.2733 4.63845C69.7104 5.25935 68.3975 8.83714 69.3407 12.6297C70.2839 16.4222 73.1262 18.9933 75.689 18.3724Z" fill="white"/>
<path d="M87.3055 0.793945L57.2678 8.01943L57.1587 8.04559L60.5935 22.1947L90.7272 14.9206L87.3055 0.793945ZM62.6397 21.1985C61.2223 20.9942 60.9329 19.8348 60.9329 19.8348L59.0815 12.7645C58.5183 10.0416 59.7391 8.46514 60.6156 7.71587L70.6877 5.29287C70.1221 5.8011 69.6637 6.50341 69.3463 7.36931C68.782 8.90817 68.7277 10.7829 69.193 12.6483C69.6585 14.5136 70.5892 16.1506 71.8137 17.2577C72.226 17.6304 72.6554 17.9268 73.0924 18.1476L70.5549 18.7602L70.679 19.2578L62.6397 21.1985ZM76.1355 17.4131L74.8939 17.7128C72.8125 17.7389 70.6618 15.5513 69.8952 12.4789C69.0497 9.09063 70.2028 5.88966 72.4654 5.3434C74.7283 4.79714 77.257 7.10939 78.1025 10.4977C78.8692 13.5702 77.9926 16.4884 76.1355 17.4131ZM80.5319 16.3518L77.937 16.9782C78.2204 16.5836 78.4615 16.1252 78.6514 15.6072C79.2156 14.0683 79.2701 12.1936 78.8046 10.3282C78.3391 8.46284 77.4084 6.82599 76.184 5.7188C75.4967 5.09739 74.7617 4.68409 74.0229 4.49065L84.1057 2.0651C85.2406 2.36036 86.9684 3.23315 87.7243 5.8122L89.4112 12.9222C89.4112 12.9222 89.7138 14.1384 88.4526 14.9674L80.6559 16.8495L80.5319 16.3518Z" fill="#52D5BA"/>
<path d="M67.4487 12.4718L61.5068 13.8975L61.7313 14.8023L67.6732 13.3766L67.4487 12.4718Z" fill="#52D5BA"/>
<path d="M86.4433 7.91416L80.5015 9.33984L80.7259 10.2447L86.6677 8.81898L86.4433 7.91416Z" fill="#52D5BA"/>
<path d="M53.441 35.5624L51.2853 34.7758L50.7427 32.5302L51.9902 32.2461L53.0072 33.6042L53.8393 33.6519L54.6251 34.8904L53.441 35.5624Z" fill="#EACFC1"/>
<path d="M67.5684 31.0039L60.075 36.3819L53.5405 33.605L52.5815 35.339L57.5305 38.6542L60.3047 39.6741L67.5684 36.2346V31.0039Z" fill="#3629B7"/>
<path d="M77.6748 19.8538L77.8361 17.5981L75.981 16.1855L75.2031 17.1861L76.0408 18.6574L75.7416 19.4225L76.564 20.6374L77.6748 19.8538Z" fill="#EACFC1"/>
<path d="M62.9761 45.4724L62.8262 58.2353L64.209 74.6652H66.0894L68.3392 59.5072L70.9122 44.3232L62.9761 45.4724Z" fill="#145566"/>
<path d="M66.0777 75.4446L64.0444 76.4448L63.0278 75.4446L64.0444 74.4443H66.0777V75.4446Z" fill="#343434"/>
<path d="M75.8672 45.4724L75.9041 52.8562L74.636 74.6652H72.7557L69.6103 60.1928L67.9312 44.3232L75.8672 45.4724Z" fill="#145566"/>
<path d="M72.7666 75.4446L74.7999 76.4448L75.8165 75.4446L74.7999 74.4443H72.7666V75.4446Z" fill="#343434"/>
<path d="M77.823 49.918C77.8633 51.0895 77.8374 52.6566 77.3359 52.7151C77.2419 52.7261 77.1514 52.6853 77.0687 52.6457C76.1967 52.229 75.5751 51.64 74.7154 51.2374C73.8145 50.8155 72.7905 50.5948 71.7899 50.4423C70.2973 50.2079 68.7802 50.067 67.278 50.0539C65.987 50.0427 64.6444 50.6218 63.4239 50.9405C62.9541 51.0631 62.5719 51.3998 62.1815 51.664C61.6051 52.054 61.3523 52.2084 61.431 51.4116C61.5593 50.1111 61.6924 48.8108 61.8551 47.514C62.1796 44.9274 62.6212 42.347 63.3685 39.8429C63.6539 38.8863 63.9833 37.9431 64.3124 37.0001C64.7133 35.852 65.1142 34.7037 65.515 33.5556C66.0132 32.1285 66.8542 31.1232 68.3266 30.6241C69.5991 30.1927 71.1797 30.0746 72.4173 30.6786C73.7931 31.3499 74.4475 33.6368 75.1158 34.859C75.7016 35.9299 76.4399 38.851 76.6592 40.0055C76.923 41.3951 77.1668 42.7783 77.3587 44.1577C77.5712 45.6856 77.721 47.2089 77.7645 48.7233C77.7696 48.8906 77.8038 49.3587 77.823 49.918Z" fill="#3629B7"/>
<path d="M71.0268 30.8809L68.4858 30.9047C68.4858 30.9047 65.7592 40.2766 65.6591 41.8919C65.5607 43.4775 64.8716 49.9071 64.8716 49.9071C64.8716 49.9071 67.6856 49.9723 70.9279 50.3608C74.0975 51.028 74.364 50.6335 74.364 50.6335C74.364 50.6335 72.6533 43.8758 72.5965 41.9344C72.5385 39.9485 72.2801 33.3896 72.2801 33.3896L71.0268 30.8809Z" fill="white"/>
<path d="M69.4856 30.931C69.5155 30.9565 69.5498 30.9766 69.5895 30.9894C69.6685 31.015 69.7542 31.0056 69.8367 30.9961C70.1728 30.9569 70.509 30.9179 70.8451 30.8787C70.7342 29.8663 71.3359 29.6373 71.9223 28.9862C72.5166 28.3262 72.3337 27.4362 72.3002 26.6283C72.2907 26.4034 72.2796 26.1715 72.1828 25.9675C72.0131 25.6093 71.6179 25.4115 71.2343 25.2943C70.2553 24.995 69.1356 25.0687 68.2736 25.6145C68.0443 25.7597 67.83 25.9423 67.7057 26.1812C67.5141 26.5496 67.5627 26.9892 67.6162 27.3995C67.6983 28.0304 67.8881 28.6499 68.2507 29.1816C68.5885 29.6769 69.2328 29.9142 69.3069 30.5086C69.3261 30.6623 69.3733 30.835 69.4856 30.931Z" fill="#EACFC1"/>
<path d="M67.6445 26.6656C67.7017 26.9201 67.8223 27.1775 67.7595 27.4306C67.3486 27.2934 67.0802 26.88 66.9346 26.4598C66.8687 26.2694 66.8207 26.0676 66.8373 25.866C66.8539 25.6645 66.9429 25.4619 67.1046 25.3481C67.3303 25.1892 67.7352 25.2516 67.7997 25.5397C67.8649 25.83 67.5586 26.2828 67.6445 26.6656Z" fill="#343434"/>
<path d="M65.4635 24.4298C65.4733 24.125 65.5913 23.8527 65.8683 23.6685C66.107 23.5099 66.3823 23.3784 66.5273 23.1262C66.64 22.9305 66.6564 22.6883 66.768 22.4921C66.97 22.1367 67.4085 22.0321 67.7899 21.9116C68.7441 21.6102 69.2577 21.2623 70.2684 21.6481C70.9868 21.9225 71.9153 21.9592 72.5822 22.3594C72.8607 22.5265 73.0976 22.7949 73.2921 23.094C73.9658 24.13 74.1276 25.5868 73.6887 26.6673C73.5905 26.9092 73.4656 27.1316 73.3323 27.3446C73.0654 27.7704 72.7797 28.2944 72.3074 28.5028C72.2777 28.3022 72.1258 28.1915 72.0781 27.9942C72.0439 27.8523 72.0554 27.7035 72.0628 27.5574C72.0919 26.9892 72.269 26.0909 71.6922 25.8092C70.9627 25.4529 69.5944 25.7743 68.8917 26.0758C68.2701 26.3427 67.2209 26.6899 66.5582 26.404C65.9429 26.1388 65.4426 25.0811 65.4635 24.4298Z" fill="#343434"/>
<path d="M71.8413 30.551L78.2918 28.6811L75.9042 20.7492L77.8717 19.3613L82.6212 28.5436L81.3077 31.7232L75.1446 34.8521L71.8413 30.551Z" fill="#3629B7"/>
<path d="M49.6809 39.3625C53.7364 38.5163 56.3316 34.5956 55.4773 30.6054C54.6231 26.6153 50.6429 24.0667 46.5873 24.913C42.5318 25.7593 39.9367 29.68 40.7909 33.6701C41.6452 37.6602 45.6253 40.2088 49.6809 39.3625Z" fill="#FB6B18"/>
<path opacity="0.1" d="M50.6646 24.4844C46.3658 23.1134 41.751 25.4298 40.3572 29.6578C38.9633 33.886 41.3184 38.4248 45.6171 39.7958C49.916 41.1667 54.5307 38.8504 55.9246 34.6224C57.3184 30.3942 54.9635 25.8553 50.6646 24.4844ZM46.0411 38.51C42.4643 37.3693 40.505 33.5929 41.6646 30.0749C42.8243 26.557 46.6639 24.6298 50.2407 25.7705C53.8174 26.9111 55.7768 30.6875 54.6171 34.2055C53.4575 37.7233 49.6178 39.6506 46.0411 38.51Z" fill="#272525"/>
<path d="M50.9233 23.6997C46.1834 22.1881 41.0953 24.742 39.5585 29.4039C38.0217 34.0658 40.6183 39.0703 45.358 40.5818C50.0978 42.0934 55.1859 39.5394 56.7227 34.8777C58.2597 30.2157 55.6631 25.2112 50.9233 23.6997ZM45.8255 39.1638C41.8819 37.9062 39.7214 33.7423 41.0001 29.8635C42.2787 25.9847 46.5122 23.8599 50.4558 25.1174C54.3995 26.375 56.5599 30.5389 55.2813 34.4177C54.0026 38.2966 49.7691 40.4214 45.8255 39.1638Z" fill="#FFAF2A"/>
<path d="M45.1134 33.504C45.046 33.4159 45.0724 33.2857 45.09 33.1656C45.135 32.8604 45.3905 32.7006 45.6922 32.7608C46.145 32.8512 46.4815 33.3216 46.8148 33.6353C47.0884 33.893 47.4215 34.0856 47.8135 34.2133C48.2333 34.35 48.6038 34.359 48.9251 34.2405C49.2461 34.122 49.4619 33.899 49.572 33.5717C49.6837 33.2399 49.6612 32.9705 49.5044 32.7638C49.3476 32.5571 49.0217 32.3732 48.5265 32.212L48.1997 32.1056C47.3917 31.8426 46.8316 31.4762 46.5194 31.0062C46.2073 30.5363 46.1575 29.9857 46.3698 29.3544C46.5775 28.7372 46.9457 28.3253 47.4745 28.1188C48.0032 27.9122 48.642 27.9307 49.3907 28.1744C49.6957 28.2737 49.9896 28.4251 50.2728 28.6289C50.8614 29.0527 51.7761 29.9318 51.3281 30.5009C50.8172 31.1499 50.0227 29.7104 49.6747 29.4067C49.4708 29.229 49.2085 29.0877 48.8878 28.9834C48.5155 28.8622 48.1827 28.8616 47.8898 28.9815C47.5967 29.1014 47.3998 29.311 47.2991 29.6101C47.2 29.9048 47.2459 30.1531 47.4373 30.3555C47.6285 30.5578 48.1071 30.794 48.8733 31.0641C49.6893 31.3557 50.2343 31.7212 50.5084 32.1606C50.7826 32.6001 50.8086 33.1494 50.5868 33.8086C50.3744 34.4398 49.9944 34.8765 49.4472 35.1185C48.8999 35.3606 48.2698 35.3655 47.5568 35.1334C47.331 35.0599 47.0878 34.9535 46.8271 34.8142C46.3418 34.555 45.5773 34.1112 45.1134 33.504Z" fill="white"/>
<path d="M46.7629 36.7207L46.754 36.7177C46.5078 36.6376 46.3847 36.3458 46.4789 36.0658L49.3866 27.4244C49.4808 27.1444 49.7566 26.9823 50.0027 27.0625L50.0117 27.0654C50.2578 27.1455 50.3809 27.4374 50.2867 27.7173L47.379 36.3588C47.2848 36.6387 47.009 36.8008 46.7629 36.7207Z" fill="white"/>
<path d="M20.9824 24.9549L21.2578 22.6847L23.0628 21.6602L23.584 22.8829L22.7221 24.2745V25.4139L20.9824 24.9549Z" fill="#EACFC1"/>
<path d="M34.8123 75.5621L33.1972 74.0945C32.7286 73.8611 32.2329 73.6983 31.8312 73.7032C31.5396 73.7068 31.2975 73.799 31.1515 74.0167C31.0113 74.2259 30.9829 74.5013 31.0784 74.7245C31.1133 74.8061 31.1628 74.8791 31.2187 74.948H31.2186C31.2186 74.948 31.2193 74.9486 31.2194 74.9489C31.2675 75.0081 31.3201 75.0643 31.3725 75.1197C31.4058 75.1549 31.4427 75.1928 31.4817 75.2323C31.8159 75.5886 32.376 76.1691 32.5982 76.3004C32.9244 76.4928 33.6417 77.0062 34.4895 76.4286C34.4864 76.4258 34.4829 76.4233 34.4796 76.4205C34.788 76.2151 34.8788 75.8776 34.8123 75.5621Z" fill="#343434"/>
<path d="M33.5452 62.7834L33.4149 64.6247L32.775 73.5884L33.4149 74.6312C33.4149 74.6312 33.5452 75.465 32.567 75.4008C32.2761 75.3818 31.2453 74.0929 31.2453 74.0929L31.3943 73.5023L30.6689 66.7718L30.6755 64.817L30.3286 62.6465L33.5452 62.7834Z" fill="#EACFC1"/>
<path d="M23.3068 73.2852C23.0062 73.1922 22.7261 73.2065 22.5017 73.3816C22.2861 73.5498 22.1624 73.8231 22.1841 74.0839C22.1989 74.2617 22.2753 74.4262 22.3507 74.5869C22.7406 75.4186 23.8346 77.299 25.0896 76.9543C25.617 76.8095 25.8166 76.2798 25.7096 75.8119C25.5482 75.1068 24.3121 73.5964 23.3068 73.2852Z" fill="#343434"/>
<path d="M29.6331 61.7085L29.4145 64.3596L24.1233 73.7299C24.1233 73.7299 24.8839 75.0368 24.4014 75.1504C23.9191 75.2639 22.5044 74.868 22.5015 73.3923C23.0578 71.6051 25.2445 65.5364 25.2445 65.5364L26.2685 63.9703L26.2535 61.0273L29.6331 61.7085Z" fill="#EACFC1"/>
<path d="M23.6544 52.834C23.6127 52.0523 23.8668 50.0133 24.128 49.2826C25.0798 46.6183 25.2634 45.3052 25.2634 43.1366C25.2634 40.9681 24.2852 34.0922 24.2852 34.0922L27.5783 32.2455L31.7577 32.1982L33.9481 33.1329C33.9481 33.1329 34.4988 41.5828 34.6348 44.371C34.7318 46.3608 34.8723 48.0841 35.0572 50.3896C35.0572 50.3897 35.5757 55.6481 34.7746 61.2851C34.7746 61.2851 34.5957 63.157 34.5156 63.3209C34.5049 63.3766 34.499 63.4064 34.499 63.4064C34.499 63.4064 34.4668 63.4064 34.4664 63.4066L25.4071 63.4064V60.194C25.1056 59.1628 24.8192 58.1271 24.5447 57.0888C24.1958 55.769 23.732 54.2844 23.6544 52.834Z" fill="#0890FE"/>
<path d="M25.5709 32.6927L24.0244 33.8365C24.0244 33.8365 25.2009 41.7557 25.2635 43.1376C25.3263 44.5195 23.5156 50.0417 23.5156 50.0417L31.0156 51.0039C31.0156 51.0039 32.1187 45.1063 32.4362 42.1765C32.7537 39.2466 28.216 32.1045 28.216 32.1045L25.5709 32.6927Z" fill="#3629B7"/>
<path d="M33.0897 32.5521L34.6203 33.2665C34.6203 33.2665 34.4051 42.0698 34.7975 44.3057C35.0368 45.6688 35.9682 50.0823 35.9682 50.0823L33.5463 50.8976C33.5463 50.8976 32.0553 45.3767 31.759 42.447C31.4626 39.5172 31.7854 32.2314 31.7854 32.2314L33.0897 32.5521Z" fill="#3629B7"/>
<path d="M32.7928 29.3272C32.9915 30.0836 32.5352 30.8307 32.1361 31.4687C31.973 31.7294 31.7203 32.0919 31.9307 32.3894C32.1663 32.7225 32.7514 32.6558 33.0089 32.4067C33.1907 32.2308 33.28 31.9925 33.3575 31.76C33.7049 30.7183 34.1901 29.2592 34.0953 28.1641C34.0191 27.2861 32.9244 25.7268 31.7967 26.2847C31.592 26.386 31.4607 26.5762 31.3483 26.7633C31.2812 26.8749 31.2165 26.9921 31.2032 27.1196C31.15 27.6279 31.6484 27.7588 31.976 28.032C32.38 28.3689 32.6659 28.8442 32.7928 29.3272Z" fill="#343434"/>
<path d="M30.911 32.045C31.6642 31.9509 32.2938 31.4331 32.6307 30.8096C32.9677 30.1861 33.0481 29.4689 33.0349 28.7694C32.9909 26.4416 29.8526 26.3123 28.6323 27.9852C27.5689 29.443 28.721 32.3186 30.911 32.045Z" fill="#EACFC1"/>
<path d="M28.7685 29.0856C28.7426 29.3674 28.5968 29.6664 28.5566 29.9559C28.4827 30.489 28.604 31.1808 28.4056 31.6678C27.8553 31.5937 27.1861 31.2551 26.7783 30.8837C26.3619 30.5043 26.4369 29.9404 26.3437 29.3815C26.2576 28.8646 26.1478 28.3452 26.1779 27.8223C26.3423 24.9595 29.2469 23.3938 31.806 24.6853C32.7742 25.1738 33.1976 26.4155 32.4855 27.2315C31.7195 28.109 30.1632 27.7285 29.2459 28.3797C29.0423 28.5242 28.8859 28.7837 28.7685 29.0856Z" fill="#343434"/>
<path d="M30.9738 31.8047C30.9357 31.9781 30.8974 32.1514 30.8593 32.3249C30.8418 32.4044 30.8484 32.6318 30.7788 32.6863C30.7426 32.7148 30.6888 32.7106 30.6412 32.7048C30.5052 32.6884 29.2872 32.5359 29.3004 32.4597C29.3359 32.2553 29.3758 32.0552 29.4405 31.86C29.4929 31.7024 29.5129 31.4057 29.6096 31.2861C29.8163 31.4253 30.0303 31.5114 30.2739 31.5793C30.5091 31.6449 30.7454 31.7066 30.9828 31.7645C30.9798 31.7779 30.9768 31.7913 30.9738 31.8047Z" fill="#EACFC1"/>
<path d="M27.8828 32.3647L21.9069 32.7917L23.2455 24.2217L21.0643 24.2332L17.8638 33.2171L18.9752 36.0474L25.9401 36.6805L27.8828 32.3647Z" fill="#3629B7"/>
<path d="M40.3362 76.3855H37.7212C37.1543 76.3855 36.6948 75.9342 36.6948 75.3774L34.4473 67.8841C34.4473 67.3273 34.9068 66.876 35.4737 66.876L41.2007 68.5741C41.7676 68.5741 42.2271 69.0254 42.2271 69.5823L41.3627 75.3774C41.3627 75.9341 40.9032 76.3855 40.3362 76.3855Z" fill="#FAB994"/>
<path d="M58.3806 76.3855H60.9956C61.5626 76.3855 62.0221 75.9342 62.0221 75.3774L64.2696 67.8841C64.2696 67.3273 63.8101 66.876 63.2431 66.876L57.5162 68.5741C56.9493 68.5741 56.4897 69.0254 56.4897 69.5823L57.3542 75.3774C57.3542 75.9341 57.8137 76.3855 58.3806 76.3855Z" fill="#FAB994"/>
<path d="M50.7189 44.0117V46.6958H48.1919V44.0117C37.6398 44.5478 32.167 51.8083 32.167 60.111C32.167 68.7393 39.9073 75.7339 49.4554 75.7339C59.0035 75.7339 66.7438 68.7392 66.7438 60.111C66.7438 51.8081 61.281 44.5474 50.7189 44.0117Z" fill="#FACCB2"/>
<path d="M34.7063 42.3738C34.6417 42.3678 34.5776 42.3977 34.5427 42.452C34.508 42.5063 31.1103 47.93 35.2949 53.4748C35.3287 53.5195 35.3808 53.5434 35.434 53.5434C35.4636 53.5434 35.4934 53.5359 35.5207 53.5206L43.3909 49.0328C43.4676 48.989 43.4981 48.8955 43.4619 48.8162C43.4349 48.7579 40.7188 42.973 34.7063 42.3738Z" fill="#FAB994"/>
<path d="M63.5682 42.452C63.5333 42.3976 63.4684 42.368 63.4046 42.3738C57.392 42.9728 54.6759 48.7578 54.649 48.8163C54.6127 48.8955 54.6433 48.9891 54.72 49.0328L62.5903 53.5207C62.6174 53.5361 62.6474 53.5435 62.6769 53.5435C62.7301 53.5435 62.7823 53.5194 62.816 53.4748C67.0006 47.9298 63.603 42.5062 63.5682 42.452Z" fill="#FAB994"/>
<path d="M45.1134 55.78C45.7372 55.78 46.2428 55.2831 46.2428 54.6703C46.2428 54.0574 45.7372 53.5605 45.1134 53.5605C44.4896 53.5605 43.9839 54.0574 43.9839 54.6703C43.9839 55.2831 44.4896 55.78 45.1134 55.78Z" fill="#3B455A"/>
<path d="M53.7979 55.78C54.4217 55.78 54.9273 55.2831 54.9273 54.6703C54.9273 54.0574 54.4217 53.5605 53.7979 53.5605C53.1741 53.5605 52.6685 54.0574 52.6685 54.6703C52.6685 55.2831 53.1741 55.78 53.7979 55.78Z" fill="#3B455A"/>
<path d="M49.4554 67.2421C53.198 67.2421 56.232 65.014 56.232 62.2656C56.232 59.5171 53.198 57.2891 49.4554 57.2891C45.7127 57.2891 42.6787 59.5171 42.6787 62.2656C42.6787 65.014 45.7127 67.2421 49.4554 67.2421Z" fill="#FAB994"/>
<path d="M36.3564 70.3066C39.5269 73.6296 44.2191 75.7335 49.4554 75.7335C59.0035 75.7335 66.7438 68.7389 66.7438 60.1107C66.7438 58.2833 66.4789 56.5066 65.9536 54.8408C59.8602 80.2078 36.3564 70.3066 36.3564 70.3066Z" fill="#FAB994"/>
<path d="M46.8646 63.0208C47.2056 63.0208 47.4821 62.563 47.4821 61.9982C47.4821 61.4334 47.2056 60.9756 46.8646 60.9756C46.5235 60.9756 46.2471 61.4334 46.2471 61.9982C46.2471 62.563 46.5235 63.0208 46.8646 63.0208Z" fill="white"/>
<path d="M52.0467 63.0208C52.3878 63.0208 52.6643 62.563 52.6643 61.9982C52.6643 61.4334 52.3878 60.9756 52.0467 60.9756C51.7057 60.9756 51.4292 61.4334 51.4292 61.9982C51.4292 62.563 51.7057 63.0208 52.0467 63.0208Z" fill="white"/>
<path d="M33.9702 32.9209L35.5008 33.6352L37.7779 40.8742L42.7525 44.3227L41.5857 45.5622L35.766 42.9951L34.3425 39.9343L33.9702 32.9209Z" fill="#3629B7"/>
<path d="M42.6095 44.1924L43.6235 44.5692L42.7295 45.9865L41.4138 46.014L40.8213 45.079L42.6095 44.1924Z" fill="#3629B7"/>
<path d="M9.87585 76.3556L9.78984 77.2365L7.97694 78.0006L7.19971 77.0612L8.1491 76.2387L9.96187 75.4746L9.87585 76.3556Z" fill="#343434"/>
<path d="M11.3897 58.505L9.99379 76.0773L8.24706 76.3107L6.80145 61.3336L5.60596 56.582L11.3897 58.505Z" fill="#B5D6CA"/>
<path d="M15.5673 53.8936L16.6145 74.7744L15.0211 75.0693L11.7013 59.2695L9.875 54.6946L15.5673 53.8936Z" fill="#B5D6CA"/>
<path d="M15.1621 75.7614L17.0552 76.3311L17.7468 75.2829L16.7153 74.5537L14.9922 74.8728L15.1621 75.7614Z" fill="#343434"/>
<path d="M13.3139 31.341C12.0237 30.2904 8.91325 30.8945 7.27666 30.8945C7.43416 30.8945 5.72557 39.8797 5.6716 40.6634C5.47441 43.5204 4.57432 46.4104 3.33225 49.0264C2.80851 50.1292 2.18437 51.1931 1.81203 52.3539C1.19502 54.2775 1.19658 56.5438 1.37107 58.5347C3.1274 59.0095 4.77255 59.8988 6.57896 60.1292C8.06492 60.3188 9.56581 60.05 11.0584 59.9201C12.8235 59.7665 14.6012 59.8074 16.3679 59.6738C18.1347 59.5402 19.9207 59.2208 21.4846 58.4013C20.7852 57.0701 20.2466 55.6637 19.7984 54.2333C19.3534 52.813 18.7809 51.2356 18.6185 49.7546C18.4718 48.4167 18.4478 47.0552 18.2498 45.6987C18.0195 44.1206 17.7428 42.5476 17.3585 40.9981C16.919 39.2262 16.3391 37.4881 15.6271 35.804C15.0851 34.522 14.4382 32.4221 13.4198 31.4353C13.3861 31.4024 13.3508 31.371 13.3139 31.341Z" fill="#3629B7"/>
<path d="M3.69229 50.4115C3.62613 50.8651 3.9947 52.0247 4.42671 52.2768C5.42396 52.8588 5.06266 51.3959 5.05319 50.8625C5.24377 50.9158 5.42643 50.9731 5.61999 50.9888C5.79746 51.0032 5.27205 49.4389 5.09691 49.2932C4.67683 48.9438 4.37845 49.1232 3.86821 49.1771C3.81969 49.5886 3.75262 50.0003 3.69229 50.4115Z" fill="#3629B7"/>
<path d="M5.22191 33.9138L0 42.8815L3.71402 50.7149L4.97334 49.0774L3.64707 42.0663L7.85641 37.8001L7.27676 30.8945L5.22191 33.9138Z" fill="#0890FE"/>
<path d="M18.6259 48.7152C18.6921 49.1688 18.3235 50.3284 17.8915 50.5805C16.8942 51.1625 17.2555 49.6997 17.265 49.1663C17.0744 49.2196 16.8918 49.2768 16.6982 49.2925C16.5207 49.3069 17.0463 47.7426 17.2213 47.5969C17.6414 47.2475 17.9397 47.4269 18.45 47.4809C18.4986 47.8923 18.5657 48.3039 18.6259 48.7152Z" fill="#0890FE"/>
<path d="M15.5658 32.9198L19.6374 38.603L18.6043 49.019L17.3451 47.3816L16.6622 39.6729L14.462 36.1043L12.5527 30.8945L15.5658 32.9198Z" fill="#0890FE"/>
<path d="M10.5732 26.4842C11.3906 26.6306 12.3983 27.3175 12.5953 28.1655C12.6901 28.5739 12.5549 28.95 12.6742 29.383C12.9057 30.2378 11.8542 31.4971 12.8952 32.0913C13.4302 32.3967 14.0989 32.2978 14.7076 32.1896C14.7814 32.1765 14.8586 32.1619 14.917 32.1156C15.0131 32.0394 15.0292 31.8969 14.9928 31.7808C14.9563 31.6647 14.8782 31.5668 14.8098 31.4656C14.0945 30.4077 14.2678 28.8902 13.9897 27.6856C13.712 26.4831 13.0552 25.2854 11.8441 24.792C11.2403 25.1767 10.8012 25.8036 10.6508 26.4956L10.5732 26.4842Z" fill="#343434"/>
<path d="M11.5991 31.6616C12.3854 31.3307 12.9064 30.5433 13.0776 29.7191C13.2489 28.895 13.1132 28.037 12.8816 27.2271C12.1111 24.5323 8.67253 25.3042 7.87077 27.6086C7.17216 29.6169 9.31263 32.6233 11.5991 31.6616Z" fill="#CC937A"/>
<path d="M7.5955 33.1437C7.98145 32.9076 8.36002 32.6606 8.58368 32.2197C8.94524 31.5072 8.79268 30.4001 8.83588 29.6273C8.88102 28.8125 8.95653 27.9248 9.5245 27.3301C9.89541 26.9417 10.3517 26.835 10.867 26.7834C11.2199 26.7481 11.2449 26.8784 11.5275 26.6667C11.744 26.5045 11.9025 26.0611 11.9338 25.807C11.9865 25.3784 11.7759 24.9489 11.4645 24.6446C10.9854 24.1763 10.4478 23.9691 9.79059 24.0099C7.4838 24.1532 5.87186 25.641 5.41481 27.908C5.19517 28.9977 5.52884 30.1623 5.28482 31.2137C5.13407 31.8628 4.75901 32.3183 4.65055 33.0052C4.36916 34.7875 3.58207 37.1028 3.81351 38.902C3.82207 38.9686 3.83647 39.042 3.89122 39.082C4.00266 39.1637 4.14835 39.0406 4.22969 38.9298C4.70452 38.2829 5.17947 37.6361 5.6543 36.9891C5.84072 36.7351 6.02962 36.4768 6.13768 36.1821C6.40675 35.4482 6.15662 34.5493 6.62081 33.9167C6.87405 33.5715 7.23795 33.3622 7.5955 33.1437Z" fill="#343434"/>
<path d="M27.4463 22.617C31.3975 21.7431 33.8854 17.8832 33.0033 13.9956C32.1212 10.108 28.203 7.66493 24.2519 8.53881C20.3007 9.41268 17.8128 13.2726 18.6949 17.1602C19.577 21.0478 23.4952 23.4909 27.4463 22.617Z" fill="#FB6B18"/>
<path opacity="0.1" d="M25.1099 7.75273C20.7147 8.15863 17.4861 11.9921 17.8988 16.3152C18.3115 20.6382 22.2091 23.8136 26.6044 23.4077C30.9997 23.0018 34.2282 19.1684 33.8155 14.8453C33.4028 10.5223 29.5051 7.34684 25.1099 7.75273ZM26.4788 22.093C22.8218 22.4307 19.5789 19.7886 19.2356 16.1917C18.8922 12.5948 21.5784 9.40515 25.2355 9.06752C28.8925 8.72977 32.1355 11.3719 32.4787 14.9688C32.822 18.5656 30.1359 21.7552 26.4788 22.093Z" fill="#272525"/>
<path d="M25.0335 6.94967C20.1873 7.39716 16.6277 11.6239 17.0826 16.3904C17.5376 21.1568 21.835 24.658 26.6812 24.2105C31.5272 23.763 35.087 19.5363 34.632 14.7698C34.177 10.0033 29.8796 6.50218 25.0335 6.94967ZM26.5429 22.7608C22.5108 23.1332 18.9352 20.2201 18.5567 16.2543C18.1781 12.2885 21.1399 8.77167 25.172 8.39933C29.2041 8.027 32.7797 10.94 33.1583 14.9059C33.5367 18.8717 30.575 22.3885 26.5429 22.7608Z" fill="#FFAF2A"/>
<path d="M23.6778 17.9557C23.5828 17.9023 23.5551 17.7754 23.5237 17.6611C23.4439 17.3702 23.6103 17.1296 23.9047 17.0689C24.3463 16.9778 24.8333 17.2715 25.2555 17.4262C25.6023 17.5533 25.9767 17.5993 26.3787 17.5646C26.809 17.5275 27.145 17.3947 27.3865 17.1661C27.6279 16.9377 27.7336 16.6556 27.7038 16.3202C27.6735 15.9798 27.5472 15.7468 27.3254 15.6212C27.1034 15.4955 26.7387 15.4545 26.2312 15.4983L25.8962 15.5272C25.068 15.5987 24.4214 15.4832 23.9566 15.1803C23.4918 14.8775 23.2305 14.4026 23.1727 13.7556C23.1163 13.123 23.2846 12.6135 23.6777 12.2269C24.0706 11.8405 24.6509 11.614 25.4183 11.5478C25.731 11.5209 26.0542 11.5449 26.3883 11.6199C27.083 11.7761 28.2492 12.2167 28.0712 12.8977C27.8683 13.6742 26.5893 12.6852 26.1576 12.5452C25.9049 12.4633 25.6141 12.4364 25.2853 12.4648C24.9036 12.4978 24.6049 12.6238 24.3892 12.8428C24.1735 13.0619 24.0793 13.3249 24.1067 13.6315C24.1337 13.9334 24.2726 14.1388 24.5238 14.2474C24.7748 14.3561 25.2971 14.386 26.0906 14.3367C26.9372 14.2879 27.5699 14.4082 27.9886 14.6981C28.4072 14.988 28.6467 15.4708 28.707 16.1466C28.7648 16.7937 28.5957 17.3299 28.2 17.7553C27.8042 18.1807 27.2411 18.4249 26.5101 18.4879C26.2787 18.5079 26.0187 18.505 25.73 18.4793C25.1931 18.4312 24.3327 18.324 23.6778 17.9557Z" fill="white"/>
<path d="M26.4228 20.214L26.4136 20.2148C26.1614 20.2366 25.9361 20.0216 25.9105 19.7346L25.12 10.8767C25.0945 10.5898 25.2782 10.3395 25.5304 10.3177L25.5396 10.317C25.7918 10.2951 26.017 10.5101 26.0427 10.7971L26.8332 19.655C26.8587 19.942 26.675 20.1923 26.4228 20.214Z" fill="white"/>
<path d="M17.1361 54.0938L5.75627 51.8265C5.41014 51.7575 5.1905 51.4052 5.26575 51.0395L8.51971 35.2404C8.59496 34.8747 8.93668 34.6342 9.28293 34.7032L20.6627 36.9705C21.0089 37.0394 21.2285 37.3919 21.1532 37.7576L17.8993 53.5566C17.8239 53.9223 17.4822 54.1627 17.1361 54.0938Z" fill="#0890FE"/>
<path d="M11.8141 45.3645L8.83411 44.7707C8.64872 44.7337 8.53106 44.545 8.5714 44.3491L9.20204 41.2872C9.24238 41.0914 9.42544 40.9625 9.61082 40.9995L12.5908 41.5932C12.7762 41.6302 12.8939 41.819 12.8535 42.0148L12.2229 45.0767C12.1825 45.2725 11.9996 45.4013 11.8141 45.3645Z" fill="#3629B7"/>
<path d="M17.3082 46.4601L14.3283 45.8664C14.1427 45.8294 14.0252 45.6407 14.0655 45.4448L14.6962 42.3829C14.7365 42.1871 14.9196 42.0582 15.1051 42.0952L18.0851 42.6889C18.2706 42.7259 18.3881 42.9147 18.3478 43.1105L17.7172 46.1724C17.6767 46.3683 17.4936 46.4971 17.3082 46.4601Z" fill="#3629B7"/>
<path d="M10.7828 50.3713L7.80286 49.7776C7.61747 49.7406 7.4998 49.5518 7.54015 49.356L8.17079 46.2941C8.21113 46.0982 8.39419 45.9693 8.57958 46.0063L11.5596 46.6001C11.745 46.6371 11.8626 46.8258 11.8223 47.0216L11.1916 50.0835C11.1514 50.2794 10.9684 50.4082 10.7828 50.3713Z" fill="#3629B7"/>
<path d="M16.277 51.465L13.297 50.8713C13.1115 50.8344 12.994 50.6456 13.0343 50.4497L13.6649 47.3878C13.7053 47.192 13.8883 47.0631 14.0737 47.1001L17.0537 47.6938C17.2392 47.7308 17.3568 47.9195 17.3164 48.1154L16.6858 51.1773C16.6454 51.373 16.4624 51.5019 16.277 51.465Z" fill="#3629B7"/>
<path d="M10.9176 43.0749L11.7639 43.2435C11.8167 43.2539 11.8569 43.2809 11.8844 43.3239C11.9119 43.367 11.9204 43.4148 11.9095 43.4673C11.8986 43.5199 11.8727 43.5592 11.8318 43.5852C11.7908 43.6112 11.7431 43.6187 11.6887 43.6079L10.8424 43.4393L10.6522 44.363C10.64 44.4221 10.6147 44.4666 10.5762 44.4965C10.5377 44.5265 10.492 44.5362 10.4392 44.5256C10.3925 44.5163 10.3558 44.4885 10.3289 44.4421C10.3021 44.3958 10.294 44.3463 10.3049 44.2937L10.4951 43.37L9.65352 43.2022C9.59903 43.1914 9.55778 43.1661 9.52963 43.1263C9.50147 43.0865 9.49265 43.0404 9.50355 42.9878C9.51367 42.9385 9.5413 42.8987 9.58632 42.8683C9.63134 42.8381 9.67882 42.8277 9.72851 42.8377L10.5701 43.0054L10.7598 42.0841C10.772 42.025 10.798 41.9806 10.8381 41.951C10.8782 41.9214 10.9239 41.9117 10.9751 41.9219C11.0279 41.9324 11.0662 41.9589 11.0898 42.0012C11.1134 42.0435 11.1193 42.0942 11.1071 42.1533L10.9176 43.0749Z" fill="#EEEEEE"/>
<path d="M15.1995 44.3675C15.1683 44.3612 15.146 44.3461 15.1324 44.322C15.1188 44.2979 15.1156 44.2679 15.123 44.2316L15.1768 43.9705C15.1831 43.9394 15.1971 43.9165 15.2188 43.902C15.2403 43.8875 15.2667 43.8833 15.2978 43.8894L17.2304 44.2747C17.2661 44.2818 17.2923 44.2964 17.3088 44.3184C17.3252 44.3405 17.3303 44.3672 17.3238 44.3983L17.2701 44.6595C17.264 44.689 17.2469 44.7135 17.2186 44.7326C17.1905 44.7518 17.1615 44.7584 17.1319 44.7525L15.1995 44.3675Z" fill="#EEEEEE"/>
<path d="M14.2825 48.6653C14.2513 48.6591 14.229 48.644 14.2154 48.6199C14.2018 48.5957 14.1987 48.5656 14.2061 48.5295L14.2598 48.2683C14.2661 48.2372 14.2801 48.2144 14.3018 48.1998C14.3233 48.1854 14.3497 48.1812 14.3808 48.1873L16.3134 48.5725C16.3491 48.5797 16.3753 48.5942 16.3918 48.6163C16.4083 48.6384 16.4133 48.6651 16.4068 48.6962L16.3531 48.9574C16.347 48.987 16.3299 49.0113 16.3016 49.0305C16.2735 49.0496 16.2445 49.0563 16.215 49.0504L14.2825 48.6653Z" fill="#EEEEEE"/>
<path d="M14.0852 49.6233C14.0541 49.6171 14.0317 49.602 14.0181 49.5779C14.0045 49.5537 14.0014 49.5237 14.0088 49.4875L14.0625 49.2264C14.0689 49.1952 14.0829 49.1724 14.1045 49.1578C14.1261 49.1434 14.1524 49.1392 14.1835 49.1453L16.1162 49.5305C16.1519 49.5377 16.1781 49.5522 16.1945 49.5743C16.211 49.5964 16.2161 49.623 16.2096 49.6542L16.1559 49.9153C16.1498 49.9449 16.1327 49.9693 16.1044 49.9885C16.0762 50.0076 16.0473 50.0143 16.0177 50.0084L14.0852 49.6233Z" fill="#EEEEEE"/>
<path d="M8.68188 48.1409C8.65074 48.1346 8.62843 48.1196 8.61481 48.0955C8.60118 48.0713 8.59807 48.0412 8.60547 48.0051L8.65918 47.744C8.66553 47.7128 8.67967 47.69 8.70121 47.6754C8.72275 47.6609 8.74908 47.6568 8.78022 47.6629L10.7129 48.0481C10.7485 48.0553 10.7748 48.0698 10.7912 48.0919C10.8077 48.114 10.8128 48.1406 10.8063 48.1718L10.7526 48.4329C10.7465 48.4625 10.7293 48.4869 10.7011 48.5061C10.6729 48.5252 10.644 48.5319 10.6144 48.526L8.68188 48.1409Z" fill="#EEEEEE"/>
<path d="M10.0819 47.5337C10.0518 47.6801 9.91499 47.7765 9.77644 47.7488C9.63789 47.7212 9.54994 47.5801 9.58017 47.4337C9.61026 47.2873 9.74712 47.1909 9.88567 47.2186C10.0241 47.2463 10.112 47.3873 10.0819 47.5337Z" fill="#EEEEEE"/>
<path d="M9.82905 48.7613C9.79895 48.9077 9.66208 49.004 9.52352 48.9763C9.38497 48.9488 9.29701 48.8076 9.32724 48.6612C9.35734 48.5148 9.49421 48.4185 9.63276 48.4462C9.77132 48.4737 9.85915 48.6149 9.82905 48.7613Z" fill="#EEEEEE"/>
<path d="M9.56573 36.6857L9.07812 39.0537L19.333 41.0965L19.8206 38.7285L9.56573 36.6857Z" fill="white"/>
<path d="M90.3819 74.098C90.5586 73.9065 90.765 73.8021 90.998 73.8381C91.2218 73.8727 91.4233 74.022 91.5155 74.2217C91.5785 74.3578 91.5918 74.5096 91.6043 74.6582C91.6688 75.4268 91.663 77.2519 90.6223 77.5147C90.185 77.6249 89.8232 77.3192 89.7064 76.9329C89.5305 76.3507 89.791 74.7381 90.3819 74.098Z" fill="#343434"/>
<path d="M90.0122 62.5059L90.0667 67.1929C90.0034 69.2748 90.3338 71.3683 90.2705 73.4503C90.2559 73.929 90.1291 74.4339 90.2517 74.9085C90.3716 75.3727 90.7551 75.4547 91.1487 75.2197C91.6761 74.9048 91.5911 74.1694 91.6789 73.6329C91.9202 72.1586 92.2033 70.6912 92.4552 69.2187C92.5788 68.4967 92.3241 67.485 92.3795 66.7544C92.3795 66.7539 93.1493 62.8264 93.1493 62.8264L90.0122 62.5059Z" fill="#EACFC1"/>
<path d="M95.4564 54.9311L93.3823 63.9928L92.9418 72.5501L89.653 72.4775L88.7588 48.541L95.1341 48.655L95.4564 54.9311Z" fill="#3B455A"/>
<path d="M85.6782 73.9251C85.8627 73.7438 86.0728 73.6512 86.3035 73.7007C86.5251 73.7484 86.7193 73.9094 86.8026 74.1147C86.8594 74.2546 86.866 74.4074 86.872 74.5567C86.903 75.3297 86.8178 77.1558 85.7692 77.3584C85.3285 77.4434 84.9812 77.1165 84.8815 76.723C84.7318 76.1302 85.0615 74.5316 85.6782 73.9251Z" fill="#343434"/>
<path d="M87.4118 63.1611L87.1328 67.8406C87.11 69.1411 86.9338 70.4314 86.7969 71.7231C86.6698 72.9229 86.8676 74.1725 86.2301 75.2639C86.0302 75.6061 85.6261 75.8338 85.3438 75.4181C85.1262 75.0977 85.2554 74.5632 85.2136 74.1998C85.0433 72.7161 84.8309 71.2373 84.6497 69.7549C84.5608 69.028 84.8638 68.0291 84.8434 67.2968L84.2627 63.3377L87.4118 63.1611Z" fill="#EACFC1"/>
<path d="M83.2497 54.3767L82.9819 63.1731L84.3855 72.0684L87.7308 72.1667L87.5832 62.5399L89.3534 54.5564L89.9476 49.3306L84.6395 48.7148L83.2497 54.3767Z" fill="#3B455A"/>
<path d="M87.4485 30.7135L93.1673 30.5791L96.4829 36.6442L95.3044 42.3251L95.0946 49.1233L86.9371 49.2328L84.2529 48.8042L84.9657 41.5405L84.557 31.8371L87.4485 30.7135Z" fill="#0890FE"/>
<path d="M93.7189 45.1662L93.7499 46.1152L92.0473 46.725L91.0661 45.9935L91.0654 44.8887L92.0127 44.8368L92.0425 44.5938L92.3527 44.3975L93.7189 45.1662Z" fill="#EACFC1"/>
<path d="M76.3636 39.3296L75.9374 40.1815L74.1434 39.9322L73.627 38.8327L74.1542 37.8574L75.0152 38.2497L75.1576 38.049L75.5251 38.0191L76.3636 39.3296Z" fill="#EACFC1"/>
<path d="M93.3569 30.998L99.6904 38.1642L99.9998 41.3031L93.7527 46.1536L92.6318 44.5585L96.6721 40.3156L92.7582 36.5471L93.3569 30.998Z" fill="#0890FE"/>
<path d="M87.2422 34.3883L84.2634 40.2452L81.1187 41.1748L74.9951 40.3485L75.784 38.37L81.3068 37.9273L84.5571 31.8369L87.2422 34.3883Z" fill="#0890FE"/>
<path d="M87.807 26.0009C88.6691 23.5356 91.9781 24.4595 92.6603 26.6546C93.1053 28.0864 91.981 29.9446 90.4724 30.3559C90.4658 30.4121 90.4608 30.4648 90.4606 30.5095C90.4596 30.7393 90.4308 30.9659 90.3961 31.1956C90.3832 31.2812 89.0631 31.0318 88.9159 31.0032C88.8644 30.9932 88.8069 30.9794 88.7791 30.9369C88.7259 30.8554 88.8125 30.6153 88.8222 30.5248C88.8336 30.4179 88.845 30.3109 88.8564 30.204C88.1124 29.8467 87.6428 29.086 87.5117 28.3115C87.3801 27.5332 87.5479 26.7417 87.807 26.0009Z" fill="#EACFC1"/>
<path d="M89.9657 23.7723C90.1431 23.9496 90.2129 24.1966 90.264 24.4339C90.2945 24.5756 90.3208 24.7222 90.2901 24.8626C90.1671 25.4222 89.6028 25.393 89.1664 25.5733C88.6282 25.7957 88.1641 26.2053 87.8627 26.6769C87.3909 27.4154 87.6031 28.3658 87.7945 29.1805C87.8619 29.4676 87.9976 29.8945 87.7713 30.1505C87.5412 30.4107 87.0096 30.3705 86.734 30.2367C86.4824 30.1143 86.2756 29.8881 85.9991 29.8425C85.7065 29.7943 85.3111 29.9209 85.175 29.6569C85.1371 29.5834 85.1336 29.4937 85.0858 29.4264C84.9241 29.199 84.5221 29.4653 84.2943 29.3051C84.1541 29.2064 84.1551 28.9964 84.2025 28.8301C84.2499 28.6639 84.3297 28.4954 84.2967 28.3264C84.2683 28.181 84.1618 28.0662 84.0959 27.9339C83.9658 27.6727 84.0108 27.3325 84.2045 27.112C84.5648 26.7019 85.2619 26.7797 85.6479 26.3941C85.849 26.1932 85.927 25.9034 86.0019 25.629C86.0769 25.3547 86.1668 25.0656 86.3818 24.8797C86.6474 24.6501 87.0307 24.6891 87.2928 24.4167C87.4468 24.2567 87.5494 24.0485 87.7221 23.9093C87.9498 23.7258 88.395 23.5846 88.6782 23.491C89.1275 23.3425 89.63 23.437 89.9657 23.7723Z" fill="#343434"/>
<path d="M92.0586 27.706C92.074 28.5174 91.6642 29.3945 92.0442 30.1088C92.4276 30.8296 93.3837 30.9595 94.1985 30.9971C94.3325 31.0034 96.0521 31.1494 96.0595 31.1173C96.1882 30.5522 96.3215 29.9758 96.6218 29.4796C96.9221 28.9832 97.4242 28.5721 97.9993 28.5369C97.8334 28.5086 97.7497 28.3087 97.7689 28.1403C97.7881 27.9719 97.8768 27.8199 97.9281 27.6581C98.0541 27.2604 97.9315 26.7964 97.6266 26.517C97.0183 25.9594 95.9154 26.191 95.3939 25.5504C95.0706 25.1532 95.1091 24.5772 94.9395 24.0923C94.612 23.1548 93.5683 22.9586 92.7883 22.5352C91.9649 22.0882 91.1896 21.8434 90.2392 21.9992C89.0611 22.1922 88.1854 23.372 88.6397 24.4821C89.2224 25.906 91.5523 25.7831 91.9885 27.2289C92.0355 27.3839 92.0556 27.5436 92.0586 27.706Z" fill="#343434"/>
<path d="M91.4755 30.6812L89.7016 33.1482L88.8675 33.0811L87.4775 30.5791L91.4755 30.6812Z" fill="#EDEEEE"/>
<path d="M87.9344 47.9771C90.8613 45.0983 90.8613 40.431 87.9344 37.5522C85.0075 34.6735 80.2621 34.6735 77.3352 37.5522C74.4084 40.431 74.4084 45.0983 77.3352 47.9771C80.2621 50.8558 85.0075 50.8558 87.9344 47.9771Z" fill="#FB6B18"/>
<path opacity="0.1" d="M81.8716 34.7662C77.3793 35.181 74.0794 39.0992 74.5012 43.5176C74.9229 47.936 78.9066 51.1817 83.3989 50.7667C87.8912 50.3519 91.1911 46.4337 90.7693 42.0153C90.3475 37.5969 86.364 34.3514 81.8716 34.7662ZM83.2707 49.423C79.533 49.7681 76.2184 47.0677 75.8675 43.3914C75.5166 39.7152 78.2621 36.4551 81.9999 36.11C85.7376 35.7648 89.0522 38.4652 89.4031 42.1415C89.754 45.8178 87.0085 49.0778 83.2707 49.423Z" fill="#272525"/>
<path d="M81.7934 33.9447C76.8403 34.4021 73.2019 38.7221 73.667 43.5938C74.1321 48.4654 78.5243 52.044 83.4774 51.5865C88.4305 51.1291 92.0689 46.8091 91.6038 41.9373C91.1388 37.0656 86.7466 33.4872 81.7934 33.9447ZM83.3362 50.1048C79.215 50.4855 75.5605 47.5081 75.1736 43.4546C74.7866 39.4012 77.8138 35.8067 81.9349 35.4262C86.056 35.0457 89.7106 38.023 90.0976 42.0764C90.4846 46.1297 87.4573 49.7243 83.3362 50.1048Z" fill="#FFAF2A"/>
<path d="M80.4078 45.1943C80.3108 45.1397 80.2824 45.01 80.2503 44.8932C80.1688 44.5957 80.3388 44.35 80.6398 44.288C81.0913 44.1948 81.5889 44.4952 82.0204 44.653C82.3749 44.7829 82.7576 44.83 83.1684 44.7945C83.6082 44.7566 83.9517 44.6209 84.1985 44.3872C84.4453 44.1537 84.5534 43.8655 84.5229 43.5225C84.4919 43.1748 84.3629 42.9365 84.136 42.8081C83.9091 42.6796 83.5364 42.6377 83.0177 42.6825L82.6753 42.7121C81.8288 42.7852 81.1678 42.6671 80.6928 42.3575C80.2176 42.0481 79.9508 41.5627 79.8917 40.9013C79.834 40.2548 80.006 39.7339 80.4078 39.3389C80.8095 38.944 81.4026 38.7125 82.187 38.6447C82.5065 38.6172 82.837 38.6417 83.1786 38.7184C83.8886 38.878 85.0805 39.3283 84.8986 40.0243C84.6911 40.818 83.3839 39.8072 82.9428 39.6641C82.6845 39.5804 82.3873 39.553 82.0512 39.582C81.6611 39.6156 81.3558 39.7445 81.1354 39.9683C80.9148 40.1923 80.8187 40.461 80.8466 40.7744C80.8741 41.083 81.0161 41.2928 81.2729 41.4039C81.5295 41.5151 82.0634 41.5456 82.8743 41.4952C83.7397 41.4453 84.3863 41.5683 84.8143 41.8646C85.2421 42.1609 85.4869 42.6543 85.5486 43.345C85.6076 44.0063 85.4348 44.5544 85.0303 44.9891C84.6258 45.4239 84.0501 45.6736 83.3031 45.738C83.0666 45.7584 82.8008 45.7555 82.5059 45.7291C81.9565 45.6802 81.0771 45.5706 80.4078 45.1943Z" fill="white"/>
<path d="M83.2133 47.5008L83.2039 47.5016C82.9461 47.5238 82.7158 47.3041 82.6896 47.0109L81.8818 37.9575C81.8556 37.6641 82.0435 37.4084 82.3012 37.3861L82.3107 37.3853C82.5685 37.3631 82.7987 37.5829 82.8249 37.8761L83.6327 46.9295C83.659 47.2228 83.4712 47.4786 83.2133 47.5008Z" fill="white"/>
</svg>
