<svg width="93" height="78" viewBox="0 0 93 78" fill="none" xmlns="http://www.w3.org/2000/svg">
<path d="M12.1787 22.0276C15.7624 21.2102 18.0046 17.6425 17.187 14.0589C16.3694 10.4753 12.8014 8.23285 9.21778 9.05025C5.63413 9.86764 3.39183 13.4353 4.20947 17.0189C5.0271 20.6025 8.59505 22.845 12.1787 22.0276Z" fill="#FB6B18"/>
<path opacity="0.1" d="M10.0208 8.31546C6.03146 8.69004 3.10105 12.2277 3.47562 16.2172C3.85019 20.2066 7.38786 23.137 11.3773 22.7624C15.3667 22.3878 18.2971 18.8502 17.9226 14.8607C17.548 10.8713 14.0102 7.94089 10.0208 8.31546ZM11.2634 21.5491C7.94401 21.8608 5.00053 19.4226 4.68895 16.1032C4.37726 12.7839 6.81546 9.84037 10.1348 9.5288C13.4542 9.2171 16.3977 11.6553 16.7092 14.9747C17.0208 18.2939 14.5826 21.2374 11.2634 21.5491Z" fill="#272525"/>
<path d="M9.95094 7.57463C5.55237 7.98759 2.32133 11.8882 2.73429 16.2869C3.14726 20.6854 7.04784 23.9165 11.4465 23.5035C15.8451 23.0905 19.0761 19.19 18.6632 14.7913C18.2502 10.3926 14.3496 7.16167 9.95094 7.57463ZM11.3209 22.1657C7.6611 22.5093 4.4157 19.821 4.07209 16.1612C3.72849 12.5014 6.4168 9.25603 10.0766 8.91243C13.7364 8.56882 16.9818 11.257 17.3254 14.9169C17.669 18.5767 14.9807 21.8221 11.3209 22.1657Z" fill="#FFAF2A"/>
<path d="M8.7205 17.7281C8.63431 17.6788 8.60911 17.5618 8.58061 17.4563C8.50819 17.1878 8.65927 16.9659 8.92645 16.9099C9.32729 16.8258 9.76933 17.0968 10.1525 17.2395C10.4673 17.3568 10.8071 17.3993 11.172 17.3673C11.5626 17.333 11.8676 17.2104 12.0867 16.9996C12.3059 16.7888 12.4018 16.5285 12.3747 16.219C12.3472 15.905 12.2326 15.69 12.0313 15.574C11.8298 15.4581 11.4988 15.4203 11.0381 15.4606L10.7341 15.4874C9.98235 15.5533 9.39547 15.4468 8.97356 15.1673C8.55165 14.8879 8.31449 14.4497 8.26209 13.8527C8.21087 13.269 8.36359 12.7989 8.72039 12.4422C9.07718 12.0856 9.60377 11.8767 10.3004 11.8156C10.5842 11.7906 10.8776 11.8129 11.1808 11.8821C11.8114 12.0262 12.8699 12.4327 12.7083 13.0611C12.5241 13.7776 11.3632 12.8651 10.9715 12.7359C10.7421 12.6603 10.4781 12.6355 10.1797 12.6617C9.83327 12.6921 9.56209 12.8084 9.36638 13.0105C9.17056 13.2126 9.08507 13.4553 9.10991 13.7382C9.13441 14.0167 9.26052 14.2063 9.48849 14.3065C9.71635 14.4068 10.1904 14.4344 10.9106 14.3889C11.6791 14.3438 12.2533 14.4548 12.6333 14.7223C13.0133 14.9898 13.2307 15.4353 13.2855 16.0589C13.3379 16.6559 13.1844 17.1506 12.8253 17.543C12.466 17.9356 11.9548 18.1609 11.2914 18.2191C11.0813 18.2374 10.8454 18.2348 10.5834 18.2111C10.0959 18.1668 9.31492 18.0679 8.7205 17.7281Z" fill="white"/>
<path d="M11.212 19.8134L11.2036 19.8141C10.9747 19.8343 10.7702 19.6359 10.747 19.371L10.0295 11.1967C10.0063 10.9319 10.173 10.701 10.402 10.6808L10.4103 10.6801C10.6392 10.66 10.8436 10.8584 10.867 11.1232L11.5844 19.2976C11.6076 19.5624 11.4409 19.7934 11.212 19.8134Z" fill="white"/>
<path d="M82.8158 19.7959L71.3719 17.6686C71.0237 17.6039 70.803 17.2733 70.8786 16.9302L74.1509 2.10692C74.2266 1.76381 74.5702 1.53813 74.9184 1.60287L86.3623 3.73017C86.7104 3.79492 86.9312 4.12551 86.8555 4.46862L83.5832 19.2919C83.5075 19.635 83.1639 19.8607 82.8158 19.7959Z" fill="#3629B7"/>
<path d="M77.4588 11.6083L74.4633 11.0452C74.2769 11.0102 74.1591 10.8329 74.2 10.6492L74.8411 7.77812C74.8821 7.59448 75.0665 7.47397 75.2529 7.50898L78.2483 8.07205C78.4346 8.10706 78.5525 8.28438 78.5116 8.46814L77.8705 11.3392C77.8296 11.5228 77.6452 11.6433 77.4588 11.6083Z" fill="#0890FE"/>
<path d="M82.9886 12.633L79.9919 12.076C79.8054 12.0414 79.6871 11.8643 79.7277 11.6805L80.3619 8.8081C80.4025 8.62435 80.5866 8.50349 80.7731 8.53816L83.7698 9.09515C83.9564 9.12981 84.0746 9.30691 84.034 9.49066L83.3998 12.363C83.3592 12.5467 83.1752 12.6677 82.9886 12.633Z" fill="#0890FE"/>
<path d="M76.4271 16.302L73.4304 15.745C73.2439 15.7103 73.1255 15.5332 73.1662 15.3495L73.8004 12.477C73.8409 12.2933 74.0251 12.1724 74.2116 12.2071L77.2083 12.7641C77.3948 12.7988 77.5131 12.9758 77.4725 13.1596L76.8383 16.032C76.7976 16.2158 76.6136 16.3366 76.4271 16.302Z" fill="#0890FE"/>
<path d="M81.952 17.3293L78.9553 16.7723C78.7688 16.7377 78.6504 16.5606 78.6911 16.3768L79.3253 13.5044C79.3658 13.3206 79.55 13.1998 79.7365 13.2344L82.7332 13.7914C82.9197 13.8261 83.038 14.0032 82.9974 14.1869L82.3632 17.0594C82.3225 17.2431 82.1385 17.364 81.952 17.3293Z" fill="#0890FE"/>
<path d="M76.5627 9.45787L77.4137 9.61603C77.4668 9.6259 77.5073 9.65103 77.5349 9.69143C77.5625 9.73183 77.571 9.77671 77.5602 9.82595C77.5493 9.8753 77.5233 9.91214 77.4821 9.93647C77.4409 9.96092 77.3929 9.96804 77.3383 9.95782L76.4873 9.79966L76.296 10.666C76.2837 10.7214 76.2582 10.7632 76.2196 10.7912C76.1808 10.8193 76.1349 10.8284 76.0817 10.8185C76.0348 10.8098 75.9979 10.7837 75.9709 10.7402C75.9438 10.6967 75.9357 10.6504 75.9467 10.601L76.138 9.7347L75.2916 9.57746C75.2368 9.56725 75.1954 9.5436 75.167 9.50619C75.1386 9.46889 75.1299 9.42562 75.1408 9.37626C75.151 9.33013 75.1787 9.29271 75.2241 9.26425C75.2693 9.23578 75.317 9.22626 75.367 9.23555L76.2134 9.39291L76.4042 8.5289C76.4164 8.47346 76.4427 8.4318 76.483 8.40402C76.5233 8.37625 76.5692 8.36718 76.6208 8.37671C76.674 8.38658 76.7124 8.41137 76.7362 8.45108C76.76 8.49079 76.7657 8.53831 76.7534 8.59374L76.5627 9.45787Z" fill="white"/>
<path d="M80.8679 10.6713C80.8366 10.6655 80.8141 10.6514 80.8005 10.6288C80.7867 10.6061 80.7836 10.5779 80.7911 10.5441L80.8451 10.2992C80.8516 10.27 80.8656 10.2485 80.8874 10.235C80.909 10.2214 80.9356 10.2175 80.9668 10.2233L82.9103 10.5845C82.9462 10.5911 82.9725 10.6049 82.9891 10.6255C83.0057 10.6463 83.0108 10.6712 83.0043 10.7005L82.9502 10.9453C82.9441 10.973 82.9268 10.9959 82.8985 11.0138C82.8701 11.0318 82.841 11.038 82.8114 11.0325L80.8679 10.6713Z" fill="white"/>
<path d="M79.946 14.7036C79.9147 14.6978 79.8922 14.6836 79.8786 14.661C79.8648 14.6384 79.8617 14.6102 79.8692 14.5763L79.9232 14.3315C79.9298 14.3023 79.9438 14.2809 79.9655 14.2672C79.9872 14.2537 80.0137 14.2497 80.045 14.2555L81.9885 14.6167C82.0244 14.6234 82.0507 14.6372 82.0673 14.6578C82.0839 14.6785 82.089 14.7035 82.0825 14.7328L82.0284 14.9776C82.0223 15.0052 82.0051 15.0282 81.9767 15.0461C81.9483 15.0641 81.9192 15.0703 81.8896 15.0648L79.946 14.7036Z" fill="white"/>
<path d="M79.7483 15.601C79.717 15.5952 79.6945 15.5811 79.6808 15.5584C79.6671 15.5358 79.6639 15.5076 79.6715 15.4737L79.7255 15.2289C79.732 15.1997 79.746 15.1782 79.7678 15.1647C79.7894 15.1511 79.8159 15.1472 79.8472 15.153L81.7908 15.5141C81.8267 15.5208 81.8529 15.5346 81.8696 15.5552C81.8861 15.576 81.8912 15.6009 81.8847 15.6302L81.8307 15.875C81.8246 15.9028 81.8073 15.9256 81.7789 15.9435C81.7505 15.9615 81.7215 15.9677 81.6918 15.9622L79.7483 15.601Z" fill="white"/>
<path d="M74.3137 14.2114C74.2824 14.2055 74.2599 14.1914 74.2463 14.1688C74.2325 14.1462 74.2294 14.118 74.2369 14.0841L74.2909 13.8393C74.2974 13.81 74.3114 13.7886 74.3332 13.775C74.3548 13.7615 74.3814 13.7576 74.4126 13.7633L76.3562 14.1245C76.3921 14.1312 76.4183 14.1449 76.435 14.1656C76.4515 14.1864 76.4566 14.2113 76.4501 14.2405L76.3961 14.4853C76.3899 14.5131 76.3727 14.536 76.3443 14.5539C76.3159 14.5719 76.2869 14.5781 76.2572 14.5726L74.3137 14.2114Z" fill="white"/>
<path d="M75.7215 13.6408C75.6912 13.778 75.5536 13.8684 75.4143 13.8425C75.2749 13.8166 75.1866 13.6843 75.2169 13.547C75.2472 13.4097 75.3848 13.3194 75.5241 13.3452C75.6635 13.3711 75.7518 13.5035 75.7215 13.6408Z" fill="white"/>
<path d="M75.4672 14.7921C75.4369 14.9293 75.2993 15.0197 75.1599 14.9938C75.0206 14.9679 74.9321 14.8357 74.9625 14.6983C74.9928 14.561 75.1304 14.4707 75.2698 14.4966C75.409 14.5223 75.4974 14.6547 75.4672 14.7921Z" fill="white"/>
<path d="M75.1987 3.4649L74.7085 5.68555L85.021 7.60184L85.5112 5.3812L75.1987 3.4649Z" fill="white"/>
<g opacity="0.5">
<path opacity="0.5" d="M42.6661 65.9523C39.9426 65.9618 37.2192 66.039 34.5005 66.3955C33.4754 66.5299 32.4719 66.8255 31.4444 66.9447C29.3922 67.1829 27.3767 67.6273 25.3173 67.8323C23.6589 67.9974 21.9934 68.0947 20.3397 68.3042C18.7893 68.5005 17.0729 68.4553 15.5345 68.1309C14.3956 67.8907 13.2514 67.7555 12.1316 67.3698C10.8789 66.9383 9.51804 66.6299 8.21283 66.6409C6.35169 66.6567 4.53915 66.6586 2.7581 67.4204C2.13289 67.6879 1.36743 68.1276 0.892696 68.6888C-0.19418 69.9736 -0.341318 73.1794 0.743938 74.512C2.57177 76.7548 6.473 77.6348 9.03511 77.6762C11.8427 77.7217 14.57 77.476 17.3818 77.3316C19.9944 77.1973 22.6006 77.0064 25.2175 77.0131C30.5624 77.0269 35.9081 77.0131 41.2433 76.5921C46.2559 76.1967 51.2811 76.3325 56.3047 76.3325C61.4561 76.3325 66.5727 76.3802 71.687 77.1873C73.9154 77.5389 76.1856 77.6621 78.4251 77.9084C80.4308 78.1291 82.3582 77.9041 84.356 77.7002C86.0334 77.529 87.6999 77.0211 89.2239 76.1625C90.4302 75.4829 92.5808 73.3714 92.9507 71.7492C93.9879 67.2013 78.3347 67.3106 75.9312 67.3209C73.2426 67.3324 70.5327 67.4366 67.8461 67.3158C66.7161 67.2649 65.6026 67.0046 64.4997 66.7192C63.4012 66.435 62.2943 66.5073 61.1803 66.3878C56.5344 65.8897 51.8783 65.9625 47.2177 65.9625C45.7009 65.9626 44.1835 65.947 42.6661 65.9523Z" fill="#EED5D5"/>
</g>
<path d="M72.4801 0L57.0403 3.98886L60.7731 7.45554C56.633 11.3186 51.4563 16.1691 51.3184 16.3983C51.0876 16.7816 47.0701 9.24489 47.0701 9.24489L36.2235 20.2432L32.2636 15.4361L23.6045 24.3154L31.6887 19.262L36.0568 24.4891L45.8067 15.4005L49.9637 23.1972L64.4579 10.8778L68.4699 14.6038L72.4801 0Z" fill="#3629B7"/>
<path d="M50.1162 23.2188L64.8726 11.0821L64.0437 10.1865L50.1162 23.2188Z" fill="#353A85"/>
<path d="M36.2222 24.4352L46.4577 16.2758L45.9072 15.2539L36.2222 24.4352Z" fill="#353A85"/>
<path d="M31.8767 19.207L23.8374 24.2935L32.3507 19.8542L31.8767 19.207Z" fill="#353A85"/>
<path d="M29.3296 24.0492L28.9062 22.0381L30.2148 20.666L30.9002 21.2377L30.5849 22.66L30.9244 23.0043L30.5548 24.4581C30.5548 24.458 29.3253 24.0217 29.3296 24.0492Z" fill="#EFBFA5"/>
<path d="M46.4168 19.9767L46.5776 17.8784L44.7278 16.5645L43.9521 17.4951L44.7875 18.8638L44.4892 19.5755L45.3093 20.7056L46.4168 19.9767Z" fill="#EFBFA5"/>
<path d="M31.7595 43.8115L31.6099 55.6855L32.9887 70.9712H34.8637L37.1073 56.8688L39.673 42.7422L31.7595 43.8115Z" fill="#0890FE"/>
<path d="M34.8534 71.6967L32.8258 72.6268L31.812 71.6967L32.8258 70.7666H34.8534V71.6967Z" fill="#0890FE"/>
<path d="M44.6147 43.8115L44.6515 50.681L43.3869 70.9712H41.5121L38.3755 57.5067L36.7012 42.7422L44.6147 43.8115Z" fill="#0890FE"/>
<path d="M41.5229 71.6967L43.5505 72.6268L44.5643 71.6967L43.5505 70.7666H41.5229V71.6967Z" fill="#0890FE"/>
<path d="M46.5646 47.9465C46.6047 49.0364 46.579 50.4944 46.0788 50.5488C45.9853 50.559 45.895 50.521 45.8125 50.4843C44.943 50.0966 44.323 49.5486 43.4658 49.1741C42.5675 48.7816 41.5464 48.5762 40.5485 48.4344C39.0602 48.2163 37.5473 48.0852 36.0495 48.073C34.7621 48.0626 33.4233 48.6014 32.2063 48.8978C31.7378 49.0119 31.3568 49.3251 30.9675 49.5709C30.3927 49.9338 30.1406 50.0775 30.2191 49.336C30.347 48.1262 30.4797 46.9165 30.642 45.7099C30.9655 43.3035 31.4059 40.9027 32.1511 38.5732C32.4358 37.6832 32.7642 36.8056 33.0924 35.9284C33.4922 34.8601 33.8919 33.7919 34.2917 32.7237C34.7885 31.396 35.627 30.4607 37.0952 29.9963C38.3642 29.595 39.9402 29.4852 41.1744 30.047C42.5462 30.6714 43.1987 32.7992 43.8652 33.9362C44.4493 34.9326 45.1856 37.6501 45.4041 38.7243C45.6673 40.0172 45.9103 41.304 46.1016 42.5874C46.3136 44.0088 46.463 45.426 46.5063 46.835C46.5113 46.9906 46.5454 47.4262 46.5646 47.9465Z" fill="#0890FE"/>
<path d="M39.7873 30.2354L37.2536 30.2575C37.2536 30.2575 34.5347 38.9767 34.4347 40.4794C34.3367 41.9547 33.6494 47.9364 33.6494 47.9364C33.6494 47.9364 36.4555 47.9971 39.6886 48.3586C42.8493 48.9793 43.115 48.6123 43.115 48.6123C43.115 48.6123 41.4091 42.3253 41.3526 40.519C41.2946 38.6714 41.0369 32.5694 41.0369 32.5694L39.7873 30.2354Z" fill="white"/>
<path d="M39.4203 30.3779H38.1729C37.8817 30.3779 37.7167 30.6841 37.8933 30.8966L38.4055 31.5124L37.043 43.0456L38.72 44.5582L39.8729 42.7621L39.5584 31.5125L39.7613 30.7804C39.8178 30.5762 39.6498 30.3779 39.4203 30.3779Z" fill="#0890FE"/>
<path d="M38.2506 30.2802C38.2804 30.3039 38.3146 30.3225 38.3543 30.3346C38.433 30.3583 38.5184 30.3497 38.6007 30.3408C38.936 30.3044 39.2711 30.268 39.6062 30.2316C39.4956 29.2899 40.0957 29.0769 40.6804 28.4712C41.273 27.8572 41.0906 27.0293 41.0573 26.2779C41.0478 26.0687 41.0367 25.853 40.9402 25.6632C40.771 25.33 40.3769 25.146 39.9944 25.037C39.0182 24.7586 37.9016 24.8272 37.0421 25.3349C36.8133 25.47 36.5997 25.6398 36.4758 25.8621C36.2847 26.2047 36.3333 26.6136 36.3864 26.9953C36.4684 27.5822 36.6576 28.1585 37.0193 28.653C37.3562 29.1138 37.9986 29.3344 38.0725 29.8874C38.0915 30.0302 38.1386 30.1909 38.2506 30.2802Z" fill="#EFBFA5"/>
<path d="M42.0463 22.9899C41.8524 22.7118 41.6161 22.4621 41.3384 22.3065C40.6734 21.9343 39.7476 21.9001 39.0312 21.645C38.0234 21.2861 37.5112 21.6098 36.5597 21.8901C36.1794 22.0022 35.7421 22.0995 35.5407 22.4302C35.4295 22.6128 35.413 22.8381 35.3007 23.0201C35.1561 23.2546 34.8815 23.3769 34.6434 23.5245C34.3672 23.6957 34.2495 23.9491 34.2399 24.2326C34.2191 24.8383 34.718 25.8223 35.3316 26.0692C35.4508 26.1171 35.5828 26.1454 35.7222 26.1589C35.8705 26.5361 36.1334 26.8996 36.5295 27.0228C36.5921 26.7874 36.4718 26.548 36.4149 26.3113C36.4005 26.2515 36.3977 26.1898 36.4019 26.1274C36.8598 26.0547 37.322 25.8986 37.6585 25.7639C38.3592 25.4834 39.7236 25.1844 40.451 25.5157C41.0263 25.7779 40.8496 26.6135 40.8206 27.142C40.8131 27.2778 40.8017 27.4161 40.8359 27.5483C40.8833 27.7317 41.0348 27.8347 41.0644 28.0213C41.5354 27.8274 41.8204 27.3401 42.0864 26.9439C42.2194 26.7458 42.3439 26.5388 42.4418 26.3139C42.8793 25.3087 42.718 23.9535 42.0463 22.9899Z" fill="#292949"/>
<path d="M36.4728 30.1942L30.446 30.115L31.0307 24.1871L29.0885 23.5391L26.7466 30.6847L27.8455 32.8402L34.5721 34.645L36.4728 30.1942Z" fill="#0890FE"/>
<path d="M40.6001 29.9259L47.0323 28.1863L44.6515 20.8069L46.6134 19.5156L51.3493 28.0582L50.0397 31.0165L43.894 33.9275L40.6001 29.9259Z" fill="#0890FE"/>
<path d="M82.8584 20.5268L83.1387 18.3414L80.5507 17.3271L80.0693 18.3365L81.2881 19.9798L81.5833 20.9797L82.8584 20.5268Z" fill="#EFBFA5"/>
<path d="M71.0507 33.7275L67.9182 38.1402L65.8789 41.7142L66.625 43.0996L69.3377 42.4034L71.0507 33.7275Z" fill="#3629B7"/>
<path d="M74.8042 49.3109V51.5454L71.5577 61.2277L72.3694 71.2825L70.3403 71.655L67.0938 59.3658L67.2178 55.7501L68.7169 48.376L74.8042 49.3109Z" fill="#0890FE"/>
<path d="M70.6066 71.4642L69.0576 72.9683L69.5051 73.7308L72.7012 72.3232L72.1125 71.209L70.6066 71.4642Z" fill="#343434"/>
<path d="M75.5183 72.1504L73.6089 73.2516L73.8344 74.0925L77.3125 73.4622L77.0459 72.2483L75.5183 72.1504Z" fill="#343434"/>
<path d="M71.0402 33.7163L75.8701 31.958C75.8701 31.958 77.5866 35.8704 79.5381 42.1378C81.4894 48.4051 78.632 56.3829 78.632 56.3829C78.632 56.3829 67.5669 53.9697 65.3574 53.5718L68.1288 42.1158L71.0402 33.7163Z" fill="#3629B7"/>
<path d="M72.2285 51.9557L75.4907 72.4377H76.9734L77.9099 61.2656L79.9391 50.0938L72.2285 51.9557Z" fill="#0890FE"/>
<path d="M70.8803 27.7277C72.1954 27.8165 73.4251 26.8256 74.7194 27.0716C75.561 27.2315 76.2253 27.9164 76.4822 28.6883C76.6019 29.0481 76.6443 29.4402 76.5271 29.7979C76.451 30.0301 76.3108 30.2393 76.1458 30.4253C75.925 30.6739 75.6552 30.8803 75.3555 31.0391C75.5201 31.2825 75.7086 31.5122 75.9184 31.7244C75.3118 31.9375 74.7054 32.1505 74.0989 32.3637C73.965 32.0439 73.8309 31.7241 73.6969 31.4044C73.5145 31.3951 73.3328 31.3713 73.1546 31.3289C72.0778 31.0725 71.1851 30.2072 70.9449 29.1871C70.8326 28.7093 70.8542 28.215 70.8803 27.7277Z" fill="#EFBFA5"/>
<path d="M71.2122 28.0919L75.2787 27.6485L76.0679 30.4985L77.2162 29.6623L76.6244 24.9991L70.8857 24.8857L68.4009 26.2232L68.5061 27.5635L70.7278 28.9357L71.2122 28.0919Z" fill="#292949"/>
<path d="M72.7908 32.8862L77.6208 31.1279C77.6208 31.1279 79.3373 35.0403 81.2886 41.3077C83.2399 47.575 80.3825 55.5529 80.3825 55.5529C80.3825 55.5529 70.4844 51.0648 68.2749 50.6669L69.8793 41.2858L72.7908 32.8862Z" fill="white"/>
<path d="M81.3614 41.2C79.4101 34.9326 77.7203 31.0137 77.7203 31.0137L72.8637 32.7785L72.8558 32.8011C72.9628 33.0572 73.0746 33.3118 73.1716 33.5714C73.5541 34.5961 73.8369 35.6508 74.0105 36.7221C74.3158 38.6052 74.3479 40.5414 74.2822 42.4418C74.2193 44.2651 74.0144 46.0851 73.6614 47.8806C73.1947 50.2541 72.4507 52.5669 71.4917 54.8054C75.9841 55.643 81.271 56.6335 81.271 56.6335C81.271 56.6335 83.3129 47.4673 81.3614 41.2Z" fill="#3629B7"/>
<path d="M77.3125 31.1628L82.1208 28.4277L81.2269 20.9193L83.3583 20.1621L86.8651 28.7433L86.1775 30.1314L79.5869 35.9679L77.3125 31.1628Z" fill="#0890FE"/>
<path d="M68.4378 39.4694L68.919 34.2324H66.5813L64.7935 41.4254L66.0312 43.6338L68.0215 42.7412L68.4378 39.4694Z" fill="#0890FE"/>
<path d="M66.856 34.2321V32.4656L68.2999 31.9609L69.6064 32.9072V33.7273L68.6438 34.2321H66.856Z" fill="#EFBFA5"/>
<path d="M9.41406 24.8489L9.69189 22.7123L11.5135 21.748L12.0395 22.8989L11.1697 24.2084V25.2809L9.41406 24.8489Z" fill="#EFBFA5"/>
<path d="M23.1958 72.4996L21.5659 71.1183C21.0929 70.8987 20.5928 70.7454 20.1874 70.7501C19.893 70.7535 19.6487 70.8402 19.5013 71.0452C19.3599 71.242 19.3311 71.5012 19.4275 71.7112C19.4628 71.788 19.5129 71.8567 19.5691 71.9215C19.6177 71.9772 19.6715 72.031 19.7243 72.0831C19.7579 72.1162 19.7951 72.1519 19.8345 72.189C20.1717 72.5245 20.7369 73.0707 20.9613 73.1942C21.2904 73.3753 22.0144 73.8585 22.8701 73.3149C22.8669 73.3123 22.8633 73.3099 22.8601 73.3072C23.1714 73.1141 23.263 72.7965 23.1958 72.4996Z" fill="#343434"/>
<path d="M21.9164 60.4689L21.7848 62.2025L21.1391 70.6427L21.7848 71.6246C21.7848 71.6246 21.9164 72.4097 20.9292 72.3493C20.6355 72.3314 19.5953 71.1177 19.5953 71.1177L19.7457 70.5616L19.0138 64.2242L19.0205 62.3836L18.6704 60.3398L21.9164 60.4689Z" fill="#EFBFA5"/>
<path d="M11.5843 70.3571C11.2808 70.2695 10.9982 70.283 10.7717 70.4478C10.5541 70.6062 10.4294 70.8632 10.4512 71.1086C10.4661 71.276 10.5431 71.4309 10.6192 71.5821C11.0127 72.3648 12.1167 74.1345 13.3833 73.8101C13.9156 73.6738 14.1171 73.1752 14.009 72.7348C13.8463 72.0713 12.5989 70.6499 11.5843 70.3571Z" fill="#343434"/>
<path d="M17.9684 59.4567L17.7479 61.953L12.4078 70.776C12.4078 70.776 13.1754 72.0066 12.6885 72.1135C12.2017 72.2203 10.774 71.8476 10.771 70.4581C11.3324 68.7752 13.5393 63.061 13.5393 63.061L14.5727 61.5865L14.5575 58.8154L17.9684 59.4567Z" fill="#EFBFA5"/>
<path d="M11.9347 51.0999C11.8926 50.364 12.1492 48.444 12.4126 47.756C13.3733 45.2472 13.5584 44.0109 13.5584 41.9689C13.5584 39.927 12.5712 33.4527 12.5712 33.4527L16.0011 31.5635L20.1126 31.6693L22.3957 32.3602C22.3957 32.3602 22.879 40.5057 23.0163 43.131C23.1142 45.0045 23.2559 46.6271 23.4426 48.798C23.4426 48.798 23.966 53.7494 23.1574 59.0572C23.1574 59.0572 22.9769 60.8197 22.8959 60.9741C22.8853 61.0264 22.8793 61.0546 22.8793 61.0546C22.8793 61.0546 22.8468 61.0546 22.8464 61.0547L13.7037 61.0546V58.0298C13.3993 57.0589 13.1102 56.0837 12.8332 55.106C12.4811 53.8635 12.0131 52.4657 11.9347 51.0999Z" fill="#343434"/>
<path d="M13.8689 32.1337L12.3083 33.2108C12.3083 33.2108 13.4955 40.6674 13.5588 41.9685C13.6221 43.2698 11.7949 48.4695 11.7949 48.4695L19.364 49.3755C19.364 49.3755 20.4773 43.8224 20.7977 41.0638C21.118 38.3051 16.5385 31.5801 16.5385 31.5801L13.8689 32.1337Z" fill="#3629B7"/>
<path d="M21.4571 32.0032L23.0018 32.6759C23.0018 32.6759 22.7845 40.965 23.1807 43.0704C23.4221 44.3537 24.3622 48.5095 24.3622 48.5095L21.9179 49.2771C21.9179 49.2771 20.413 44.0787 20.1141 41.32C19.8151 38.5614 20.1408 31.7012 20.1408 31.7012L21.4571 32.0032Z" fill="#3629B7"/>
<path d="M21.157 28.9653C21.3575 29.6773 20.8972 30.3808 20.4942 30.9814C20.3296 31.2268 20.0746 31.5681 20.287 31.8483C20.5248 32.1618 21.1153 32.099 21.3751 31.8646C21.5585 31.6991 21.6487 31.4746 21.727 31.2557C22.0776 30.275 22.5674 28.9012 22.4716 27.8704C22.3948 27.0438 21.2899 25.5758 20.1517 26.101C19.9451 26.1964 19.8126 26.3754 19.6993 26.5516C19.6316 26.6567 19.5663 26.7669 19.5528 26.887C19.4991 27.3656 20.0022 27.4887 20.3327 27.7461C20.7403 28.0632 21.0289 28.5107 21.157 28.9653Z" fill="#292949"/>
<path d="M19.2579 31.5227C20.018 31.4341 20.6534 30.9465 20.9935 30.3596C21.3335 29.7726 21.4147 29.0973 21.4013 28.4387C21.357 26.2472 18.1897 26.1255 16.9583 27.7004C15.8851 29.073 17.0477 31.7802 19.2579 31.5227Z" fill="#EFBFA5"/>
<path d="M17.0957 28.7363C17.0696 29.0017 16.9225 29.2832 16.8819 29.5559C16.8073 30.0579 16.9297 30.7093 16.7295 31.1678C16.174 31.098 15.4987 30.7793 15.0871 30.4295C14.6668 30.0723 14.7425 29.5413 14.6485 29.0151C14.5616 28.5283 14.4509 28.0393 14.4812 27.5469C14.647 24.8513 17.5785 23.3771 20.1611 24.5931C21.1382 25.0532 21.5655 26.2223 20.8469 26.9906C20.0739 27.8169 18.5031 27.4586 17.5775 28.0717C17.3722 28.2078 17.2142 28.4521 17.0957 28.7363Z" fill="#292949"/>
<path d="M19.3213 31.2988C19.2828 31.462 19.2441 31.6251 19.2057 31.7883C19.1881 31.8631 19.1947 32.0772 19.1245 32.1285C19.088 32.1552 19.0336 32.1512 18.9855 32.1458C18.8482 32.1303 17.619 31.9867 17.6324 31.915C17.6683 31.7227 17.7085 31.5344 17.7739 31.3507C17.8267 31.2023 17.847 30.9231 17.9444 30.8105C18.1532 30.9415 18.369 31.0225 18.6149 31.0866C18.8522 31.1483 19.0908 31.2064 19.3303 31.2609C19.3273 31.2735 19.3243 31.2862 19.3213 31.2988Z" fill="#EFBFA5"/>
<path d="M16.2023 31.8256L10.1712 32.2277L11.5221 24.1582L9.32082 24.1691L6.09082 32.6282L7.21252 35.2932L14.2416 35.8893L16.2023 31.8256Z" fill="#3629B7"/>
<path d="M22.3457 32.3496L23.8905 33.0223L27.6722 41.6665L31.9779 43.103L30.3517 44.1361L25.8844 44.0642L22.7215 38.9534L22.3457 32.3496Z" fill="#8CABEF"/>
<path d="M60.2174 18.2334L60.484 16.6828L58.8292 15.9512L57.4453 17.5397L58.6874 18.5802L60.2174 18.2334Z" fill="#B97262"/>
<path d="M57.7866 32.7769L60.0691 26.0615L58.2684 18.3879L60.4467 17.877L63.0766 26.1801L60.352 35.6098L58.2821 32.8619L57.7866 32.7769Z" fill="#3629B7"/>
<path d="M62.8549 70.5416C62.8584 70.537 62.8609 70.5339 62.8609 70.5339L62.8542 70.5321L62.5263 66.5898L60.4014 67.0083L61.4549 70.441L60.9126 71.4853C60.9126 71.4853 60.7055 72.0091 60.8991 71.955C61.0928 71.9009 61.9312 71.6863 61.9969 71.6292C62.0525 71.5807 62.6331 70.8293 62.8099 70.6L62.8549 70.5416Z" fill="#B97262"/>
<path d="M53.3829 67.6439L53.7175 70.3278L53.1616 71.0363L53.2198 71.5031L54.7095 71.0512L55.3799 70.7444L55.4232 66.957L53.3829 67.6439Z" fill="#B97262"/>
<path d="M55.9043 47.5316L56.9502 55.122L57.598 57.9532L60.4329 68.4132L63.0157 67.9265L61.8195 56.4831L62.4042 49.2045L62.6345 47.2922L63.2701 44.9863L55.9043 47.5316Z" fill="#5655B9"/>
<path d="M50.6328 47.9252L51.0506 55.6522L53.1739 68.553L55.7174 68.2861L55.7966 60.6518L57.1744 46.3785L54.2655 45.265L51.938 44.6816L50.6328 47.9252Z" fill="#5655B9"/>
<path d="M53.7172 70.3295L51.7515 72.1317L51.9023 72.8251L53.492 72.6584L55.5721 71.2579L55.5756 70.2527L55.3631 70.0977C55.3631 70.0977 53.4373 71.1864 53.3029 71.1414C53.1685 71.0964 53.7172 70.3295 53.7172 70.3295Z" fill="#343434"/>
<path d="M61.4521 70.4595L60.455 71.44L59.8516 71.8799L60.0979 72.6347L60.9806 72.7759L63.3062 71.4791L63.0929 70.5509L62.8738 70.3369C62.8738 70.3369 61.9632 71.0257 61.1076 71.4253C60.8656 71.5382 61.4521 70.4595 61.4521 70.4595Z" fill="#343434"/>
<path d="M53.7433 32.3604L51.8923 33.2414L46.6362 37.5447L46.7416 39.7501L53.4285 37.1177L53.7433 32.3604Z" fill="#3629B7"/>
<path d="M53.2363 32.691C53.2363 32.691 54.1324 31.7148 57.5246 31.7148C60.9168 31.7148 63.4502 41.5734 63.3222 43.3427C63.1943 45.1121 63.669 49.0998 63.669 49.0998L55.7325 47.2729C55.7325 47.2729 51.2536 47.2807 50.1656 48.2569C49.0775 49.2331 52.2834 41.2901 52.3473 39.4598C52.4113 37.6296 52.1483 33.6063 53.2363 32.691Z" fill="#0890FE"/>
<path d="M56.8936 31.9365L57.2045 31.9493L56.1995 39.8047L54.4523 36.4717L54.1323 32.8889L54.4523 32.3603L56.8936 31.9365Z" fill="white"/>
<path d="M52.3658 28.787C52.1565 26.4062 55.5041 25.9885 56.9954 27.5854C57.9682 28.6272 57.6988 30.5929 56.5054 31.4822C56.5219 31.5319 56.5385 31.5779 56.5562 31.6155C56.6471 31.8088 56.7118 32.0095 56.7723 32.2148C56.7948 32.2913 55.507 32.558 55.363 32.5871C55.3126 32.5973 55.2555 32.6065 55.2136 32.5808C55.133 32.5316 55.115 32.2987 55.0875 32.2192C55.0551 32.1253 55.0225 32.0313 54.99 31.9374C54.1775 31.9058 53.4507 31.4363 53.0233 30.8333C52.5939 30.2276 52.4287 29.5025 52.3658 28.787Z" fill="#B97262"/>
<path d="M53.4185 26.1385C53.649 26.2233 53.8105 26.4056 53.9514 26.5864C54.0354 26.6943 54.1177 26.8079 54.146 26.9369C54.259 27.4512 53.7395 27.6302 53.4187 27.939C53.0232 28.32 52.7691 28.8312 52.6864 29.3359C52.5569 30.1262 53.1278 30.8477 53.6256 31.4627C53.801 31.6793 54.0939 31.9888 53.9924 32.2855C53.8893 32.5869 53.3947 32.7449 53.0932 32.7318C52.8178 32.7199 52.5412 32.6045 52.2743 32.6659C51.9917 32.731 51.6863 32.9798 51.4583 32.8072C51.3949 32.7592 51.3558 32.6851 51.2859 32.6458C51.0496 32.5133 50.7941 32.8818 50.525 32.8295C50.3595 32.7972 50.2764 32.6205 50.2525 32.4638C50.2288 32.3072 50.2333 32.1369 50.136 32.0068C50.0524 31.895 49.9104 31.8369 49.7983 31.7497C49.5768 31.5773 49.4814 31.2755 49.5677 31.0204C49.728 30.5462 50.3866 30.36 50.5799 29.897C50.6806 29.6558 50.6349 29.3844 50.5928 29.127C50.5506 28.8697 50.5161 28.5944 50.6352 28.3608C50.7824 28.0723 51.1432 27.9667 51.2702 27.6436C51.3447 27.4538 51.354 27.2418 51.4538 27.0626C51.5854 26.8264 51.9298 26.5473 52.1472 26.3666C52.4922 26.0799 52.9823 25.978 53.4185 26.1385Z" fill="#292949"/>
<path d="M56.8749 28.6872C57.213 29.3631 57.1947 30.2476 57.8223 30.7103C58.4556 31.1773 59.368 30.9415 60.1165 30.6792C60.2396 30.636 61.8145 30.1283 61.8395 30.1088C62.6451 29.4831 61.7842 29.0529 61.6911 28.5306C61.5571 27.7798 62.8371 27.8973 62.5542 27.2419C62.3936 27.278 62.2383 27.1404 62.1883 26.992C62.1383 26.8436 62.1574 26.684 62.1388 26.5296C62.0932 26.1503 61.7974 25.8047 61.4113 25.6801C60.6409 25.4312 59.7407 26.0235 59.0155 25.6738C58.5656 25.4569 58.3701 24.9592 58.0239 24.6132C57.3542 23.9441 56.3365 24.1558 55.4652 24.0816C54.5454 24.0033 53.7497 24.0773 52.9565 24.5509C51.9733 25.138 51.6566 26.4446 52.5092 27.213C53.6027 28.1985 55.6507 27.2549 56.6212 28.3117C56.7254 28.4253 56.8073 28.5521 56.8749 28.6872Z" fill="#292949"/>
<path d="M60.7611 40.7509L58.9343 36.3945H58.9334C58.7583 35.9222 58.272 35.582 57.6979 35.582C57.0612 35.582 56.5317 36.0003 56.4161 36.5535L56.2915 36.5614V41.0753L56.5807 40.7225L56.9005 41.1124H56.9618L57.2815 40.7225L57.6011 41.1124H57.6624L57.982 40.7225L58.3017 41.1124H58.363L58.6828 40.7225L59.0025 41.1124H59.0637L59.3834 40.7225L59.703 41.1124H59.7643L60.0839 40.7225L60.4037 41.1124H60.465L60.7611 40.7509Z" fill="#BABCBE"/>
<path d="M56.3644 35.582H55.8395H49.9627C49.2467 35.582 48.666 36.111 48.6575 36.7662C48.6575 36.771 48.6567 36.7756 48.6567 36.7804C48.6567 36.7853 48.6575 36.7899 48.6575 36.7947V56.1915H53.7034C53.9888 56.4479 54.3789 56.6064 54.8098 56.6064C55.2406 56.6064 55.6306 56.4479 55.9161 56.1915C56.3354 55.8148 56.3644 55.3935 56.3644 54.8889L56.3921 36.7804C56.3921 36.1186 56.9767 35.582 57.698 35.582H56.3644Z" fill="#F7F7F7"/>
<path d="M53.3281 55.2003C53.3281 55.0644 53.35 54.9334 53.3881 54.8086H53.3281L47.5015 55.6382L47.8032 56.0189C48.1185 56.4167 48.6223 56.6521 49.1584 56.6521H54.9103C54.0365 56.6521 53.3281 56.002 53.3281 55.2003Z" fill="#BABCBE"/>
<path d="M55.6686 40.3535H49.3359V40.5627H55.6686V40.3535Z" fill="#D2CFCA"/>
<path d="M55.6686 41.582H49.3359V41.7913H55.6686V41.582Z" fill="#D2CFCA"/>
<path d="M55.6686 42.8125H49.3359V43.0217H55.6686V42.8125Z" fill="#D2CFCA"/>
<path d="M55.6686 44.04H49.3359V44.2493H55.6686V44.04Z" fill="#D2CFCA"/>
<path d="M55.6686 45.2686H49.3359V45.4778H55.6686V45.2686Z" fill="#D2CFCA"/>
<path d="M55.6686 46.4971H49.3359V46.7063H55.6686V46.4971Z" fill="#D2CFCA"/>
<path d="M55.6686 47.8877H49.3359V48.0969H55.6686V47.8877Z" fill="#D2CFCA"/>
<path d="M55.6686 49.2793H49.3359V49.4885H55.6686V49.2793Z" fill="#D2CFCA"/>
<path d="M55.6686 50.6699H49.3359V50.8791H55.6686V50.6699Z" fill="#D2CFCA"/>
<path d="M55.6686 39.0059H49.3359V39.2151H55.6686V39.0059Z" fill="#D2CFCA"/>
<path d="M46.7148 37.5449L51.8919 41.1047L51.068 42.733L46.2461 40.8282L46.7148 37.5449Z" fill="#3629B7"/>
<path d="M51.812 41.2617C51.812 41.2617 52.7506 41.5016 52.7506 41.4231C52.7506 41.3446 52.7506 41.7944 52.7506 41.7944L53.347 42.2916L52.7992 43.107L51.2168 42.4378L51.812 41.2617Z" fill="#3629B7"/>
<path d="M17.8079 39.7092C17.6562 39.5921 17.5297 39.4435 17.4395 39.294C17.2841 39.0365 17.2153 38.7334 17.2517 38.4387C17.2675 38.3113 17.3797 38.205 17.5269 38.2094C17.6619 38.2134 17.7908 38.326 17.7749 38.4542C17.7383 38.7499 17.8368 39.0369 18.0518 39.2534C18.1005 39.2036 18.1543 39.1578 18.2121 39.1169C18.4238 38.9669 18.7522 38.7708 19.0109 38.9276C19.3021 39.1041 19.2281 39.4524 19.008 39.6541C18.8343 39.8134 18.5965 39.934 18.353 39.9294C18.4549 40.2038 18.5943 40.316 18.9133 40.2996C19.1071 40.2896 19.5607 40.1893 19.6446 39.9947C19.699 39.8685 19.5821 39.5765 19.5662 39.4361C19.522 39.0465 19.5249 38.6521 19.5732 38.2614C19.6713 37.468 19.9571 36.6973 20.374 35.9903C21.3157 34.3937 22.8796 33.1386 24.6018 32.2533C24.6968 32.2044 24.7925 32.1567 24.8888 32.1099C26.0855 31.5288 27.3333 31.1668 28.569 31.0288C28.6866 30.581 28.8952 30.154 29.2001 29.782C29.8809 28.952 31.0635 28.4438 32.1761 28.6093C31.7281 29.6197 31.5371 30.9234 31.508 31.1365C32.8428 31.3957 34.0962 31.9498 35.1753 32.8077C35.1978 32.8256 35.2188 32.8427 35.2392 32.8593L36.6858 32.6155C36.6858 32.6155 38.1012 34.8735 38.0689 35.7028C38.0689 35.7028 37.1485 36.4406 36.5594 36.8063C36.4437 37.9521 35.9577 39.1171 35.1589 40.1844C35.106 40.2552 35.0516 40.3253 34.996 40.3951L36.0494 42.222C36.0494 42.222 34.6799 43.4971 33.7471 43.6449L32.5296 42.5905C32.1498 42.834 31.7469 43.0606 31.3221 43.2669C30.8197 43.5108 30.3121 43.7211 29.8041 43.8971L30.072 45.4293C29.4142 46.0539 27.4949 46.3757 27.4949 46.3757L26.4421 44.5498C23.8271 44.6413 21.5147 43.6722 20.2607 41.4974C20.1539 41.3121 20.0594 41.1257 19.9769 40.9386C19.5895 41.0535 19.1784 41.087 18.7885 40.9635C18.4883 40.8684 18.2516 40.6971 18.0752 40.459C17.9162 40.2441 17.7651 39.9783 17.8079 39.7092Z" fill="#FAB994"/>
<path d="M27.7013 31.7324L27.8072 32.5202C27.8072 32.5202 25.1762 33.0559 23.0772 34.8166L22.29 34.6035C22.29 34.6034 23.7562 32.0666 27.7013 31.7324Z" fill="white"/>
<path opacity="0.03" d="M20.5249 41.6527C22.2337 42.784 24.4317 43.0954 26.5254 42.936C28.0756 42.8181 29.669 42.4822 31.1098 41.8722C33.1955 40.9892 34.8024 39.5111 36.2024 37.9026C36.2641 37.8318 36.3233 37.7598 36.3814 37.6875C36.1544 38.5267 35.7376 39.3595 35.1533 40.14C34.2481 41.3492 32.9413 42.4331 31.3166 43.2219C26.9957 45.3198 22.2885 44.9364 20.2715 41.4806C20.3538 41.5403 20.4397 41.5962 20.5249 41.6527Z" fill="black"/>
<path opacity="0.03" d="M35.2871 32.8984C35.2871 32.8984 37.2601 34.9041 36.5599 36.8053L37.1411 36.4091C37.141 36.4092 36.9357 33.9558 35.2871 32.8984Z" fill="black"/>
<path d="M30.6379 44.3477L29.5596 44.1791L30.1674 42.7115L31.4652 42.4531L32.2355 43.212L30.6379 44.3477Z" fill="#EFBFA5"/>
</svg>
