<svg width="90" height="84" viewBox="0 0 90 84" fill="none" xmlns="http://www.w3.org/2000/svg">
<ellipse cx="45" cy="71.7904" rx="45" ry="12.2093" fill="#F2F1F9"/>
<path d="M76.6535 78.1395L48.9977 78.0177C45.6712 78.0033 42.9876 75.4069 43 72.218L43.2941 5.75189C43.309 2.56068 46.0175 -0.0142723 49.3465 5.95374e-05L77.0023 0.12188C80.3288 0.136211 83.0124 2.73266 83 5.92148L82.7059 72.3876C82.6935 75.5789 79.9825 78.1538 76.6535 78.1395Z" fill="#3629B7"/>
<path d="M76.962 2.41722L71.5998 2.39333C70.8797 2.39094 70.2941 2.97138 70.2916 3.69275L70.2866 4.62432C70.2841 5.34568 69.6986 5.92612 68.9785 5.92373L58.5256 5.87835C57.8055 5.87596 57.2274 5.28836 57.2299 4.56699L57.2349 3.63542C57.2374 2.91405 56.6568 2.32884 55.9392 2.32406L54.0529 2.3145L49.361 2.29301C47.0312 2.28345 45.1325 4.08687 45.1225 6.32025L44.836 71.1956C44.826 73.429 46.7048 75.2467 49.0346 75.2563L76.6356 75.3781C78.9654 75.3876 80.8641 73.5842 80.874 71.3508L81.1606 6.47551C81.173 4.24452 79.2918 2.42677 76.962 2.41722Z" fill="white"/>
<path d="M78.0001 36.2513L74.6938 30.3949H74.6922C74.3752 29.76 73.4949 29.3027 72.4559 29.3027C71.3035 29.3027 70.3451 29.865 70.1357 30.6086L69.9102 30.6193V36.6873L70.4336 36.213L71.0123 36.7371H71.1233L71.702 36.213L72.2805 36.7371H72.3914L72.9699 36.213L73.5486 36.7371H73.6595L74.2383 36.213L74.817 36.7371H74.9277L75.5064 36.213L76.0851 36.7371H76.196L76.7745 36.213L77.3532 36.7371H77.4642L78.0001 36.2513Z" fill="#BABCBE"/>
<path d="M70.0419 29.3027H69.0919H58.4551C57.1591 29.3027 56.1081 30.0137 56.0927 30.8944C56.0927 30.9009 56.0913 30.907 56.0913 30.9135C56.0913 30.92 56.0927 30.9262 56.0927 30.9326V57.0037H65.2257C65.7421 57.3482 66.4483 57.5613 67.2281 57.5613C68.0078 57.5613 68.7138 57.3482 69.2305 57.0037C69.9894 56.4973 70.0419 55.9311 70.0419 55.2528L70.092 30.9135C70.092 30.0239 71.1502 29.3027 72.4557 29.3027H70.0419Z" fill="#FF4267"/>
<path d="M64.5461 55.6721C64.5461 55.4894 64.5857 55.3132 64.6545 55.1455H64.5461L54 56.2607L54.5461 56.7725C55.1169 57.3072 56.0287 57.6237 56.9991 57.6237H67.4097C65.8282 57.6237 64.5461 56.75 64.5461 55.6721Z" fill="#BABCBE"/>
<path d="M68.7817 35.7188H57.3198V36H68.7817V35.7188Z" fill="#D2CFCA"/>
<path d="M68.7817 37.3691H57.3198V37.6504H68.7817V37.3691Z" fill="#D2CFCA"/>
<path d="M68.7817 39.0205H57.3198V39.3018H68.7817V39.0205Z" fill="#D2CFCA"/>
<path d="M68.7817 40.6709H57.3198V40.9522H68.7817V40.6709Z" fill="#D2CFCA"/>
<path d="M68.7817 42.3223H57.3198V42.6035H68.7817V42.3223Z" fill="#D2CFCA"/>
<path d="M68.7817 43.9736H57.3198V44.2549H68.7817V43.9736Z" fill="#D2CFCA"/>
<path d="M68.7817 45.8428H57.3198V46.124H68.7817V45.8428Z" fill="#D2CFCA"/>
<path d="M68.7817 47.7129H57.3198V47.9942H68.7817V47.7129Z" fill="#D2CFCA"/>
<path d="M68.7817 49.582H57.3198V49.8633H68.7817V49.582Z" fill="#D2CFCA"/>
<path d="M68.7817 33.9053H57.3198V34.1865H68.7817V33.9053Z" fill="#D2CFCA"/>
<rect x="50" y="64.9863" width="27.1632" height="6.83409" rx="3.41704" fill="#FFAF2A"/>
<path d="M60.4587 68.5106V69.5586H59.8947V66.7346H60.9227C61.256 66.7346 61.5067 66.8146 61.6747 66.9746C61.8453 67.1346 61.9307 67.3519 61.9307 67.6266C61.9307 67.8959 61.8427 68.1106 61.6667 68.2706C61.4933 68.4306 61.2453 68.5106 60.9227 68.5106H60.4587ZM60.8627 68.0586C61.1933 68.0586 61.3587 67.9146 61.3587 67.6266C61.3587 67.4853 61.32 67.3773 61.2427 67.3026C61.1653 67.2279 61.0387 67.1906 60.8627 67.1906H60.4587V68.0586H60.8627ZM63.165 67.3146C63.3517 67.3146 63.5117 67.3586 63.645 67.4466C63.7783 67.5346 63.873 67.6533 63.929 67.8026V67.3426H64.489V69.5586H63.929V69.0946C63.873 69.2439 63.7783 69.3639 63.645 69.4546C63.5117 69.5426 63.3517 69.5866 63.165 69.5866C62.9783 69.5866 62.8103 69.5413 62.661 69.4506C62.5117 69.3599 62.3943 69.2293 62.309 69.0586C62.2263 68.8853 62.185 68.6826 62.185 68.4506C62.185 68.2186 62.2263 68.0173 62.309 67.8466C62.3943 67.6733 62.5117 67.5413 62.661 67.4506C62.8103 67.3599 62.9783 67.3146 63.165 67.3146ZM63.341 67.8066C63.165 67.8066 63.0237 67.8639 62.917 67.9786C62.8103 68.0933 62.757 68.2506 62.757 68.4506C62.757 68.6506 62.8103 68.8079 62.917 68.9226C63.0237 69.0346 63.165 69.0906 63.341 69.0906C63.5117 69.0906 63.6517 69.0333 63.761 68.9186C63.873 68.8013 63.929 68.6453 63.929 68.4506C63.929 68.2533 63.873 68.0973 63.761 67.9826C63.6517 67.8653 63.5117 67.8066 63.341 67.8066ZM65.3801 67.3426L65.9841 68.8466L66.5441 67.3426H67.1641L65.8081 70.6146H65.1841L65.6841 69.4946L64.7521 67.3426H65.3801Z" fill="white"/>
<g opacity="0.75">
<path opacity="0.75" d="M40.9586 68.8229H5.40381V46.7297C5.40381 45.9314 6.06643 45.2842 6.88373 45.2842H39.4787C40.296 45.2842 40.9586 45.9314 40.9586 46.7297V68.8229Z" fill="#B0BEC5"/>
<path opacity="0.75" d="M41.4068 70.771H4.95589C4.07572 70.771 3.3623 70.0742 3.3623 69.2145V68.8232H43.0003V69.2145C43.0003 70.0741 42.2869 70.771 41.4068 70.771Z" fill="#B0BEC5"/>
<path opacity="0.75" d="M39.2666 47.1074H6.42725V66.9994H39.2666V47.1074Z" fill="#B0BEC5"/>
<path opacity="0.75" d="M27.202 69.7971H19.1609C18.6719 69.7971 18.2754 69.4099 18.2754 68.9322V68.8232H28.0875V68.9322C28.0875 69.4099 27.691 69.7971 27.202 69.7971Z" fill="#B0BEC5"/>
</g>
<path d="M40.5963 68.4694H5.0415V46.3762C5.0415 45.5779 5.70413 44.9307 6.52143 44.9307H39.1164C39.9337 44.9307 40.5963 45.5779 40.5963 46.3762V68.4694Z" fill="#3629B7"/>
<path d="M41.0445 70.4175H4.59358C3.71342 70.4175 3 69.7207 3 68.861V68.4697H42.638V68.861C42.638 69.7206 41.9246 70.4175 41.0445 70.4175Z" fill="#ECEFF1"/>
<path d="M38.9043 46.7539H6.06494V66.6459H38.9043V46.7539Z" fill="white"/>
<path d="M26.8397 69.4436H18.7986C18.3095 69.4436 17.9131 69.0564 17.9131 68.5787V68.4697H27.7252V68.5787C27.7252 69.0564 27.3287 69.4436 26.8397 69.4436Z" fill="#B0BEC5"/>
<path d="M29.7648 58.5246C28.7054 62.7128 24.3707 65.2699 20.0816 64.2349C19.4957 64.0935 18.9409 63.8925 18.4225 63.6396C17.7705 63.3224 17.1759 62.9231 16.649 62.4592C16.1786 62.0453 15.7623 61.5792 15.4069 61.0735C15.2982 60.919 15.1952 60.7607 15.0986 60.5988C14.6724 59.8884 14.3604 59.1127 14.1804 58.2996C14.1451 58.1407 14.1147 57.9807 14.09 57.8195C13.9368 56.8345 13.9754 55.8042 14.2353 54.7772C14.259 54.6833 14.2848 54.5899 14.3128 54.4971C15.4898 50.4755 19.7268 48.0553 23.9185 49.0667C24.95 49.3156 25.8848 49.7498 26.695 50.3234C26.8514 50.4344 27.0033 50.5503 27.1504 50.6715C27.7928 51.2001 28.3422 51.822 28.7824 52.5101C28.8795 52.6617 28.9711 52.8164 29.0574 52.9742C29.3641 53.5355 29.6014 54.1336 29.7612 54.7558C29.9259 55.3974 30.0082 56.0644 29.9994 56.7428C29.9928 57.2382 29.9377 57.7395 29.8302 58.2414C29.8107 58.3365 29.7885 58.4309 29.7648 58.5246Z" fill="#FDD462"/>
<path d="M28.2064 58.1485C28.1828 58.2415 28.1568 58.3339 28.13 58.4252C27.1673 61.603 23.7939 63.5153 20.467 62.7125C17.14 61.9097 15.0666 58.6831 15.7298 55.433C15.7496 55.34 15.7706 55.2463 15.7941 55.1533C16.6396 51.8108 20.1114 49.7635 23.5336 50.5892C26.9557 51.4149 29.0519 54.8059 28.2064 58.1485Z" fill="#F37E00"/>
<path d="M28.1303 58.4241C27.1676 61.602 23.7942 63.5142 20.4673 62.7114C20.3927 62.6935 20.3197 62.674 20.2466 62.6536C19.5109 62.4491 18.8404 62.1249 18.2515 61.7074C17.6625 61.2898 17.1556 60.7798 16.7482 60.2041C16.6446 60.0579 16.5475 59.908 16.4562 59.7531C16.0442 59.0497 15.7694 58.2691 15.661 57.4515C15.6343 57.2558 15.6175 57.0569 15.6108 56.8579C15.5937 56.388 15.6328 55.9101 15.7299 55.432C16.6927 52.2542 20.0661 50.3411 23.3931 51.1439C23.8139 51.2455 24.2147 51.3861 24.5932 51.561C24.7858 51.6496 24.9732 51.7478 25.154 51.8542C25.8922 52.2881 26.5231 52.8595 27.0193 53.5239C27.1264 53.6674 27.2276 53.8156 27.3221 53.9685C27.6898 54.5599 27.958 55.2106 28.1095 55.894C28.2569 56.5604 28.2939 57.2567 28.2061 57.9599C28.1876 58.1141 28.162 58.2694 28.1303 58.4241Z" fill="#F7A219"/>
<path d="M21.9932 60.2976L21.7385 61.3047L20.4287 60.9887L20.672 60.027C19.7567 59.7484 18.9178 59.286 18.4453 58.8158L19.546 57.4255C20.0696 57.9272 20.8297 58.3513 21.5449 58.5239C22.1673 58.6741 22.4224 58.6009 22.4775 58.3831C22.6795 57.5848 18.9217 57.3615 19.5206 54.9933C19.7799 53.9681 20.7596 53.29 22.3359 53.4489L22.586 52.46L23.8959 52.776L23.6503 53.7468C24.3217 53.9762 24.9468 54.31 25.4029 54.728L24.351 56.1203C23.7902 55.6481 23.2255 55.3482 22.6588 55.2114C22.0178 55.0568 21.7676 55.1889 21.7125 55.4066C21.5198 56.1688 25.2753 56.4011 24.6832 58.7418C24.4353 59.7221 23.4951 60.4001 21.9932 60.2976Z" fill="#F37E00"/>
<path d="M22.0396 59.9537L21.7849 60.9609L20.4751 60.6448L20.7183 59.6831C19.8031 59.4045 18.9641 58.9421 18.4917 58.4719L19.5924 57.0816C20.116 57.5835 20.8761 58.0075 21.5913 58.18C22.2137 58.3303 22.4688 58.2569 22.5239 58.0393C22.7259 57.2409 18.9681 57.0176 19.567 54.6496C19.8263 53.6244 20.806 52.9462 22.3822 53.1051L22.6324 52.1162L23.9423 52.4322L23.6967 53.403C24.3681 53.6324 24.9932 53.9662 25.4493 54.3843L24.3973 55.7767C23.8368 55.3045 23.2719 55.0046 22.7052 54.8678C22.0642 54.7132 21.814 54.8453 21.7589 55.063C21.5661 55.8252 25.3217 56.0575 24.7296 58.3984C24.4817 59.3782 23.5414 60.0562 22.0396 59.9537Z" fill="#FDD462"/>
</svg>
