<svg width="91" height="96" viewBox="0 0 91 96" fill="none" xmlns="http://www.w3.org/2000/svg">
<ellipse cx="45" cy="73.2416" rx="45" ry="10.7582" fill="#F2F1F9"/>
<path d="M67.8311 75.7377L40.8511 75.6196C37.6059 75.6057 34.9879 73.089 35 69.9982L35.2869 5.57509C35.3015 2.48197 37.9438 -0.0138336 41.1914 5.77074e-05L68.1714 0.118133C71.4166 0.132025 74.0346 2.64866 74.0225 5.73947L73.7356 70.1626C73.7235 73.2557 71.0787 75.7515 67.8311 75.7377Z" fill="#3629B7"/>
<path d="M68.132 2.34308L62.9008 2.31993C62.1983 2.31762 61.627 2.88021 61.6246 3.57941L61.6198 4.48234C61.6173 5.18154 61.0461 5.74413 60.3436 5.74182L50.1461 5.69783C49.4436 5.69551 48.8797 5.12597 48.8821 4.42678L48.887 3.52384C48.8894 2.82465 48.323 2.25742 47.6229 2.25279L45.7828 2.24353L41.2055 2.22269C38.9326 2.21343 37.0803 3.96142 37.0706 6.12614L36.7911 69.0074C36.7813 71.1721 38.6142 72.934 40.887 72.9432L67.8136 73.0613C70.0864 73.0706 71.9387 71.3226 71.9484 69.1579L72.228 6.27663C72.2401 4.11422 70.4048 2.35234 68.132 2.34308Z" fill="white"/>
<path d="M30.1921 75.9295L13.5986 75.8569C11.6027 75.8484 9.99255 74.3006 10 72.3996L10.1764 32.7775C10.1854 30.8751 11.8105 29.3401 13.8079 29.3487L30.4014 29.4213C32.3973 29.4298 34.0074 30.9776 34 32.8786L33.8236 72.5007C33.8161 74.4031 32.1895 75.9381 30.1921 75.9295Z" fill="#3629B7"/>
<path d="M30.3772 30.7899L27.1599 30.7756C26.7278 30.7742 26.3765 31.1202 26.375 31.5503L26.372 32.1056C26.3705 32.5356 26.0191 32.8816 25.5871 32.8802L19.3154 32.8532C18.8833 32.8517 18.5364 32.5014 18.5379 32.0714L18.5409 31.5161C18.5424 31.0861 18.1941 30.7372 17.7635 30.7344L16.6318 30.7287L13.8166 30.7158C12.4187 30.7101 11.2795 31.7852 11.2735 33.1166L11.1016 71.7904C11.0956 73.1218 12.2229 74.2054 13.6207 74.2111L30.1813 74.2837C31.5792 74.2894 32.7184 73.2143 32.7244 71.8829L32.8963 33.2091C32.9038 31.8792 31.7751 30.7956 30.3772 30.7899Z" fill="white"/>
<rect x="40" y="19.8809" width="30.8434" height="3.64321" rx="1.82161" fill="#5655B9"/>
<rect x="42.8916" y="20.791" width="26.0241" height="1.82161" rx="0.910803" fill="#3629B7"/>
<path d="M64.0428 21.7012H62.5553H45.9003C43.8711 21.7012 42.2255 22.6778 42.2013 23.8877C42.2013 23.8966 42.1992 23.9051 42.1992 23.914C42.1992 23.9229 42.2013 23.9313 42.2013 23.9402V59.7551H56.5016C57.3103 60.2283 58.416 60.521 59.6369 60.521C60.8579 60.521 61.9632 60.2283 62.7722 59.7551C63.9606 59.0594 64.0428 58.2816 64.0428 57.3498L64.1212 23.914C64.1212 22.6918 65.7781 21.7012 67.8223 21.7012H64.0428Z" fill="#FF4267"/>
<g filter="url(#filter0_d_295_37370)">
<path d="M56.1157 57.2704C56.1157 56.9581 56.1763 56.6569 56.2815 56.3701H56.1157L40.0005 58.2768L40.835 59.1518C41.7072 60.0661 43.1004 60.6071 44.5833 60.6071H60.4917C58.075 60.6071 56.1157 59.1133 56.1157 57.2704Z" fill="#3629B7"/>
</g>
<path d="M55.9093 28.7992L58.6 33.2271C58.7332 33.4463 58.653 33.7267 58.4201 33.8536L50.5945 38.1157C50.362 38.2424 50.0655 38.1677 49.932 37.948L47.2413 33.5202C47.1081 33.3009 47.1887 33.0203 47.4212 32.8936L55.2463 28.6318C55.4793 28.5049 55.7761 28.58 55.9093 28.7992Z" fill="#3629B7"/>
<path d="M52.7603 34.3011L49.7109 35.9619L49.9023 36.2768L52.9516 34.616L52.7603 34.3011Z" fill="#FDFEFF"/>
<path d="M51.5715 35.7466L50.0752 36.5615L50.2665 36.8764L51.7628 36.0615L51.5715 35.7466Z" fill="#FDFEFF"/>
<path d="M52.4594 35.2629L51.7803 35.6328L51.9716 35.9477L52.6507 35.5778L52.4594 35.2629Z" fill="#FDFEFF"/>
<path d="M50.3266 34.0408L49.1429 34.6855C49.0565 34.7325 49.0269 34.8365 49.0766 34.9183L49.3979 35.447C49.4476 35.5288 49.5574 35.5569 49.6438 35.5098L50.8275 34.8651C50.9138 34.8181 50.9434 34.7141 50.8937 34.6323L50.5727 34.1041C50.5235 34.022 50.4129 33.9938 50.3266 34.0408Z" fill="#FDFEFF"/>
<path d="M55.4671 30.2002C55.4067 29.9827 55.1716 29.8528 54.942 29.9099C54.7124 29.967 54.5753 30.1896 54.6357 30.4071C54.6961 30.6245 54.9312 30.7545 55.1608 30.6973C55.3904 30.6402 55.5275 30.4176 55.4671 30.2002Z" fill="#FDFEFF"/>
<path d="M54.9789 30.4772C54.9107 30.2618 54.6711 30.1395 54.4437 30.2039C54.2163 30.2684 54.0872 30.4952 54.1554 30.7106C54.2235 30.926 54.4632 31.0483 54.6906 30.9839C54.918 30.9194 55.0471 30.6926 54.9789 30.4772Z" fill="#FDFEFF"/>
<path d="M57.9962 47.5295C57.8825 50.1405 55.5539 52.1703 52.7943 52.0626C52.4173 52.0479 52.0518 51.994 51.7019 51.9052C51.2619 51.7939 50.8468 51.6271 50.4647 51.414C50.1236 51.2239 49.809 50.9964 49.5267 50.7382C49.4404 50.6594 49.3571 50.5775 49.2771 50.493C48.9253 50.1217 48.6351 49.6981 48.4209 49.2368C48.3789 49.1468 48.3398 49.0553 48.3041 48.9625C48.0844 48.396 47.9765 47.7799 48.0043 47.1397C48.0068 47.0812 48.0106 47.0227 48.016 46.9643C48.223 44.4383 50.5092 42.5013 53.2062 42.6066C53.87 42.6325 54.498 42.7797 55.0677 43.0246C55.1777 43.072 55.2856 43.1229 55.391 43.1774C55.8521 43.4152 56.2682 43.7194 56.6257 44.0758C56.7045 44.1544 56.7805 44.2353 56.8535 44.3188C57.1131 44.6157 57.335 44.9426 57.5123 45.2931C57.6951 45.6544 57.8308 46.0406 57.9121 46.4444C57.9713 46.7392 58.0016 47.0432 57.9999 47.3538C58.0003 47.4124 57.9988 47.4711 57.9962 47.5295Z" fill="#FDD462"/>
<path opacity="0.3" d="M57.9123 46.4442L51.7021 51.9049C51.2621 51.7936 50.8469 51.6269 50.4648 51.4138L57.5124 45.293C57.6953 45.6543 57.831 46.0406 57.9123 46.4442Z" fill="white"/>
<path opacity="0.3" d="M55.3911 43.1773L48.421 49.2367C48.379 49.1466 48.3399 49.0552 48.3042 48.9624L55.0678 43.0244C55.1778 43.0719 55.2857 43.1228 55.3911 43.1773Z" fill="white"/>
<path opacity="0.3" d="M56.8537 44.3191L49.5269 50.7385C49.4406 50.6596 49.3573 50.5778 49.2773 50.4932L56.626 44.0762C56.7048 44.1548 56.7807 44.2357 56.8537 44.3191Z" fill="white"/>
<path d="M56.9933 47.4907C56.9907 47.5487 56.9866 47.6066 56.9818 47.6641C56.7981 49.6639 54.9761 51.1974 52.8355 51.1138C50.6949 51.0303 49.0125 49.3602 49.0034 47.3527C49.0037 47.2952 49.0046 47.2371 49.007 47.1791C49.0979 45.0953 50.9629 43.4701 53.1648 43.556C55.3666 43.6419 57.084 45.407 56.9933 47.4907Z" fill="#F37E00"/>
<path d="M56.9818 47.6642C56.7981 49.664 54.9761 51.1975 52.8355 51.114C52.7876 51.1121 52.7403 51.1092 52.6929 51.1058C52.2161 51.0714 51.764 50.9581 51.3499 50.7798C50.9357 50.6014 50.5601 50.3587 50.2369 50.065C50.1548 49.9905 50.0761 49.913 50.0004 49.8318C49.6582 49.463 49.39 49.0322 49.2193 48.5597C49.1778 48.4466 49.1422 48.3306 49.1127 48.2133C49.0421 47.9365 49.005 47.6482 49.0034 47.3529C49.1871 45.3531 51.0091 43.8191 53.1497 43.9027C53.4204 43.9132 53.6839 43.9494 53.9381 44.0084C54.0674 44.0383 54.1948 44.0744 54.3191 44.1162C54.8267 44.2865 55.2863 44.5511 55.6752 44.8868C55.7591 44.9593 55.8401 45.0354 55.9175 45.115C56.2183 45.4225 56.4657 45.7771 56.6458 46.1649C56.8213 46.543 56.933 46.952 56.969 47.3796C56.9772 47.4733 56.9815 47.5686 56.9818 47.6642Z" fill="#F7A219"/>
<path opacity="0.2" d="M56.9692 47.3788L52.6932 51.105C52.2163 51.0706 51.7642 50.9574 51.3501 50.779L56.646 46.1641C56.8215 46.5423 56.9331 46.9511 56.9692 47.3788Z" fill="#FBE6A1"/>
<path opacity="0.2" d="M54.3192 44.1157L49.2194 48.5593C49.1779 48.4462 49.1423 48.3302 49.1128 48.2129L53.9382 44.0078C54.0675 44.0377 54.1949 44.0738 54.3192 44.1157Z" fill="#FBE6A1"/>
<path opacity="0.2" d="M55.9176 45.1149L50.237 50.065C50.1549 49.9905 50.0762 49.913 50.0005 49.8318L55.6753 44.8867C55.7592 44.9592 55.8402 45.0353 55.9176 45.1149Z" fill="#FBE6A1"/>
<path d="M53.4623 49.5001L53.4349 50.128L52.5922 50.0951L52.6183 49.4956C52.0221 49.4383 51.4491 49.263 51.0996 49.0397L51.5962 48.0846C51.9811 48.3206 52.5009 48.4825 52.9611 48.5005C53.3616 48.5161 53.5084 48.4425 53.5144 48.3068C53.5361 47.809 51.2055 48.1204 51.2699 46.6441C51.2977 46.0049 51.8112 45.4867 52.7971 45.3949L52.824 44.7783L53.6667 44.8112L53.6403 45.4164C54.0808 45.4733 54.5065 45.5976 54.8393 45.7918L54.3728 46.7425C53.969 46.5285 53.5847 46.4171 53.2202 46.4029C52.8078 46.3868 52.6714 46.4948 52.6655 46.6305C52.6448 47.1057 54.975 46.8 54.9114 48.2592C54.8847 48.8701 54.3953 49.3835 53.4623 49.5001Z" fill="#F37E00"/>
<path d="M53.4466 49.2902L53.4193 49.918L52.5766 49.8852L52.6027 49.2856C52.0065 49.2284 51.4334 49.053 51.084 48.8298L51.5806 47.8746C51.9654 48.1107 52.4853 48.2726 52.9455 48.2905C53.3459 48.3061 53.4929 48.2326 53.4987 48.0968C53.5204 47.5991 51.1899 47.9104 51.2542 46.4341C51.2821 45.795 51.7955 45.2768 52.7815 45.1849L52.8083 44.5684L53.6511 44.6012L53.6247 45.2064C54.0652 45.2632 54.4909 45.3875 54.8237 45.5818L54.3572 46.5325C53.9534 46.3185 53.5691 46.2071 53.2046 46.1929C52.7921 46.1768 52.6557 46.2848 52.6499 46.4205C52.6291 46.8956 54.9594 46.5899 54.8959 48.0492C54.8691 48.6601 54.3797 49.1736 53.4466 49.2902Z" fill="#FDD462"/>
<rect x="41" y="62.9883" width="27.1632" height="6.62402" rx="3.31201" fill="#FFAF2A"/>
<path d="M51.4587 66.6483V67.6963H50.8947V64.8723H51.9227C52.256 64.8723 52.5067 64.9523 52.6747 65.1123C52.8453 65.2723 52.9307 65.4896 52.9307 65.7643C52.9307 66.0336 52.8427 66.2483 52.6667 66.4083C52.4933 66.5683 52.2453 66.6483 51.9227 66.6483H51.4587ZM51.8627 66.1963C52.1933 66.1963 52.3587 66.0523 52.3587 65.7643C52.3587 65.623 52.32 65.515 52.2427 65.4403C52.1653 65.3656 52.0387 65.3283 51.8627 65.3283H51.4587V66.1963H51.8627ZM54.165 65.4523C54.3517 65.4523 54.5117 65.4963 54.645 65.5843C54.7783 65.6723 54.873 65.791 54.929 65.9403V65.4803H55.489V67.6963H54.929V67.2323C54.873 67.3816 54.7783 67.5016 54.645 67.5923C54.5117 67.6803 54.3517 67.7243 54.165 67.7243C53.9783 67.7243 53.8103 67.679 53.661 67.5883C53.5117 67.4976 53.3943 67.367 53.309 67.1963C53.2263 67.023 53.185 66.8203 53.185 66.5883C53.185 66.3563 53.2263 66.155 53.309 65.9843C53.3943 65.811 53.5117 65.679 53.661 65.5883C53.8103 65.4976 53.9783 65.4523 54.165 65.4523ZM54.341 65.9443C54.165 65.9443 54.0237 66.0016 53.917 66.1163C53.8103 66.231 53.757 66.3883 53.757 66.5883C53.757 66.7883 53.8103 66.9456 53.917 67.0603C54.0237 67.1723 54.165 67.2283 54.341 67.2283C54.5117 67.2283 54.6517 67.171 54.761 67.0563C54.873 66.939 54.929 66.783 54.929 66.5883C54.929 66.391 54.873 66.235 54.761 66.1203C54.6517 66.003 54.5117 65.9443 54.341 65.9443ZM56.3801 65.4803L56.9841 66.9843L57.5441 65.4803H58.1641L56.8081 68.7523H56.1841L56.6841 67.6323L55.7521 65.4803H56.3801Z" fill="white"/>
<g clip-path="url(#clip0_295_37370)">
<path d="M28.0002 44.4961H16.0002C15.6322 44.4961 15.3335 44.7782 15.3335 45.1272V59.6436L18.0002 57.7502L20.0002 59.6436L22.0002 57.7502L24.0002 59.6436L26.0002 57.7502L28.6668 59.6436V45.1272C28.6668 44.7782 28.3682 44.4961 28.0002 44.4961ZM22.6668 54.5945H18.0002V53.3322H22.6668V54.5945ZM22.6668 52.0699H18.0002V50.8076H22.6668V52.0699ZM22.6668 49.5453H18.0002V48.283H22.6668V49.5453ZM26.0002 54.5945H24.0002V53.3322H26.0002V54.5945ZM26.0002 52.0699H24.0002V50.8076H26.0002V52.0699ZM26.0002 49.5453H24.0002V48.283H26.0002V49.5453Z" fill="#FFAF2A"/>
</g>
<defs>
<filter id="filter0_d_295_37370" x="10.0005" y="31.3701" width="80.4912" height="64.2373" filterUnits="userSpaceOnUse" color-interpolation-filters="sRGB">
<feFlood flood-opacity="0" result="BackgroundImageFix"/>
<feColorMatrix in="SourceAlpha" type="matrix" values="0 0 0 0 0 0 0 0 0 0 0 0 0 0 0 0 0 0 127 0" result="hardAlpha"/>
<feOffset dy="5"/>
<feGaussianBlur stdDeviation="15"/>
<feColorMatrix type="matrix" values="0 0 0 0 0 0 0 0 0 0 0 0 0 0 0 0 0 0 0.05 0"/>
<feBlend mode="normal" in2="BackgroundImageFix" result="effect1_dropShadow_295_37370"/>
<feBlend mode="normal" in="SourceGraphic" in2="effect1_dropShadow_295_37370" result="shape"/>
</filter>
<clipPath id="clip0_295_37370">
<rect width="16" height="15.1475" fill="white" transform="translate(14 44.4961)"/>
</clipPath>
</defs>
</svg>
