<svg width="90" height="90" viewBox="0 0 90 90" fill="none" xmlns="http://www.w3.org/2000/svg">
<ellipse cx="45" cy="68.6361" rx="45" ry="11.3636" fill="#F2F1F9"/>
<path d="M23.3601 9.4249L22.4251 8.89053C22.4254 8.89109 22.4256 8.89165 22.4262 8.8922C22.1524 8.69353 21.7796 8.68934 21.3678 8.92987L7.8841 16.8009C7.04483 17.2909 6.36426 18.6055 6.36426 19.737V34.8098C6.36426 35.4472 6.58035 35.8906 6.91898 36.0686H6.91871L8.02457 36.6909C8.02457 36.6909 7.79275 36.3008 7.61584 36.0943C7.70305 36.0644 7.79247 36.0251 7.8841 35.9715L21.3678 28.1005C22.2073 27.6105 22.8876 26.2959 22.8876 25.1644V10.0915C22.8876 9.78877 22.8377 9.53149 22.7502 9.32361C23.0662 9.57837 23.3601 9.4249 23.3601 9.4249Z" fill="#E0CBB0"/>
<path d="M6.36328 19.7369V34.8098C6.36328 35.4471 6.57938 35.8905 6.91801 36.0685H6.91773L8.02359 36.6908C8.02359 36.6908 7.79177 36.3007 7.61486 36.0942C7.70208 36.0643 7.79149 36.025 7.88312 35.9714L15.7707 31.3669V24.9628L6.3757 19.4785C6.36825 19.5656 6.36328 19.6518 6.36328 19.7369Z" fill="#C6AE95"/>
<path d="M22.887 10.0915C22.887 9.78877 22.837 9.53149 22.7495 9.32361C23.0658 9.57809 23.3597 9.4249 23.3597 9.4249L22.4247 8.89053C22.425 8.89109 22.4252 8.89165 22.4258 8.8922C22.152 8.69353 21.7792 8.68934 21.3674 8.92987L7.8837 16.8009C7.82519 16.8349 7.76779 16.874 7.71094 16.9158L18.3026 23.0986L22.8872 19.2978V10.0915H22.887Z" fill="#F2DCC4"/>
<path d="M22.3678 28.6786L8.88409 36.5496C8.04483 37.0396 7.36426 36.5194 7.36426 35.3879V20.315C7.36426 19.1835 8.04455 17.8689 8.88409 17.3789L22.3678 9.50765C23.2071 9.01765 23.8876 9.53779 23.8876 10.6693V25.7422C23.8876 26.874 23.2071 28.1885 22.3678 28.6786Z" fill="#F7EED7"/>
<path d="M21.9784 28.5184L9.40879 35.8559C8.53199 36.3676 7.81885 35.9566 7.81885 34.9392V20.3558C7.81885 19.3387 8.53199 18.0947 9.40879 17.5829L21.9784 10.2455C22.8552 9.73371 23.5684 10.145 23.5684 11.1621V25.7456C23.5684 26.7629 22.8552 28.0066 21.9784 28.5184ZM9.40879 17.7459C8.60954 18.2125 7.95905 19.3468 7.95905 20.2741V34.8575C7.95905 35.7847 8.60954 36.1598 9.40879 35.6932L21.9784 28.3557C22.7777 27.8892 23.4282 26.7549 23.4282 25.8273V11.2442C23.4282 10.3166 22.7777 9.94188 21.9784 10.4084L9.40879 17.7459Z" fill="#C6AD89"/>
<g opacity="0.6">
<path opacity="0.6" d="M8.41877 35.8148L23.0346 10.3255C22.7699 10.1525 22.3948 10.1656 21.9784 10.4087L9.40872 17.7461C8.60948 18.2127 7.95898 19.347 7.95898 20.2743V34.8577C7.95898 35.3413 8.13672 35.6725 8.41877 35.8148Z" fill="#F9ECC7"/>
</g>
<path d="M18.906 24.9503C20.7024 21.8434 20.7205 18.4747 18.9465 17.4261C17.1725 16.3775 14.2781 18.046 12.4817 21.1528C10.6853 24.2597 10.6671 27.6284 12.4412 28.677C14.2152 29.7257 17.1096 28.0571 18.906 24.9503Z" fill="#CEBBA1"/>
<path d="M15.5666 24.2031L13.0596 27.3429L15.2183 28.6031C15.3745 28.5305 15.5332 28.4479 15.6936 28.3542C16.6816 27.7774 17.5956 26.8789 18.3433 25.8241L15.5666 24.2031Z" fill="#E0CBB0"/>
<path opacity="0.4" d="M15.6939 17.7472C15.4482 17.8906 15.2073 18.0544 14.9722 18.2349V20.5984L19.6716 23.3417C20.0489 22.3503 20.2652 21.3329 20.2652 20.3825C20.2652 17.4531 18.2186 16.2733 15.6939 17.7472Z" fill="#C6AD89"/>
<path opacity="0.4" d="M20.2459 19.9181C20.0513 17.4932 18.316 16.4822 16.1318 17.5163L20.2459 19.9181Z" fill="#C6AD89"/>
<path d="M14.4355 27.5498C16.7245 26.2134 18.5802 22.9774 18.5802 20.3214C18.5802 18.5308 17.736 17.4626 16.4847 17.3652C16.2275 17.4632 15.9634 17.5887 15.6935 17.7464C13.1688 19.22 11.1221 22.7896 11.1221 25.7187C11.1221 26.6448 11.3271 27.3958 11.687 27.9435C12.4186 28.2694 13.381 28.1656 14.4355 27.5498Z" fill="#F2DDC2"/>
<path d="M20.1196 26.901L11.2671 32.0689C10.6497 32.4294 10.1475 32.1398 10.1475 31.4235V21.1524C10.1475 20.4361 10.6497 19.5599 11.2671 19.1997L20.1196 14.032C20.7369 13.6715 21.2392 13.9612 21.2392 14.6775V24.9482C21.2392 25.6645 20.7369 26.5405 20.1196 26.901ZM11.2671 19.3141C10.7041 19.6428 10.246 20.4414 10.246 21.0946V31.3654C10.246 32.0187 10.7041 32.2826 11.2671 31.9539L20.1196 26.7863C20.6826 26.4576 21.1407 25.6587 21.1407 25.0057V14.7349C21.1407 14.0817 20.6826 13.8177 20.1196 14.1464L11.2671 19.3141Z" fill="#C6AD89"/>
<path d="M15.0293 22.7697C15.0293 23.1224 14.7829 23.5521 14.479 23.7296C14.1749 23.9071 13.9287 23.765 13.9287 23.4123C13.9287 23.0596 14.1752 22.6299 14.479 22.4524C14.7829 22.275 15.0293 22.417 15.0293 22.7697Z" fill="#5D6D89"/>
<path opacity="0.5" d="M14.8829 22.4238L14.1079 23.7755C14.2059 23.8221 14.3348 23.8118 14.478 23.7281C14.7821 23.5506 15.0283 23.1209 15.0283 22.7682C15.0283 22.6024 14.9723 22.4852 14.8829 22.4238Z" fill="#5D6D89"/>
<path d="M14.9635 22.8069C14.9635 23.1177 14.7463 23.4964 14.4783 23.6529C14.2104 23.8092 13.9932 23.6842 13.9932 23.3733C13.9932 23.0625 14.2104 22.6838 14.4783 22.5273C14.7463 22.371 14.9635 22.496 14.9635 22.8069Z" fill="#A6B4C9"/>
<path d="M14.1021 23.6615C14.1239 23.6802 14.1484 23.6945 14.1757 23.7039L14.8552 22.52C14.8334 22.5013 14.8088 22.487 14.7815 22.4775L14.1021 23.6615Z" fill="#5D6D89"/>
<path d="M13.0795 23.907C13.0795 24.3136 12.7955 24.8089 12.445 25.0134C12.0945 25.218 11.8105 25.0542 11.8105 24.6476C11.8105 24.2411 12.0945 23.7457 12.445 23.5412C12.7955 23.3367 13.0795 23.5005 13.0795 23.907Z" fill="#494238"/>
<path d="M17.1469 21.5329C17.1469 21.9395 16.8629 22.4348 16.5124 22.6393C16.1619 22.8438 15.8779 22.68 15.8779 22.2735C15.8779 21.8669 16.1619 21.3716 16.5124 21.1671C16.8629 20.9628 17.1469 21.1263 17.1469 21.5329Z" fill="#494238"/>
<path d="M15.694 28.1488C13.9857 29.1461 12.4888 28.9722 11.6528 27.8893C12.4201 29.1215 13.9416 29.3782 15.694 28.355C17.4468 27.3317 18.9683 25.2986 19.7355 23.1709C18.8993 25.2302 17.4024 27.1517 15.694 28.1488Z" fill="white"/>
<path opacity="0.4" d="M11.2601 26.7902C11.2601 23.5452 13.5275 19.5909 16.3243 17.9582C16.6183 17.7866 16.9058 17.6499 17.1862 17.5419C16.971 17.4456 16.7367 17.385 16.4847 17.3652C16.2275 17.4632 15.9634 17.5887 15.6935 17.7464C13.1688 19.22 11.1221 22.7896 11.1221 25.7187C11.1221 26.1724 11.172 26.5835 11.2645 26.9496C11.2631 26.8963 11.2601 26.8446 11.2601 26.7902Z" fill="#C6AD89"/>
<path d="M14.2668 27.4637C13.4902 27.9171 12.7602 28.1133 12.1235 28.0815C12.784 28.2124 13.5793 28.05 14.4357 27.5502C16.2638 26.4831 17.8143 24.2042 18.3652 21.9766C17.6686 24.2058 16.0963 26.3958 14.2668 27.4637Z" fill="#FFFAEE"/>
<path d="M12.6226 23.4677C12.7766 23.5121 12.8765 23.6669 12.8765 23.9075C12.8765 24.314 12.5925 24.8093 12.242 25.0139C12.1802 25.0499 12.1205 25.0742 12.064 25.0878C12.1699 25.1185 12.3016 25.0973 12.4445 25.0139C12.795 24.8093 13.079 24.314 13.079 23.9075C13.079 23.5726 12.8864 23.403 12.6226 23.4677Z" fill="#CEBBA1"/>
<path d="M16.6819 21.0958C16.8309 21.1435 16.9273 21.297 16.9273 21.533C16.9273 21.9396 16.6433 22.4349 16.2928 22.6395C16.234 22.6738 16.1771 22.6969 16.123 22.7112C16.2304 22.7455 16.3654 22.7251 16.5122 22.6395C16.8627 22.4349 17.1467 21.9396 17.1467 21.533C17.1467 21.1948 16.9499 21.0255 16.6819 21.0958Z" fill="#CEBBA1"/>
<path d="M16.0561 53.9092H8.18066C8.83231 58.8459 8.67526 57.6407 8.6987 57.8884C8.8203 59.1758 9.99554 60.5267 12.0697 60.5267C14.1439 60.5267 15.1138 59.2434 15.4671 58.1753C15.521 58.0127 15.5735 57.5661 16.0561 53.9092Z" fill="#31343F"/>
<path d="M12.8575 62.228C12.4986 62.4351 11.9155 62.4345 11.5548 62.2268C11.1941 62.0189 11.1924 61.6826 11.5513 61.4752C11.9102 61.2681 12.4933 61.2687 12.854 61.4767C13.2147 61.6843 13.2165 62.0209 12.8575 62.228Z" fill="#31343F"/>
<path d="M13.1232 61.8295H11.2834L11.0918 58.6162H13.3148L13.1232 61.8295Z" fill="#31343F"/>
<path d="M17.608 72.4969C16.9103 72.4969 16.2062 72.3118 15.5391 71.9404C12.9723 70.5117 11.5492 66.8232 11.6345 61.8201L12.7731 61.8394C12.6963 66.3427 13.9378 69.7478 16.0934 70.9477C17.1128 71.5148 18.2459 71.4891 19.2025 70.8761C20.7982 69.8539 21.6148 67.5195 21.3863 64.6312C21.2536 62.9516 20.8539 61.3703 20.4677 59.8413C19.4741 55.9089 18.5356 52.1949 23.2741 49.168L23.888 50.1255C19.8404 52.7111 20.5668 55.5851 21.5718 59.5634C21.9697 61.1381 22.381 62.7668 22.5217 64.542C22.7836 67.8553 21.7728 70.5807 19.8175 71.833C19.1269 72.2749 18.3713 72.4966 17.608 72.4969Z" fill="#31343F"/>
<path d="M12.3792 60.4748C12.0399 60.5096 11.7648 60.5201 11.3848 60.4414C11.3892 60.5145 11.4495 61.7841 11.4861 61.8473C11.618 62.0751 12.1085 62.1599 12.3042 62.0178C12.439 61.9403 12.3792 60.4748 12.3792 60.4748Z" fill="#3F434F"/>
<path d="M13.8548 55.6143H8.87842C9.29009 58.7339 9.19106 57.9721 9.20571 58.1285C9.28247 58.9419 10.0252 59.7956 11.3359 59.7956C12.6465 59.7956 13.2594 58.9846 13.4827 58.3096C13.5167 58.2072 13.5498 57.925 13.8548 55.6143Z" fill="#3F434F"/>
<path d="M16.188 53.945C13.9504 55.2345 10.3112 55.228 8.05948 53.9304C5.80774 52.6328 5.7966 50.5355 8.03399 49.2461C10.2717 47.9566 13.9108 47.963 16.1625 49.2607C18.4143 50.5583 18.4254 52.6556 16.188 53.945Z" fill="#3F434F"/>
<path d="M16.1883 53.6739C13.9506 54.9634 10.3115 54.957 8.05972 53.6593C6.98586 53.0405 6.42299 52.2397 6.36908 51.4316C6.30227 52.3295 6.86602 53.242 8.05972 53.9298C10.3115 55.2275 13.9506 55.2339 16.1883 53.9445C17.3588 53.2698 17.9126 52.3742 17.8534 51.4878C17.7942 52.2839 17.2396 53.0682 16.1883 53.6739Z" fill="#7C8189"/>
<path opacity="0.1" d="M7.93102 53.8516L16.0241 49.1878C13.7642 47.9659 10.2276 47.9814 8.03416 49.2454C5.84072 50.5094 5.80995 52.5493 7.93102 53.8516Z" fill="white"/>
<path d="M10.4077 52.0438C10.0183 52.2681 9.38513 52.2669 8.99338 52.0412C8.60163 51.8154 8.59958 51.4504 8.98898 51.2261C9.37839 51.0017 10.0116 51.0029 10.4033 51.2287C10.7951 51.4545 10.7971 51.8195 10.4077 52.0438Z" fill="#343742"/>
<path d="M10.5276 51.5111V46.319C10.5276 46.317 10.5276 46.315 10.5276 46.3132V46.3068H10.5265C10.5136 45.981 10.2115 45.4785 9.69552 45.4785C9.17953 45.4785 8.8751 45.9804 8.86924 46.3068H8.86865V46.3103C8.86865 46.3123 8.86865 46.3141 8.86865 46.3161V51.5532H8.86982C8.86396 51.681 8.94396 51.8103 9.1139 51.9082C9.44119 52.0969 9.96977 52.0978 10.295 51.9103C10.4837 51.8012 10.5124 51.6845 10.5276 51.5111Z" fill="#B0B7C9"/>
<path d="M10.527 51.5111V46.319C10.527 46.317 10.527 46.315 10.527 46.3132V46.3068H10.5259C10.513 45.981 10.2109 45.4785 9.69491 45.4785C9.64041 45.4785 9.58855 45.4852 9.53874 45.4958C9.95891 45.5841 10.2024 46.0158 10.2138 46.3071H10.215V46.3135C10.215 46.3155 10.215 46.3176 10.215 46.3193V51.3379C10.2086 51.5219 10.171 51.757 9.98235 51.8658C9.71367 52.0208 9.35063 52.0039 8.98877 51.8138C9.02334 51.8471 9.06319 51.8793 9.1133 51.9082C9.44058 52.0969 9.96917 52.0978 10.2944 51.9103C10.4831 51.8012 10.5347 51.6693 10.527 51.5111Z" fill="#868B9B"/>
<path d="M9.03038 46.0871C8.99728 45.9669 9.2935 45.582 9.49656 45.582C9.65039 45.5917 9.77608 45.8806 9.75587 46.0865C9.7295 46.3611 9.11038 46.3781 9.03038 46.0871Z" fill="#DAE2F2"/>
<path d="M9.07109 46.3594C9.07109 46.3594 9.0708 51.5812 9.0708 51.7099C9.3014 51.9196 9.77577 51.8585 9.77577 51.8585V46.4793C9.52964 46.5056 9.26711 46.465 9.07109 46.3594Z" fill="#DAE2F2"/>
<path d="M9.8457 46.1195C9.8457 45.6748 10.1261 46.0214 10.1261 46.184C10.1261 46.3718 9.8457 46.2989 9.8457 46.1195Z" fill="#DAE2F2"/>
<path d="M15.2334 52.0438C14.844 52.2681 14.2108 52.2669 13.8191 52.0412C13.4273 51.8154 13.4253 51.4504 13.8147 51.2261C14.2041 51.0017 14.8373 51.0029 15.229 51.2287C15.6207 51.4545 15.6225 51.8195 15.2334 52.0438Z" fill="#343742"/>
<path d="M15.3533 51.5111V46.319C15.3533 46.317 15.3533 46.315 15.3533 46.3132V46.3068H15.3522C15.3393 45.981 15.0372 45.4785 14.5212 45.4785C14.0052 45.4785 13.7008 45.9804 13.6949 46.3068H13.6943V46.3103C13.6943 46.3123 13.6943 46.3141 13.6943 46.3161V51.5532H13.6955C13.6896 51.681 13.7696 51.8103 13.9396 51.9082C14.2669 52.0969 14.7954 52.0978 15.1207 51.9103C15.3094 51.8012 15.3381 51.6845 15.3533 51.5111Z" fill="#B0B7C9"/>
<path d="M15.3534 51.5111V46.319C15.3534 46.317 15.3534 46.315 15.3534 46.3132V46.3068H15.3522C15.3394 45.981 15.0373 45.4785 14.5213 45.4785C14.4668 45.4785 14.4149 45.4852 14.3654 45.4958C14.7856 45.5841 15.0291 46.0158 15.0405 46.3071H15.0417V46.3135C15.0417 46.3155 15.0417 46.3176 15.0417 46.3193V51.3379C15.0352 51.5219 14.9977 51.757 14.809 51.8658C14.5403 52.0208 14.1773 52.0039 13.8154 51.8138C13.85 51.8471 13.8899 51.8793 13.94 51.9082C14.2672 52.0969 14.7958 52.0978 15.1211 51.9103C15.3095 51.8012 15.361 51.6693 15.3534 51.5111Z" fill="#868B9B"/>
<path d="M13.8556 46.0871C13.8225 45.9669 14.1187 45.582 14.3218 45.582C14.4756 45.5917 14.601 45.8806 14.5811 46.0865C14.5547 46.3611 13.9356 46.3781 13.8556 46.0871Z" fill="#DAE2F2"/>
<path d="M13.8968 46.3594C13.8968 46.3594 13.8965 51.5812 13.8965 51.7099C14.1271 51.9196 14.6015 51.8585 14.6015 51.8585V46.4793C14.3556 46.5056 14.0931 46.465 13.8968 46.3594Z" fill="#DAE2F2"/>
<path d="M14.6709 46.1195C14.6709 45.6748 14.9513 46.0214 14.9513 46.184C14.9513 46.3718 14.6709 46.2989 14.6709 46.1195Z" fill="#DAE2F2"/>
<path d="M17.8505 51.7853C17.781 52.572 17.2276 53.3456 16.188 53.9449C13.9503 55.2343 10.3112 55.2279 8.05942 53.9302C6.9668 53.3006 6.40335 52.4826 6.36672 51.6602V53.2193C6.36409 53.2769 6.36409 53.3345 6.36672 53.3921V53.5187H6.3761C6.46224 54.2981 7.02276 55.0647 8.05912 55.6622C10.3109 56.9598 13.95 56.9663 16.1877 55.6768C17.2267 55.0781 17.7802 54.3049 17.8502 53.5187H17.8505V53.5173C17.8607 53.4026 17.861 53.2877 17.8505 53.1731V51.7853Z" fill="#343742"/>
<path d="M14.1448 54.6979C12.1023 55.1351 9.7093 54.8807 8.05968 53.9299C8.02628 53.9106 7.99493 53.8907 7.9624 53.8711V55.6033C7.99493 55.6229 8.02628 55.6428 8.05968 55.6621C9.7093 56.6129 12.1026 56.8673 14.1448 56.4301V54.6979Z" fill="#454A56"/>
<path d="M17.8507 53.3546V53.3561H17.8504C17.7803 54.1422 17.2272 54.9152 16.1879 55.5141C13.9502 56.8036 10.3111 56.7972 8.05931 55.4995C7.02294 54.9023 6.46242 54.1355 6.37628 53.3561H6.36691C6.3672 53.3681 6.36632 53.3798 6.36691 53.3918V53.5184H6.37628C6.46242 54.2978 7.02294 55.0643 8.05931 55.6618C10.3111 56.9595 13.9502 56.9659 16.1879 55.6765C17.2269 55.0778 17.7803 54.3045 17.8504 53.5184H17.8507V53.5169C17.858 53.4327 17.8583 53.3482 17.8548 53.2637C17.8533 53.2938 17.8533 53.3242 17.8507 53.3546Z" fill="#2C2F38"/>
<path d="M11.813 63.2061C11.813 63.2061 12.1385 63.2874 12.3553 63.2874C12.3553 63.2874 12.2469 64.857 12.762 66.6705C13.5347 69.3904 15.1348 71.1633 15.0941 71.2446C14.9449 71.3528 12.0436 68.7005 11.813 63.2061Z" fill="#454A56"/>
<path d="M20.0421 57.1973C20.0421 57.1973 19.5405 55.2486 19.9337 53.5298C20.3269 51.8113 21.52 50.7152 21.5742 50.7286C21.6284 50.7421 20.4895 52.136 20.232 53.6246C19.8578 55.7864 20.2162 57.1745 20.0421 57.1973Z" fill="#4E5460"/>
<path d="M59.4143 72.7272L34.8871 72.6138C31.9369 72.6005 29.5569 70.1839 29.5679 67.2159L29.8287 5.35349C29.8419 2.38331 32.2441 -0.0132837 35.1964 5.54136e-05L59.7237 0.113438C62.6739 0.126777 65.0539 2.54338 65.0428 5.51134L64.7821 67.3738C64.771 70.344 62.3667 72.7406 59.4143 72.7272Z" fill="#3629B7"/>
<path d="M59.6881 2.24943L54.9325 2.2272C54.2938 2.22498 53.7745 2.76521 53.7723 3.43661L53.7679 4.30366C53.7657 4.97506 53.2463 5.51529 52.6077 5.51307L43.3373 5.47083C42.6987 5.46861 42.186 4.9217 42.1882 4.2503L42.1926 3.38326C42.1948 2.71185 41.6799 2.16717 41.0435 2.16273L39.3706 2.15383L35.2094 2.13382C33.1432 2.12493 31.4593 3.80344 31.4505 5.88212L31.1963 66.2639C31.1875 68.3426 32.8537 70.0345 34.9199 70.0433L59.3986 70.1567C61.4648 70.1656 63.1487 68.4871 63.1576 66.4084L63.4117 6.02663C63.4228 3.95017 61.7543 2.25832 59.6881 2.24943Z" fill="white"/>
<rect x="33.5269" y="15.7432" width="28.0394" height="3.4984" rx="1.7492" fill="#5655B9"/>
<rect x="36.1553" y="16.6182" width="23.6583" height="1.7492" rx="0.874601" fill="#3629B7"/>
<path d="M55.3847 17.4922H54.0324H38.8915C37.0467 17.4922 35.5507 18.43 35.5288 19.5918C35.5288 19.6003 35.5269 19.6085 35.5269 19.617C35.5269 19.6256 35.5288 19.6337 35.5288 19.6423V54.0335H48.5291C49.2642 54.488 50.2694 54.769 51.3793 54.769C52.4893 54.769 53.4942 54.488 54.2296 54.0335C55.3099 53.3655 55.3847 52.6186 55.3847 51.7239L55.4559 19.617C55.4559 18.4435 56.9622 17.4922 58.8205 17.4922H55.3847Z" fill="#FFAF2A"/>
<path d="M53.5926 25.9561H37.2773V26.3282H53.5926V25.9561Z" fill="#D2CFCA"/>
<path d="M53.5926 28.1348H37.2773V28.5069H53.5926V28.1348Z" fill="#D2CFCA"/>
<path d="M53.5926 30.3125H37.2773V30.6846H53.5926V30.3125Z" fill="#D2CFCA"/>
<path d="M53.5926 32.4893H37.2773V32.8614H53.5926V32.4893Z" fill="#D2CFCA"/>
<path d="M53.5926 34.667H37.2773V35.0391H53.5926V34.667Z" fill="#D2CFCA"/>
<path d="M53.5926 36.8457H37.2773V37.2178H53.5926V36.8457Z" fill="#D2CFCA"/>
<path d="M53.5926 39.3115H37.2773V39.6837H53.5926V39.3115Z" fill="#D2CFCA"/>
<path d="M53.5926 41.7773H37.2773V42.1495H53.5926V41.7773Z" fill="#D2CFCA"/>
<path d="M53.5926 44.2432H37.2773V44.6153H53.5926V44.2432Z" fill="#D2CFCA"/>
<path d="M53.5926 23.5645H37.2773V23.9366H53.5926V23.5645Z" fill="#D2CFCA"/>
<g filter="url(#filter0_d_295_37220)">
<path d="M48.1781 51.6477C48.1781 51.3478 48.2331 51.0585 48.3287 50.7832H48.1781L33.5278 52.6141L34.2865 53.4543C35.0794 54.3323 36.346 54.8518 37.694 54.8518H52.1562C49.9592 54.8518 48.1781 53.4173 48.1781 51.6477Z" fill="#3629B7"/>
</g>
<rect x="33.5269" y="60.3477" width="27.1632" height="6.99681" rx="3.4984" fill="#FFAF2A"/>
<path d="M43.985 64.6747V65.7227H43.421V62.8987H44.449C44.7824 62.8987 45.033 62.9787 45.201 63.1387C45.3717 63.2987 45.457 63.516 45.457 63.7907C45.457 64.06 45.369 64.2747 45.193 64.4347C45.0197 64.5947 44.7717 64.6747 44.449 64.6747H43.985ZM44.389 64.2227C44.7197 64.2227 44.885 64.0787 44.885 63.7907C44.885 63.6493 44.8464 63.5413 44.769 63.4667C44.6917 63.392 44.565 63.3547 44.389 63.3547H43.985V64.2227H44.389ZM46.6914 63.4787C46.878 63.4787 47.038 63.5227 47.1714 63.6107C47.3047 63.6987 47.3994 63.8173 47.4554 63.9667V63.5067H48.0154V65.7227H47.4554V65.2587C47.3994 65.408 47.3047 65.528 47.1714 65.6187C47.038 65.7067 46.878 65.7507 46.6914 65.7507C46.5047 65.7507 46.3367 65.7053 46.1874 65.6147C46.038 65.524 45.9207 65.3933 45.8354 65.2227C45.7527 65.0493 45.7114 64.8467 45.7114 64.6147C45.7114 64.3827 45.7527 64.1813 45.8354 64.0107C45.9207 63.8373 46.038 63.7053 46.1874 63.6147C46.3367 63.524 46.5047 63.4787 46.6914 63.4787ZM46.8674 63.9707C46.6914 63.9707 46.55 64.028 46.4434 64.1427C46.3367 64.2573 46.2834 64.4147 46.2834 64.6147C46.2834 64.8147 46.3367 64.972 46.4434 65.0867C46.55 65.1987 46.6914 65.2547 46.8674 65.2547C47.038 65.2547 47.178 65.1973 47.2874 65.0827C47.3994 64.9653 47.4554 64.8093 47.4554 64.6147C47.4554 64.4173 47.3994 64.2613 47.2874 64.1467C47.178 64.0293 47.038 63.9707 46.8674 63.9707ZM48.9065 63.5067L49.5105 65.0107L50.0705 63.5067H50.6905L49.3345 66.7787H48.7105L49.2105 65.6587L48.2785 63.5067H48.9065Z" fill="white"/>
<g clip-path="url(#clip0_295_37220)">
<path d="M79.0911 49.0479C79.0911 44.1792 75.167 40.2324 70.3293 40.2324C65.4898 40.2324 61.5664 44.1792 61.5664 49.0479C61.5664 50.4832 61.9103 51.8359 62.5151 53.0343H62.512C62.512 53.0343 62.5171 53.0418 62.5241 53.0523C62.6771 53.3522 62.8441 53.6434 63.0291 53.9222C63.6244 55.0326 64.5242 57.0115 64.5242 58.8545C64.5242 61.6089 67.8642 64.97 67.8642 64.97H70.3293H72.7937C72.7937 64.97 76.1328 61.6089 76.1328 58.8545C76.1328 57.0115 77.0331 55.0326 77.6279 53.9222C77.8136 53.6434 77.9806 53.3522 78.1326 53.0523C78.1405 53.0418 78.1452 53.0343 78.1452 53.0343H78.1429C78.7472 51.8359 79.0911 50.483 79.0911 49.0479Z" fill="#F2A320"/>
<path d="M62.0796 49.0491C62.0796 50.3665 62.3798 51.6289 62.9722 52.8017C62.9808 52.8179 63.457 53.6373 63.457 53.6373L63.4816 53.6775C64.1913 55.001 65.0381 56.9727 65.0381 58.8559C65.0381 61.0507 67.4601 63.7873 68.0833 64.4532C68.4465 64.4532 72.2101 64.4532 72.5742 64.4532C73.1964 63.7873 75.6194 61.0507 75.6194 58.8559C75.6194 56.9729 76.4658 55.001 77.1761 53.6775L77.2003 53.6373L77.676 52.8181C78.2768 51.6291 78.5763 50.3665 78.5763 49.0493C78.5763 44.4735 74.8768 40.751 70.3291 40.751C65.7805 40.7505 62.0796 44.4732 62.0796 49.0491Z" fill="url(#paint0_radial_295_37220)"/>
<path d="M73.8242 55.1586L73.5994 55.8393L73.5873 55.8742C73.2485 56.9747 72.8467 58.6121 72.8467 60.1768C72.8467 62.0027 71.6932 64.2778 71.3968 64.8307C71.2233 64.8307 69.4332 64.8307 69.2612 64.8307C68.964 64.278 67.811 62.0027 67.811 60.1768C67.811 58.6121 67.409 56.9747 67.0709 55.8742L67.0584 55.8393C67.0584 55.8393 66.833 55.1586 66.8284 55.1453C66.6126 54.3982 66.4799 53.6069 66.4287 52.7851C66.4129 53.0331 66.4043 53.2859 66.4043 53.5409C66.4043 54.637 66.5473 55.6859 66.8284 56.6613C66.833 56.6753 67.0584 57.3572 67.0584 57.3572L67.0709 57.3902C67.4087 58.4907 67.811 60.1298 67.811 61.6944C67.811 63.5203 68.964 65.794 69.2612 66.3484C69.433 66.3484 71.2231 66.3484 71.3968 66.3484C71.6932 65.794 72.8467 63.5203 72.8467 61.6944C72.8467 60.13 73.2483 58.4907 73.5873 57.3902L73.5994 57.3572L73.8242 56.6753C74.11 55.6861 74.2527 54.6372 74.2527 53.5411C74.2527 53.2859 74.2446 53.0333 74.2286 52.7842C74.1781 53.6066 74.0437 54.4003 73.8242 55.1586Z" fill="url(#paint1_linear_295_37220)"/>
<path d="M65.8181 43.5187C65.577 43.2759 65.0643 43.3971 64.6747 43.7894C64.2843 44.1812 64.1634 44.6969 64.4059 44.9402C64.6474 45.1828 65.1587 45.0614 65.5494 44.6691C65.9391 44.2761 66.0597 43.7611 65.8181 43.5187Z" fill="url(#paint2_radial_295_37220)"/>
<path d="M63.6986 45.6525C63.5519 45.5047 63.2419 45.578 63.0043 45.816C62.7683 46.0551 62.6951 46.3672 62.8418 46.5154C62.989 46.6623 63.2989 46.5885 63.5354 46.3508C63.7707 46.1124 63.8448 45.8 63.6986 45.6525Z" fill="url(#paint3_radial_295_37220)"/>
<path d="M66.2218 62.2923L74.6894 63.3489C74.9312 63.3804 75.1082 63.6188 75.1082 63.8986C75.1082 63.9264 75.107 63.9535 75.1033 63.98L75.0668 64.2826C75.0463 64.4506 74.9668 64.6001 74.8466 64.6953C74.7485 64.7732 74.631 64.8076 74.5139 64.7933L66.0474 63.7365C65.781 63.7035 65.5945 63.4197 65.6317 63.1047L65.6677 62.8029C65.6884 62.6361 65.7689 62.4862 65.8881 62.391C65.9865 62.3126 66.1048 62.2778 66.2218 62.2923Z" fill="#808184"/>
<path d="M66.189 64.0012L74.6566 65.0592C74.8998 65.0898 75.0753 65.3275 75.0753 65.6084C75.0753 65.636 75.0742 65.662 75.0704 65.6896L75.0339 65.9925C75.0135 66.1586 74.9337 66.3097 74.8137 66.4049C74.7156 66.4828 74.5982 66.5162 74.4817 66.5029L66.0146 65.4454C65.7479 65.4115 65.5616 65.1284 65.5984 64.8143L65.6363 64.5114C65.6739 64.1979 65.9223 63.9682 66.189 64.0012Z" fill="#808184"/>
<path d="M66.1376 65.7662L74.6057 66.823C74.8489 66.853 75.0258 67.0918 75.0258 67.3722C75.0258 67.3987 75.0244 67.4258 75.0209 67.4541L74.9837 67.7566C74.964 67.9233 74.8844 68.0728 74.7642 68.168C74.6661 68.2461 74.5473 68.2819 74.4313 68.267L65.9651 67.2101C65.6972 67.1765 65.5121 66.8939 65.5498 66.579L65.5861 66.2757C65.6065 66.1089 65.6863 65.9587 65.8065 65.8637C65.9046 65.7856 66.0218 65.751 66.1376 65.7662Z" fill="#808184"/>
<path d="M71.7162 69.7078C71.7162 70.1265 71.0933 70.4662 70.3288 70.4662C69.5633 70.4662 68.9404 70.1265 68.9404 69.7078C68.9404 69.2901 69.5633 68.9502 70.3288 68.9502C71.0933 68.9504 71.7162 69.2901 71.7162 69.7078Z" fill="#808184"/>
<path d="M69.0151 69.7074C69.0151 70.0917 69.6041 70.4021 70.3293 70.4021C71.0538 70.4021 71.6414 70.0917 71.6414 69.7074C71.6414 69.324 71.0538 69.0127 70.3293 69.0127C69.6041 69.0129 69.0151 69.3243 69.0151 69.7074Z" fill="#6D6E70"/>
<path d="M74.0527 67.5009C74.0527 68.8566 72.3822 69.9598 70.3291 69.9598C68.2746 69.9598 66.604 68.8566 66.604 67.5009C66.604 66.1446 68.2744 65.041 70.3291 65.041C72.3822 65.0412 74.0527 66.1446 74.0527 67.5009Z" fill="#808184"/>
<path d="M74.088 62.0586C74.3571 62.0586 74.5761 62.2813 74.5761 62.5545V68.0398C74.5761 68.3127 74.3573 68.5354 74.088 68.5354H66.5693C66.3005 68.5354 66.0806 68.313 66.0806 68.0398V62.5545C66.0806 62.281 66.3003 62.0586 66.5693 62.0586H74.088Z" fill="#808184"/>
<path d="M66.2819 62.0586H74.5761V64.0382H66.0806V62.0586H66.2819Z" fill="#808184"/>
<path d="M66.8052 67.5013C66.8052 68.7461 68.3823 69.7571 70.3289 69.7571C72.2745 69.7571 73.8517 68.7464 73.8517 67.5013C73.8517 66.2557 72.2745 65.2461 70.3289 65.2461C68.3823 65.2463 66.8052 66.2557 66.8052 67.5013Z" fill="url(#paint4_radial_295_37220)"/>
<path d="M66.2822 68.0399C66.2822 68.1999 66.4117 68.3318 66.5694 68.3318H74.0883C74.2458 68.3318 74.375 68.2001 74.375 68.0399V62.5546C74.375 62.3944 74.2455 62.2627 74.0883 62.2627H66.5696C66.4117 62.2627 66.2825 62.3942 66.2825 62.5546V68.0399H66.2822Z" fill="url(#paint5_linear_295_37220)"/>
<path d="M74.3753 62.2627H66.2822V63.8348H74.3753V62.2627Z" fill="url(#paint6_linear_295_37220)"/>
<path d="M65.8679 62.9573C65.8923 62.7555 66.0393 62.6055 66.1976 62.6247L74.6636 63.6815C74.8201 63.7007 74.9291 63.8825 74.9047 64.085L74.8671 64.3884C74.8429 64.591 74.695 64.7405 74.5385 64.7203L66.0716 63.6637C65.9149 63.6436 65.8063 63.4626 65.8312 63.26L65.8679 62.9573Z" fill="#898B8D"/>
<path d="M65.8355 64.6661C65.8602 64.4647 66.0085 64.3143 66.1652 64.3337L74.6328 65.3917C74.7884 65.4109 74.8967 65.5919 74.8707 65.795L74.8361 66.097C74.8107 66.2993 74.6626 66.4497 74.5061 66.4296L66.0392 65.3728C65.8825 65.3524 65.7746 65.1714 65.7988 64.97L65.8355 64.6661Z" fill="#898B8D"/>
<path d="M65.7857 66.429C65.8099 66.2271 65.9578 66.0772 66.1133 66.0964L74.5809 67.1546C74.7376 67.1738 74.8448 67.3555 74.8206 67.5581L74.7846 67.8615C74.7602 68.0641 74.6125 68.2119 74.4554 68.1927L65.9889 67.1359C65.831 67.1167 65.7239 66.935 65.748 66.7326L65.7857 66.429Z" fill="#898B8D"/>
<path d="M65.7328 62.8274C65.7565 62.6251 65.9049 62.4756 66.0614 62.4948L74.529 63.5516C74.6857 63.5718 74.7929 63.754 74.7687 63.9561L74.7322 64.2585C74.708 64.4609 74.559 64.6103 74.4029 64.5912L65.9353 63.5343C65.7788 63.5138 65.6714 63.3329 65.6958 63.1304L65.7328 62.8274Z" fill="url(#paint7_linear_295_37220)"/>
<path d="M65.6999 64.5365C65.7245 64.3342 65.8719 64.1842 66.0284 64.2039L74.496 65.2619C74.6527 65.2808 74.7613 65.4626 74.7357 65.6651L74.6997 65.9678C74.6753 66.1704 74.5272 66.3192 74.3711 66.2995L65.904 65.2429C65.7475 65.2228 65.6385 65.0418 65.6638 64.8392L65.6999 64.5365Z" fill="url(#paint8_linear_295_37220)"/>
<path d="M65.6494 66.3007C65.6736 66.0972 65.8226 65.9487 65.9787 65.9686L74.4449 67.0254C74.6011 67.0446 74.7102 67.2263 74.6853 67.4282L74.6497 67.7323C74.6241 67.9342 74.4767 68.0836 74.3205 68.0649L65.8526 67.0074C65.6964 66.9873 65.5887 66.8055 65.6134 66.603L65.6494 66.3007Z" fill="url(#paint9_linear_295_37220)"/>
<path d="M71.4486 51.0875C71.4486 51.0875 71.2389 51.2988 71.0301 51.5081C71.0301 51.4239 71.0301 51.2843 71.0301 51.2843L70.5034 51.1734C70.4904 51.2033 70.1788 51.8997 69.4885 51.8997C69.4404 51.8997 69.4125 51.8945 69.3869 51.891C69.4264 51.7893 69.5504 51.6141 69.6834 51.4787L69.2939 51.0873C69.2939 51.0873 68.8923 51.4929 68.6647 51.7212C68.5426 51.5972 68.2211 51.2754 68.2211 51.2754C68.2211 51.2754 67.7268 51.7727 67.5249 51.9757C67.4026 51.8529 66.8065 51.2534 66.8065 51.2534C66.8065 51.2534 66.8065 52.222 66.8065 52.4475C66.6137 52.4765 66.3266 52.521 66.3266 52.521L65.663 52.9652C65.5825 53.0176 65.5391 53.1055 65.5391 53.1958C65.5391 53.248 65.5549 53.3008 65.5856 53.3481C65.6702 53.4746 65.8409 53.5102 65.9669 53.4248C65.9669 53.4248 66.444 53.1055 66.5293 53.0482C66.6281 53.0337 67.3564 52.9231 67.3564 52.9231C67.3564 52.9231 67.3564 52.6099 67.3564 52.5876C67.3954 52.6269 67.5252 52.757 67.5252 52.757C67.5252 52.757 68.02 52.2599 68.2213 52.0567C68.345 52.1799 68.665 52.5025 68.665 52.5025C68.665 52.5025 68.9144 52.2529 68.9226 52.2435C69.0128 52.3537 69.18 52.4517 69.4887 52.4517C69.9177 52.4517 70.2416 52.2828 70.4809 52.0812C70.4809 52.0992 70.4809 52.8424 70.4809 52.8424C70.4809 52.8424 71.1607 52.1598 71.3674 51.9505C71.3674 52.1844 71.3674 53.0973 71.3674 53.0973C71.3674 53.0973 72.0389 52.4232 72.2217 52.2396C72.3205 52.4054 72.6021 52.8772 72.6021 52.8772C72.6021 52.8772 72.8832 52.593 72.8881 52.5881C72.8881 52.633 72.8881 52.782 72.8881 52.782C72.8881 52.782 73.6893 52.9528 73.9611 53.0101C73.9681 53.2311 73.9874 53.8178 73.9874 53.8178H74.8102C74.9616 53.8178 75.0855 53.6947 75.0855 53.5408C75.0855 53.3886 74.9618 53.2648 74.8102 53.2648C74.8102 53.2648 74.6651 53.2648 74.5191 53.2648C74.5122 53.0417 74.4963 52.5589 74.4963 52.5589C74.4963 52.5589 73.7132 52.3933 73.4373 52.3341C73.4373 52.146 73.4373 51.2539 73.4373 51.2539C73.4373 51.2539 72.8392 51.8555 72.7107 51.9848C72.6109 51.8188 72.33 51.3474 72.33 51.3474C72.33 51.3474 71.9801 51.6992 71.9171 51.7631C71.9171 51.5306 71.9171 50.6162 71.9171 50.6162L71.4486 51.0875Z" fill="#FFFACF"/>
<path d="M75.835 45.9049C75.1188 47.1512 73.4994 47.1061 71.9755 46.2216C70.453 45.3365 69.6039 43.9473 70.3191 42.7008C71.0352 41.4524 72.6935 41.4315 74.2179 42.3153C75.7403 43.2004 76.5509 44.6572 75.835 45.9049Z" fill="url(#paint10_radial_295_37220)"/>
</g>
<defs>
<filter id="filter0_d_295_37220" x="3.52783" y="25.7832" width="78.6284" height="64.0684" filterUnits="userSpaceOnUse" color-interpolation-filters="sRGB">
<feFlood flood-opacity="0" result="BackgroundImageFix"/>
<feColorMatrix in="SourceAlpha" type="matrix" values="0 0 0 0 0 0 0 0 0 0 0 0 0 0 0 0 0 0 127 0" result="hardAlpha"/>
<feOffset dy="5"/>
<feGaussianBlur stdDeviation="15"/>
<feColorMatrix type="matrix" values="0 0 0 0 0 0 0 0 0 0 0 0 0 0 0 0 0 0 0.05 0"/>
<feBlend mode="normal" in2="BackgroundImageFix" result="effect1_dropShadow_295_37220"/>
<feBlend mode="normal" in="SourceGraphic" in2="effect1_dropShadow_295_37220" result="shape"/>
</filter>
<radialGradient id="paint0_radial_295_37220" cx="0" cy="0" r="1" gradientUnits="userSpaceOnUse" gradientTransform="translate(70.6864 52.1777) scale(11.9362 12.0082)">
<stop stop-color="#F4E589"/>
<stop offset="0.1637" stop-color="#F5E181"/>
<stop offset="0.4153" stop-color="#F6D76C"/>
<stop offset="0.7216" stop-color="#F9C749"/>
<stop offset="1" stop-color="#FCB623"/>
</radialGradient>
<linearGradient id="paint1_linear_295_37220" x1="70.3285" y1="52.935" x2="70.3285" y2="62.4963" gradientUnits="userSpaceOnUse">
<stop stop-color="#FFF696"/>
<stop offset="0.0338" stop-color="#FDF290"/>
<stop offset="0.346" stop-color="#EDCF61"/>
<stop offset="0.6223" stop-color="#E1B53F"/>
<stop offset="0.8497" stop-color="#DAA62B"/>
<stop offset="1" stop-color="#D7A023"/>
</linearGradient>
<radialGradient id="paint2_radial_295_37220" cx="0" cy="0" r="1" gradientUnits="userSpaceOnUse" gradientTransform="translate(65.3756 44.4765) scale(0.808993 0.813871)">
<stop stop-color="#F4E589"/>
<stop offset="0.2013" stop-color="#F5E791"/>
<stop offset="0.5107" stop-color="#F8EBA6"/>
<stop offset="0.8878" stop-color="#FDF3C9"/>
<stop offset="1" stop-color="#FFF5D5"/>
</radialGradient>
<radialGradient id="paint3_radial_295_37220" cx="0" cy="0" r="1" gradientUnits="userSpaceOnUse" gradientTransform="translate(63.5333 46.3313) scale(0.490246 0.493755)">
<stop stop-color="#F4E589"/>
<stop offset="0.2013" stop-color="#F5E791"/>
<stop offset="0.5107" stop-color="#F8EBA6"/>
<stop offset="0.8878" stop-color="#FDF3C9"/>
<stop offset="1" stop-color="#FFF5D5"/>
</radialGradient>
<radialGradient id="paint4_radial_295_37220" cx="0" cy="0" r="1" gradientUnits="userSpaceOnUse" gradientTransform="translate(70.2913 67.7256) rotate(180) scale(3.52414 2.25616)">
<stop stop-color="white"/>
<stop offset="0.9718" stop-color="#838587"/>
</radialGradient>
<linearGradient id="paint5_linear_295_37220" x1="65.9523" y1="65.2972" x2="74.0452" y2="65.2972" gradientUnits="userSpaceOnUse">
<stop offset="0.0057" stop-color="#48484A"/>
<stop offset="0.2768" stop-color="white"/>
<stop offset="0.3245" stop-color="#EFEFF0"/>
<stop offset="0.4864" stop-color="#BFBFC1"/>
<stop offset="0.64" stop-color="#99999B"/>
<stop offset="0.7812" stop-color="#7D7E81"/>
<stop offset="0.9056" stop-color="#6D6E71"/>
<stop offset="1" stop-color="#67686B"/>
</linearGradient>
<linearGradient id="paint6_linear_295_37220" x1="65.9523" y1="63.0488" x2="74.0452" y2="63.0488" gradientUnits="userSpaceOnUse">
<stop offset="0.0057" stop-color="#48484A"/>
<stop offset="0.2768" stop-color="white"/>
<stop offset="0.3245" stop-color="#EFEFF0"/>
<stop offset="0.4864" stop-color="#BFBFC1"/>
<stop offset="0.64" stop-color="#99999B"/>
<stop offset="0.7812" stop-color="#7D7E81"/>
<stop offset="0.9056" stop-color="#6D6E71"/>
<stop offset="1" stop-color="#67686B"/>
</linearGradient>
<linearGradient id="paint7_linear_295_37220" x1="75.0556" y1="63.543" x2="65.5299" y2="63.543" gradientUnits="userSpaceOnUse">
<stop offset="0.096" stop-color="white"/>
<stop offset="0.1808" stop-color="#A6A8AB"/>
<stop offset="0.3107" stop-color="white"/>
<stop offset="0.3729" stop-color="#9C9EA1"/>
<stop offset="0.6949" stop-color="#DBDCDD"/>
<stop offset="0.9831" stop-color="#9C9EA1"/>
</linearGradient>
<linearGradient id="paint8_linear_295_37220" x1="75.0236" y1="65.2518" x2="65.498" y2="65.2518" gradientUnits="userSpaceOnUse">
<stop offset="0.096" stop-color="white"/>
<stop offset="0.1808" stop-color="#A6A8AB"/>
<stop offset="0.3107" stop-color="white"/>
<stop offset="0.3729" stop-color="#9C9EA1"/>
<stop offset="0.6949" stop-color="#DBDCDD"/>
<stop offset="0.9831" stop-color="#9C9EA1"/>
</linearGradient>
<linearGradient id="paint9_linear_295_37220" x1="74.9733" y1="67.0167" x2="65.4476" y2="67.0167" gradientUnits="userSpaceOnUse">
<stop offset="0.096" stop-color="white"/>
<stop offset="0.1808" stop-color="#A6A8AB"/>
<stop offset="0.3107" stop-color="white"/>
<stop offset="0.3729" stop-color="#9C9EA1"/>
<stop offset="0.6949" stop-color="#DBDCDD"/>
<stop offset="0.9831" stop-color="#9C9EA1"/>
</linearGradient>
<radialGradient id="paint10_radial_295_37220" cx="0" cy="0" r="1" gradientUnits="userSpaceOnUse" gradientTransform="translate(71.1058 45.6275) scale(4.86172 4.89104)">
<stop stop-color="#F4E589"/>
<stop offset="0.2013" stop-color="#F5E791"/>
<stop offset="0.5107" stop-color="#F8EBA6"/>
<stop offset="0.8878" stop-color="#FDF3C9"/>
<stop offset="1" stop-color="#FFF5D5"/>
</radialGradient>
<clipPath id="clip0_295_37220">
<rect width="17.5246" height="32.0343" fill="white" transform="translate(61.5664 40.2324)"/>
</clipPath>
</defs>
</svg>
