<?xml version="1.0" encoding="utf-8"?>
<!-- Generator: Adobe Adobe Illustrator 28.7.0, SVG Export Plug-In . SVG Version: 6.00 Build 0)  -->
<svg version="1.1" xmlns="http://www.w3.org/2000/svg" xmlns:xlink="http://www.w3.org/1999/xlink" x="0px" y="0px"
	 viewBox="0 0 300 300" style="enable-background:new 0 0 300 300;" xml:space="preserve">
<style type="text/css">
	.st0{display:none;}
	.st1{display:inline;fill:url(#SVGID_1_);}
	.st2{fill:url(#SVGID_00000101086833453802540000000010123049367088205455_);}
	.st3{fill:url(#SVGID_00000124878113287689533070000013552972061243929997_);}
	.st4{fill:url(#SVGID_00000181089253781219382040000018269133561134004900_);}
	.st5{fill:url(#SVGID_00000052792214302310398500000007921343822878073499_);}
	.st6{fill:url(#SVGID_00000064345600096798920800000018404581456633452972_);}
	.st7{fill:url(#SVGID_00000068646515572117372040000009127571803768284839_);}
	.st8{fill:url(#SVGID_00000116922561102018716620000009310532753361370011_);}
	.st9{fill:url(#SVGID_00000057849307079474188020000005777590408649741699_);}
	.st10{fill:url(#SVGID_00000165930826488922112770000003883451233966174092_);}
	.st11{fill:url(#SVGID_00000070839347207170491630000015124836594542762642_);}
	.st12{fill:url(#SVGID_00000113346549952286554280000014523154268333722791_);}
	.st13{fill:url(#SVGID_00000139979416474268503490000010226294207170699934_);}
</style>
<g id="BACKGROUND" class="st0">
	<linearGradient id="SVGID_1_" gradientUnits="userSpaceOnUse" x1="148.6911" y1="401.2953" x2="151.927" y2="-220.0081">
		<stop  offset="0" style="stop-color:#191421"/>
		<stop  offset="0.0209" style="stop-color:#1A1423"/>
		<stop  offset="0.3306" style="stop-color:#201535"/>
		<stop  offset="0.6517" style="stop-color:#251540"/>
		<stop  offset="1" style="stop-color:#261544"/>
	</linearGradient>
	<rect x="-100" y="-100" class="st1" width="500" height="500"/>
</g>
<g id="OBJECTS">
	<g>
		
			<linearGradient id="SVGID_00000037652220369725540320000012172154742877556123_" gradientUnits="userSpaceOnUse" x1="192.5598" y1="198.3364" x2="194.1376" y2="148.2421">
			<stop  offset="0" style="stop-color:#3862F8"/>
			<stop  offset="1" style="stop-color:#060F27"/>
		</linearGradient>
		<polygon style="fill:url(#SVGID_00000037652220369725540320000012172154742877556123_);" points="221.49,190.89 213.94,198.45 
			165.39,149.9 172.96,142.36 		"/>
		
			<linearGradient id="SVGID_00000062875920212256018350000005166679416792887230_" gradientUnits="userSpaceOnUse" x1="146.3913" y1="264.5724" x2="152.8631" y2="59.0917">
			<stop  offset="0" style="stop-color:#3862F8"/>
			<stop  offset="1" style="stop-color:#060F27"/>
		</linearGradient>
		<path style="fill:url(#SVGID_00000062875920212256018350000005166679416792887230_);" d="M142.44,126.95h-0.12l-15.47,15.37
			l7.68,7.69l15.5-15.47L142.44,126.95z M150,37.61L37.61,150L150,262.39L262.39,150L150,37.61z M193.5,121.88l-20.54,20.48
			l-7.57,7.54l-15.52,15.48l7.61,7.62l15.44-15.43l32.28,32.18l-0.24,0.24l0.05,0.05l-55.07,55.06l-32.26-32.14l-0.01-0.01
			l32.28-32.39l-7.64-7.64l-32.4,32.31L54.78,150.1l32.35-32.47l17.73,17.8l14.54,14.6l-13.05,13.04L86.48,143.3l-7.52,7.55
			l27.41,27.28l20.6-20.57l7.56-7.55l15.5-15.47l-7.59-7.59h-0.12l-15.47,15.37l-0.02,0.02l-12.45-12.51h-0.01L94.62,110
			l55.33-55.34L182.16,87l-32.22,32.33l0.06,0.06l7.6,7.6l32.28-32.22l55.34,55.33l-32.32,32.2L180.48,150l0.06-0.06l12.98-12.98
			l19.87,19.77l7.53-7.56L193.5,121.88z"/>
		
			<linearGradient id="SVGID_00000175323416539520823370000008550767884749793717_" gradientUnits="userSpaceOnUse" x1="146.5593" y1="149.3069" x2="148.7752" y2="78.952">
			<stop  offset="0" style="stop-color:#3862F8"/>
			<stop  offset="1" style="stop-color:#060F27"/>
		</linearGradient>
		<polygon style="fill:url(#SVGID_00000175323416539520823370000008550767884749793717_);" points="172.96,142.36 165.39,149.9 
			142.44,126.95 142.32,126.95 121.73,106.37 149.03,78.96 156.58,86.49 136.81,106.35 149.86,119.41 149.94,119.33 150,119.39 
			157.6,126.99 		"/>
		
			<linearGradient id="SVGID_00000040549197598933396070000014388074267962471861_" gradientUnits="userSpaceOnUse" x1="116.467" y1="150.1397" x2="117.0438" y2="131.8242">
			<stop  offset="0" style="stop-color:#060F27"/>
			<stop  offset="1" style="stop-color:#33D4FF;stop-opacity:0"/>
		</linearGradient>
		<polygon style="fill:url(#SVGID_00000040549197598933396070000014388074267962471861_);" points="119.4,150.03 126.83,142.34 
			114.38,129.83 106.75,137.33 		"/>
		
			<linearGradient id="SVGID_00000063598337515975126910000017326046618531924613_" gradientUnits="userSpaceOnUse" x1="146.9673" y1="129.3146" x2="137.2594" y2="140.1011">
			<stop  offset="0" style="stop-color:#060F27"/>
			<stop  offset="1" style="stop-color:#33D4FF;stop-opacity:0"/>
		</linearGradient>
		<polygon style="fill:url(#SVGID_00000063598337515975126910000017326046618531924613_);" points="142.32,126.95 150,134.59 
			140.66,143.91 132.85,136.36 		"/>
		
			<linearGradient id="SVGID_00000172408779012615654490000017963615498091346615_" gradientUnits="userSpaceOnUse" x1="209.6787" y1="192.0132" x2="199.7012" y2="205.766">
			<stop  offset="0" style="stop-color:#060F27"/>
			<stop  offset="1" style="stop-color:#33D4FF;stop-opacity:0"/>
		</linearGradient>
		<polygon style="fill:url(#SVGID_00000172408779012615654490000017963615498091346615_);" points="205.01,190.04 213.51,198.87 
			204.26,208.13 195.14,199.91 		"/>
		
			<linearGradient id="SVGID_00000008853349235348145190000006953770877011231120_" gradientUnits="userSpaceOnUse" x1="152.2686" y1="171.2733" x2="160.5383" y2="161.7452">
			<stop  offset="0" style="stop-color:#060F27"/>
			<stop  offset="1" style="stop-color:#33D4FF;stop-opacity:0"/>
		</linearGradient>
		<polygon style="fill:url(#SVGID_00000008853349235348145190000006953770877011231120_);" points="157.48,173 149.62,165.63 
			156.24,159.03 163.76,166.73 		"/>
		
			<linearGradient id="SVGID_00000137092404238512218510000005958281473274202247_" gradientUnits="userSpaceOnUse" x1="175.1771" y1="151.2888" x2="184.2108" y2="162.0753">
			<stop  offset="0" style="stop-color:#060F27"/>
			<stop  offset="1" style="stop-color:#33D4FF;stop-opacity:0"/>
		</linearGradient>
		<polygon style="fill:url(#SVGID_00000137092404238512218510000005958281473274202247_);" points="180.48,150 172.92,157.57 
			179.07,163.7 187.35,156.85 		"/>
		
			<linearGradient id="SVGID_00000133518031788515540710000011554910450790594731_" gradientUnits="userSpaceOnUse" x1="91.6873" y1="86.4651" x2="82.6991" y2="75.3" gradientTransform="matrix(-1 0 0 -1 203.6301 300.9574)">
			<stop  offset="0" style="stop-color:#060F27"/>
			<stop  offset="1" style="stop-color:#33D4FF;stop-opacity:0"/>
		</linearGradient>
		<polygon style="fill:url(#SVGID_00000133518031788515540710000011554910450790594731_);" points="109.16,221.55 117.67,212.96 
			125.36,220.64 116.65,229.01 		"/>
		
			<linearGradient id="SVGID_00000077286641731687446070000017734696533298652322_" gradientUnits="userSpaceOnUse" x1="151.0552" y1="220.9212" x2="153.2701" y2="150.6002">
			<stop  offset="0" style="stop-color:#3862F8"/>
			<stop  offset="1" style="stop-color:#060F27"/>
		</linearGradient>
		<polygon style="fill:url(#SVGID_00000077286641731687446070000017734696533298652322_);" points="178,193.5 150.7,220.91 
			143.14,213.39 162.92,193.52 151.03,181.64 149.95,180.56 142.31,172.92 126.97,157.56 134.53,150.01 149.87,165.38 157.48,173 
			159.45,174.97 		"/>
		
			<linearGradient id="SVGID_00000062898620052778262290000002540661446945159607_" gradientUnits="userSpaceOnUse" x1="400.6266" y1="84.3617" x2="390.5477" y2="98.2542" gradientTransform="matrix(-1 0 0 -1 490.6716 192.4721)">
			<stop  offset="0" style="stop-color:#060F27"/>
			<stop  offset="1" style="stop-color:#33D4FF;stop-opacity:0"/>
		</linearGradient>
		<polygon style="fill:url(#SVGID_00000062898620052778262290000002540661446945159607_);" points="94.62,110 86.34,101.27 
			95.67,91.94 104.54,100.07 		"/>
		
			<linearGradient id="SVGID_00000144311920150069072410000011384066487497974674_" gradientUnits="userSpaceOnUse" x1="-99.1089" y1="193.9317" x2="-108.1441" y2="182.7083" gradientTransform="matrix(1 0 0 1 287.0415 -108.4852)">
			<stop  offset="0" style="stop-color:#060F27"/>
			<stop  offset="1" style="stop-color:#33D4FF;stop-opacity:0"/>
		</linearGradient>
		<polygon style="fill:url(#SVGID_00000144311920150069072410000011384066487497974674_);" points="190.74,78.35 182.16,87 
			174.48,79.31 183.22,70.83 		"/>
	</g>
</g>
</svg>
