<?xml version="1.0" encoding="utf-8"?>
<!-- Generator: Adobe Adobe Illustrator 28.7.0, SVG Export Plug-In . SVG Version: 6.00 Build 0)  -->
<svg version="1.1" id="Layer_1" xmlns="http://www.w3.org/2000/svg" xmlns:xlink="http://www.w3.org/1999/xlink" x="0px" y="0px"
	 viewBox="0 0 300 300" style="enable-background:new 0 0 300 300;" xml:space="preserve">
<style type="text/css">
	.st0{fill:#3862F8;}
	.st1{fill:#060F27;}
</style>
<g>
	<path class="st0" d="M170.1,98l24,0.1l0.1,5.4c-3.2,1.3-6.3,2.8-9.4,4.4c-5.1,2.7-9.8,6.2-14.6,9.4L170.1,98z"/>
	<path class="st0" d="M170.2,205.7c4.1-3.4,7.9-7.3,11.6-11.1c3.7-3.7,7.5-7.4,11.2-11.3l-0.1,36.2c0,3.3-0.5,13.6,0.2,16.1
		c-6.9,4.1-15.3,6.5-22.9,9C170,231.6,170.3,218.6,170.2,205.7z"/>
	<path class="st0" d="M91.3,81.8c37.5,0,75-0.5,112.5,0.1c-0.4,0.9-0.9,1.8-1.4,2.7c-1.4,0-4-0.2-5.1,0.8c-0.6,0.6-0.6,1-0.6,1.8
		l0,7.2c-13.2,0.2-26.5,0-39.7,0l-59.2,0c0-2.7,0.6-5.7,0-8.3c-0.7-2.9-3.9-0.5-5.7-2C91.3,83.6,91.4,82.6,91.3,81.8z"/>
	<path class="st0" d="M100.7,98.1l22.3,0l-0.1,59.7c-2.9,2.3-5.8,4.6-8.7,6.9c-4.4,3.3-8.9,6.4-13.5,9.4
		C100.4,148.8,100.8,123.4,100.7,98.1z"/>
	<path class="st0" d="M146.2,50.5c0.6-0.1,1.2,0,1.8,0.3c4.3,1.6,8.5,3.6,12.7,5.4c10,4.2,20,8.5,29.9,12.9c6.8,3,13.9,5.5,20.5,8.9
		c-8.4,1.1-17.1,0.7-25.5,0.6l-37.2,0l-36.9,0c-9.4,0-18.8,0.2-28.2-0.7L146.2,50.5z"/>
	<path class="st1" d="M251.1,142.4c6.9,0,12.3,1.3,17.9,5.5c-3.9,37-19.9,68.1-49,91.6c-22.9,18.5-53.9,28.8-83.3,25.7
		c-25.6-2.8-48.9-14.7-68.6-30.9c13.3,5.8,27.6,8,42,5.2c1.1,0.1,2,0.8,3,1.3c3.6,1.5,7.8,3.5,11.7,4.1c16.1,3.7,29.3,3.4,45.4-0.3
		c7.6-2.4,16-4.9,22.9-9c25.3-14.3,45.3-37.9,53.2-66.2c1.6-5.9,2.9-11.9,3.8-17.9C250.5,148.5,250.6,145.4,251.1,142.4z"/>
	<path class="st1" d="M14.2,276.5c4.3-0.2,8.6-0.1,12.9-0.1l22.5,0l67.7,0l108.1-0.1c17.5,0,35-0.4,52.5-0.1c1.5,0,3,0.2,4.4,0.8
		c1.7,0.7,3.1,2.1,3.8,3.8c0.8,2.2,0.7,4.7-0.3,6.8c-1.2,2.5-3,3.7-5.6,4.5c-5.2,0.3-10.6,0.1-15.8,0.1l-28.5,0l-85.5,0.1l-91.4,0
		l-29.5,0c-4.3,0-8.7,0.2-13.1,0c-1.9-0.1-3.8-0.4-5.4-1.4c-1.8-1.1-2.9-2.8-3.4-4.8c-0.5-2.2-0.1-4.5,1.2-6.4
		C10.1,278,11.9,277,14.2,276.5z"/>
	<path class="st0" d="M147.1,7.4c4.4,2.5,8.9,4.8,13.6,6.6c10.4,4.1,21.3,6.8,31.4,11.9c33.6,16.9,57,44.3,68.8,80
		c-6.9-3.8-14.4-7.3-22.3-8.2c-3.2-7.2-8-14.1-12.8-20.4c-11.1-14.5-26.2-27.4-42.9-34.9c-7.5-3.4-15.3-5.8-22.9-8.7
		c-1.6-0.6-12.1-5.3-12.6-5.3c-2.4,0.1-7.4,3.2-10,4.2c-6.5,2.4-13.2,4.4-19.6,7C106.5,44,96.3,50.5,86.9,58
		C73.7,68.5,63.1,82.9,56.3,98.2c-9.5,21.4-12.1,45.9-6.5,68.7c1.4,5.6,3.4,10.9,5.5,16.3c-2.6-0.2-5-0.6-7.6-1.2
		c-4.4-1.2-12.7-3.8-15.1-8.1c-1.6-2.9-2.1-7.2-2.7-10.4c-3.5-19.3-2-38.7,3.3-57.5c10.4-36.6,38-66.2,72.4-81.6
		c7.3-3.3,15-5.6,22.6-8.4C134.8,13.6,141,10.8,147.1,7.4z"/>
	<path class="st1" d="M219.3,101.1c10.9-1.6,27.5,2.2,37,7.5c12.6,6.9,21.9,18.5,25.8,32.3c2.7,9.4,2.6,28.1-2.3,36.8
		c1.4-5.9,1.6-12.7,0.6-18.6c-1.2-7-5.1-13.6-11-17.6c-26.4-18.1-59.5,19.3-76,36.2c-8.7,8.9-17.3,17.9-26.7,26.2
		c-16.3,14.3-34.5,27.4-56.3,31.5c-16.2,3.1-32.3,0.2-46.7-7.8c-4.6-2.5-8.8-5.5-13.1-8.4c5.3,2,11,3.2,16.7,3.6
		c31.8,2.3,56.7-14.5,79.8-34c12.1-10.2,23.5-21.1,35.5-31.4c18.6-16.1,42-37.4,68.4-35.6c8.6,0.4,15.2,4.5,21.6,9.9
		c-3.6-4.4-7.4-8-12.5-10.7c-32.4-17.7-65.9,12.4-88.6,32.9c-8.6,7.8-17.2,15.7-26.2,23.2c-17.1,14.3-35.9,28.2-57.6,34.5
		c-16.6,4.8-34.1,3.9-49.3-4.5c-12.2-6.7-23.3-19.1-27.1-32.7c-3.3-11.5-2-26,3.9-36.5c-0.9,4.4-1.4,8.6-1,13.1
		c0.9,11.6,6.5,22.4,15.4,29.9c9.1,7.7,20.1,10.8,32,10.4c9.4-0.3,18.3-2.8,27-6.5c15.2-6.4,28.6-16.4,41-27.1
		C156.3,134.5,181.8,104.4,219.3,101.1z"/>
</g>
</svg>
