<?xml version="1.0" encoding="UTF-8"?>
<svg xmlns="http://www.w3.org/2000/svg" viewBox="0 0 333.52 273">
  <defs>
    <style>
      .cls-1 {
        fill: #d97b69;
      }

      .cls-2 {
        fill: #e6836f;
      }

      .cls-3 {
        fill: #3629b7;
      }

      .cls-4 {
        fill: #4d4d4d;
      }

      .cls-5 {
        fill: #fff;
      }

      .cls-6 {
        fill: #ff9f34;
      }

      .cls-7 {
        stroke: #80b2ff;
      }

      .cls-7, .cls-8 {
        fill: none;
        stroke-miterlimit: 10;
        stroke-width: .75px;
      }

      .cls-8 {
        stroke: #00224d;
      }

      .cls-9 {
        fill: #cce0ff;
      }

      .cls-10 {
        fill: #f7a594;
      }

      .cls-11 {
        fill: #112e59;
      }

      .cls-12 {
        fill: #231f20;
      }

      .cls-13 {
        fill: #1d498c;
      }

      .cls-14 {
        fill: #008f99;
      }

      .cls-15 {
        fill: #f7bd0c;
      }

      .cls-16 {
        fill: #262399;
      }

      .cls-17 {
        fill: #a8a3d7;
      }

      .cls-18 {
        fill: #5655b9;
      }

      .cls-19 {
        fill: #ffbd73;
      }

      .cls-20 {
        fill: #d9ffff;
      }

      .cls-21 {
        fill: #4d261c;
      }

      .cls-22 {
        fill: #007880;
      }
    </style>
  </defs>
  <g id="elements">
    <g>
      <rect class="cls-18" x="153.66" y="16.56" width="77.99" height="46.64" rx="2.76" ry="2.76"/>
      <rect class="cls-3" x="153.66" y="25.37" width="77.99" height="8.05" transform="translate(385.31 58.78) rotate(-180)"/>
      <path class="cls-17" d="M213.78,54.25h11.47c.73,0,1.32.59,1.32,1.32h0c0,.73-.59,1.32-1.32,1.32h-11.47c-.73,0-1.32-.59-1.32-1.32h0c0-.73.59-1.32,1.32-1.32Z"/>
      <path class="cls-17" d="M196.15,54.25h11.47c.73,0,1.32.59,1.32,1.32h0c0,.73-.59,1.32-1.32,1.32h-11.47c-.73,0-1.32-.59-1.32-1.32h0c0-.73.59-1.32,1.32-1.32Z"/>
      <path class="cls-17" d="M178.52,54.25h11.47c.73,0,1.32.59,1.32,1.32h0c0,.73-.59,1.32-1.32,1.32h-11.47c-.73,0-1.32-.59-1.32-1.32h0c0-.73.59-1.32,1.32-1.32Z"/>
      <path class="cls-17" d="M160.88,54.25h11.47c.73,0,1.32.59,1.32,1.32h0c0,.73-.59,1.32-1.32,1.32h-11.47c-.73,0-1.32-.59-1.32-1.32h0c0-.73.59-1.32,1.32-1.32Z"/>
      <path class="cls-17" d="M225.78,18.92h0c.8,0,1.46.65,1.46,1.46v.51c0,.8-.65,1.46-1.46,1.46h0c-.8,0-1.46-.65-1.46-1.46v-.51c0-.8.65-1.46,1.46-1.46Z"/>
      <path class="cls-17" d="M222.64,20.64h0c0,.95-.77,1.71-1.71,1.71h-6.07c-.95,0-1.71-.77-1.71-1.71h0c0-.95.77-1.71,1.71-1.71h6.07c.95,0,1.71.77,1.71,1.71Z"/>
      <rect class="cls-19" x="213.32" y="37.74" width="12.39" height="11.31" rx="5.65" ry="5.65" transform="translate(439.04 86.8) rotate(-180)"/>
    </g>
    <path class="cls-7" d="M24.27,87.35c-1.63,2.05-2.78,4.32-3.47,6.68l2.04.6c-.65,2.23-.84,4.55-.58,6.81l-2.11.24c.28,2.5,1.04,4.94,2.27,7.18l.42-.23,1.45-.8c1.07,1.96,2.55,3.74,4.41,5.22l-1.33,1.67c2.05,1.63,4.32,2.78,6.69,3.46l.6-2.04c2.22.66,4.54.84,6.81.59l.24,2.11c2.5-.28,4.94-1.05,7.18-2.28h0s-.29-.55-.29-.55l-.72-1.32c1.96-1.07,3.74-2.54,5.22-4.4l1.67,1.33c1.63-2.05,2.78-4.33,3.46-6.7l-2.04-.6c.66-2.22.84-4.54.59-6.8l2.11-.24c-.28-2.5-1.05-4.94-2.28-7.18l-1.87,1.02c-1.07-1.96-2.54-3.74-4.4-5.22l1.33-1.67c-2.05-1.63-4.33-2.78-6.7-3.46l-.6,2.04c-2.22-.66-4.54-.84-6.8-.59l-.24-2.11c-2.5.28-4.94,1.05-7.18,2.28v.02s.68,1.23.68,1.23l.34.62c-1.96,1.07-3.74,2.55-5.22,4.4l-1.67-1.33ZM32.15,93.62c3.24-4.07,9.16-4.74,13.23-1.5,4.07,3.24,4.74,9.17,1.5,13.23-3.24,4.07-9.17,4.74-13.24,1.5-4.07-3.24-4.74-9.16-1.49-13.23Z"/>
    <path class="cls-8" d="M174.45,184.3c-1.88,2.36-3.21,4.98-4,7.71l2.36.69c-.75,2.57-.96,5.25-.67,7.86l-2.44.28c.33,2.88,1.2,5.7,2.62,8.28l.48-.26,1.67-.92c1.24,2.26,2.94,4.32,5.09,6.03l-1.53,1.92c2.36,1.88,4.98,3.21,7.72,3.99l.69-2.36c2.57.76,5.24.97,7.85.68l.28,2.44c2.88-.33,5.7-1.21,8.29-2.63h0s-.34-.63-.34-.63l-.84-1.52c2.26-1.24,4.32-2.94,6.02-5.08l1.92,1.53c1.88-2.36,3.21-4.99,4-7.73l-2.36-.69c.76-2.57.97-5.23.68-7.85l2.44-.28c-.33-2.88-1.21-5.7-2.63-8.29l-2.15,1.18c-1.24-2.26-2.94-4.32-5.08-6.02l1.53-1.92c-2.36-1.88-4.99-3.21-7.73-4l-.69,2.36c-2.57-.76-5.23-.97-7.85-.68l-.28-2.44c-2.89.32-5.7,1.21-8.29,2.63v.02s.79,1.42.79,1.42l.39.72c-2.26,1.24-4.32,2.94-6.02,5.08l-1.92-1.53ZM183.54,191.54c3.74-4.69,10.57-5.47,15.27-1.73,4.7,3.74,5.47,10.58,1.74,15.27-3.74,4.7-10.58,5.47-15.28,1.73-4.69-3.74-5.47-10.57-1.72-15.27Z"/>
    <path class="cls-9" d="M151.83,18.78c0-2.05,1.66-3.71,3.71-3.71h13.69c.03-.22.07-.44.07-.67h0c0-2.82-2.21-5.15-4.98-5.36.05-.35.08-.71.08-1.08,0-4.4-3.57-7.97-7.97-7.97-3.3,0-6.13,2.01-7.34,4.87-.98-.88-2.28-1.41-3.7-1.41-3.08,0-5.57,2.49-5.57,5.57h-1.04c-2.96,0-5.38,2.42-5.38,5.38h0c0,2.96,2.42,5.38,5.38,5.38h13.05v-1Z"/>
  </g>
  <g id="phone">
    <g>
      <path class="cls-18" d="M73.45,44.36c1.91-11.3,19.3-16.4,18.96-9.02l79.75.47c5.52.03,10,5,10.01,11.1l.17,209.73c0,6.32-4.55,11.49-10.18,11.54l-81.41.7c-.51,1.06-1.45,2.03-2.94,2.83-9.34.2-13.81-4.41-15.45-9.62-.53-1.4-.82-2.95-.81-4.58.33-2.73,1.32-210.5,1.91-213.15Z"/>
      <path class="cls-5" d="M88.67,271.74l93.44-.6c5.83-.04,10.55-5.35,10.54-11.85l-.35-215.69c-.01-6.27-4.65-11.37-10.37-11.39l-91.63-.3c-5.76-.02-10.48,5.07-10.53,11.37l-1.66,216.69c-.05,6.54,4.68,11.81,10.55,11.77Z"/>
      <path d="M87.38,270.17c.39.05.79.08,1.18.07l93.42-.71c5.01-.04,9.11-4.69,9.1-10.37l-.32-215.45c0-5.48-4.04-9.95-8.95-9.97l-91.62-.4c-.14,0-.29,0-.43,0-2.31.11-4.46,1.16-6.07,2.95-1.65,1.84-2.56,4.27-2.58,6.86l-1.64,216.91c-.04,5.14,3.36,9.48,7.93,10.09Z"/>
      <polygon class="cls-3" points="84.31 44.26 82.73 260.41 187.97 259.78 187.7 44.26 84.31 44.26"/>
      <g id="login">
        <rect class="cls-6" x="116.59" y="146.85" width="34.01" height="8" rx="4" ry="4" transform="translate(267.19 301.71) rotate(-180)"/>
        <path class="cls-5" d="M100.8,125.15h67.26c2.2,0,4-1.8,4-4h0c0-2.2-1.8-4-4-4h-67.26c-2.2,0-4,1.8-4,4h0c0,2.2,1.8,4,4,4Z"/>
        <rect class="cls-5" x="96.8" y="130.04" width="75.26" height="8" rx="4" ry="4" transform="translate(268.86 268.08) rotate(180)"/>
        <g>
          <circle class="cls-17" cx="156.91" cy="134.39" r="1.41"/>
          <circle class="cls-17" cx="152.08" cy="134.39" r="1.41"/>
          <circle class="cls-17" cx="147.25" cy="134.39" r="1.41"/>
          <circle class="cls-17" cx="142.42" cy="134.39" r="1.41"/>
          <circle class="cls-17" cx="137.59" cy="134.39" r="1.41"/>
          <circle class="cls-17" cx="132.76" cy="134.39" r="1.41"/>
          <circle class="cls-17" cx="127.93" cy="134.39" r="1.41"/>
          <circle class="cls-17" cx="123.1" cy="134.39" r="1.41"/>
          <circle class="cls-17" cx="118.27" cy="134.39" r="1.41"/>
        </g>
        <g>
          <circle class="cls-5" cx="134.41" cy="90.49" r="15.46"/>
          <g>
            <path class="cls-3" d="M134.38,89.87c-1.51,0-2.9-.74-3.79-1.86-.66-.81-1.05-1.86-1.05-3.02,0-2.67,2.17-4.88,4.84-4.88s4.88,2.21,4.88,4.88c0,1.16-.39,2.21-1.05,3.02-.89,1.12-2.28,1.86-3.83,1.86Z"/>
            <path class="cls-3" d="M125.82,98.56c0,3.08,17.19,3.08,17.19,0v-3.59c-.68-4.9-15.79-5.11-17.19,0v3.59Z"/>
          </g>
        </g>
        <path class="cls-4" d="M164.47,133.3v2.84c0,.49,3.64.49,3.64,0v-2.84h-.24v-.21c0-.87-.71-1.57-1.57-1.57s-1.57.71-1.57,1.57v.21h-.25ZM167.31,133.3h-2.04v-.21c0-.58.35-1.04,1.02-1.04s1.01.49,1.01,1.04v.21ZM165.8,134.31c0-.27.23-.5.5-.5s.5.23.5.5c0,.19-.11.34-.25.42v.82c0,.15-.1.25-.25.25s-.27-.1-.27-.25v-.82c-.13-.08-.23-.23-.23-.42Z"/>
        <g>
          <g>
            <path class="cls-4" d="M166.46,120.86c-.29,0-.56-.16-.73-.39-.13-.17-.2-.39-.2-.64,0-.56.42-1.03.93-1.03s.93.47.93,1.03c0,.25-.07.47-.2.64-.17.24-.44.39-.73.39Z"/>
            <path class="cls-4" d="M164.82,122.69c0,.65,3.31.65,3.31,0l-.02-.76c-.13-1.03-3.02-1.08-3.29,0v.76Z"/>
          </g>
          <path class="cls-17" d="M145.07,122.32h13.38c.59,0,1.07-.53,1.07-1.17h0c0-.65-.48-1.17-1.07-1.17h-13.38c-.59,0-1.07.53-1.07,1.17h0c0,.65.48,1.17,1.07,1.17Z"/>
          <path class="cls-17" d="M127.43,122.32h13.38c.59,0,1.07-.53,1.07-1.17h0c0-.65-.48-1.17-1.07-1.17h-13.38c-.59,0-1.07.53-1.07,1.17h0c0,.65.48,1.17,1.07,1.17Z"/>
        </g>
      </g>
    </g>
    <g id="key">
      <path class="cls-5" d="M154.36,198.21v29.84c0,3.32-43.32,3.32-43.32,0v-29.84h43.32Z"/>
      <g>
        <ellipse class="cls-16" cx="132.7" cy="209.49" rx="5.35" ry="5.01"/>
        <path class="cls-16" d="M132.7,211.03h0c1.21,0,2.19.98,2.19,2.19v11.35h-4.38v-11.35c0-1.21.98-2.19,2.19-2.19Z" transform="translate(265.41 435.61) rotate(-180)"/>
      </g>
      <path class="cls-5" d="M114.84,196.09h4.38v-2.01c0-6.96,6.05-12.63,13.48-12.63s13.48,5.66,13.48,12.63v2.01h4.38v-2.01c0-9.23-8.01-16.73-17.86-16.73s-17.86,7.51-17.86,16.73v2.01Z"/>
    </g>
  </g>
  <g id="shadow">
    <path class="cls-16" d="M27.82,273h301.21c.5,0,.9-.4.9-.9h0c0-.5-.4-.9-.9-.9H27.82c-.5,0-.9.4-.9.9h0c0,.5.4.9.9.9Z"/>
  </g>
  <g id="shield">
    <g>
      <g>
        <path class="cls-20" d="M0,159.66h0c0-.17,0-.24,0-.26,0,.03,0,.26,0,.26Z"/>
        <path class="cls-20" d="M0,159.66h0c0-.17,0-.24,0-.26,0,.03,0,.26,0,.26Z"/>
        <path class="cls-20" d="M100,160.11s0-.23,0-.26c0,.02,0,.09,0,.26h0Z"/>
        <path class="cls-20" d="M100,160.11s0-.23,0-.26c0,.02,0,.09,0,.26h0Z"/>
        <path class="cls-5" d="M50.19,136.16c-11.07,11.86-28.73,21.58-47.64,25.72,0,1.26-.04,8.26-.18,40.49-.19,43,40.74,64.02,47.09,67.25,6.16-2.83,47.6-23.82,47.79-66.82.14-32.24.18-39.23.18-40.49-18.86-4.31-36.28-14.18-47.25-26.14Z"/>
      </g>
      <g>
        <path class="cls-17" d="M50.09,140.83c-11.41,10.47-27.22,18.7-44.61,23.18l-.17,38.36c-.08,17.55,6.89,33.43,20.73,47.19,9.09,9.04,18.64,14.65,23.49,17.18.21-.11.44-.23.66-.34v-125.48s-.07-.06-.1-.09Z"/>
        <path class="cls-18" d="M50.19,140.92v125.48c5.04-2.62,14.21-8.04,22.98-16.62,13.95-13.64,21.07-29.46,21.15-47.01l.17-38.36c-17.29-4.63-32.99-12.96-44.3-23.49Z"/>
      </g>
      <path class="cls-3" d="M85.02,179.36c-13.24,2.04-31.26,14.11-42.63,28.63-1.59-6.84-8.75-13.09-12.5-14.46l-11.35,11.41c7.09,3.19,14.83,12.24,15.86,21.5l11.34,1.76c4.78-9.44,17.12-32.02,41.68-44.17-.47-1.85-2.21-4.4-2.4-4.67Z"/>
    </g>
  </g>
  <g id="guard">
    <g>
      <g>
        <path class="cls-10" d="M271.78,106.51l32.1-.21,27.61-.29.12,4.19c-9.6,3.71-17.13,4.83-26.68,5.54-9.68,3.21-22.5,5.34-32.42,6.04-8.72.41-9.44-14.85-.73-15.26Z"/>
        <path class="cls-11" d="M286.02,105.6c-3.85-.07-15.26-1.28-22.36-.44-6.43,2.64-4.84,13.86-1.89,15.62,0,.32,12.48,3.8,25.11.09,1.9-2.23,1.26-13.05-.85-15.27Z"/>
        <path class="cls-13" d="M288.57,121.31c-2,.71-3.88,1.16-5.29.59-.83.04-1.76-16.76-.93-16.8l5.25-.25c1.67-.08,2.63,16.38.96,16.46Z"/>
        <g>
          <path class="cls-10" d="M328.3,106.09c.93-4.32,2.43-10.47,4.24-10.56.39-.02.45.23.43,1.38-.9,7.69,1.17,9.77.17,11.94-1.1,2.11-4.14,2.06-4.14,2.06-1.7-.76-1.84-3.61-.7-4.83Z"/>
          <path class="cls-10" d="M330.46,105.16l1.89-5.58s1.23.22.97,1.69c-.26,1.48-.57,3.06-.57,3.06,0,0,1.48,3.2.3,4.52s-3.21.03-2.59-3.69Z"/>
          <path class="cls-1" d="M333.32,108.61l-.14-.05c.64-2.02-.47-4.18-.48-4.2v-.02s0-.03,0-.03c0-.02.32-1.6.57-3.06.1-.58-.02-1.03-.36-1.33-.19-.16-.39-.23-.49-.26l-1.87,5.52-.14-.05,1.91-5.64h.06s.33.07.62.32c.27.23.56.67.41,1.47-.24,1.36-.53,2.83-.57,3.04.12.25,1.11,2.33.48,4.29Z"/>
          <path class="cls-1" d="M329.64,102.49l-.15-.04c.07-.27,1.66-6.52,3.03-7l.05.14c-1.29.46-2.92,6.83-2.93,6.9Z"/>
        </g>
      </g>
      <g>
        <g>
          <path class="cls-12" d="M231.81,271.98h14.77c.3-.17.51-.37.63-.59.24-10.98,1.08-16.27,1.08-16.27l-10.31-.42-1.94,8.17c-3.33,2.36-7.2,7.41-4.24,9.11Z"/>
          <path class="cls-12" d="M247.7,272.17h-17.51c-.44,0-.41-2.43.03-2.43l17.41.1c.46,0,.52,2.34.07,2.34Z"/>
        </g>
        <path class="cls-11" d="M245.89,156.73c-1.05,8.13-5.51,28.22-5.03,50.3-4.84,28.15-5.37,34.35-5.96,51.71l14.76.55c2.36-12.12,7.21-31.26,9.41-49.93,4.77-14.71,7.9-35.68,9.43-52.33,1.55-14.35-18.74-20.15-22.61-.3Z"/>
        <path class="cls-12" d="M242.12,259.43h-.3c.03-2.01,6.03-69.7,12.12-97.14l.29.07c-6.09,27.43-12.08,95.08-12.11,97.08Z"/>
      </g>
      <g>
        <path class="cls-11" d="M260.73,157.72c2.08,28,8.21,51.79,8.21,51.79-1.2,19.11,2.19,37.45,4.6,50l14.04-.13c.81-12.29-.92-78.79-4.56-101.35-1.73-19.94-24.8-21.01-22.29-.32Z"/>
        <path class="cls-12" d="M276.19,259.52c-.63,4.53-1.07,8.06-.52,12.15l22.97.45s2.17-2.21-.85-5.53c-3.01-3.32-8.34-1.4-12.13-7.2l-9.47.13Z"/>
        <path class="cls-12" d="M299.69,272.17h-24.38c-.44,0-.44-2.43,0-2.43l24.28.1c.46,0,.56,2.34.1,2.34Z"/>
        <rect class="cls-12" x="281.76" y="162.47" width=".3" height="96.83" transform="translate(-10.13 14.26) rotate(-2.85)"/>
      </g>
      <path class="cls-11" d="M282.97,154.54l-36.5,2.78c.33-22.86-9.99-38.64-7.84-44.52,2.95-8.09,24.47-8.14,32.66-4.99,3.25,1.25,8.55,8.49,9.17,17.6.18,4.24.22,7.15-.2,10.53-.41,3.39,2.71,18.59,2.71,18.59Z"/>
      <path class="cls-10" d="M261.15,112.36c-1.7-1.35-8.47-3.43-10.27-4.9l.41-11.75,6.66-.65c1.93.16,3.86.62,5.52,1.28l1.5,7.74.33,1.68c.75,1.65-.74,3.64-4.14,6.61Z"/>
      <path class="cls-2" d="M253.53,98.37c1.04,1.61,5.42,5.72,11.43,5.71l-1.3-6.69-10.14.99Z"/>
      <g>
        <g>
          <path class="cls-10" d="M268.26,82.89c.52,2.31,1.6,7.4,1.42,9.74-.27,3.56-3.6,7.52-6.5,8.03-3.36.34-7.89-.66-10.35-2.77-1.37-1.6-4.02-5.41-5.24-8.74-2.54-6.95,2.37-13.04,8.59-14.45,6.23-1.41,10.44.97,12.07,8.19Z"/>
          <path class="cls-21" d="M249.68,93.74c-1.3-2.29.43-3.21,2.32-1.44-.32-1.72-2.29-6.78-.55-8.45,1.97-1.94,10.62-1.1,15.28-5.95,0,0-3.47-7.6-14.85-3.11-12.85,6.81-2.2,18.95-2.2,18.95Z"/>
          <path class="cls-10" d="M251.3,91.57c.98,1.2,1.03,2.78.09,3.55-.93.76-2.49.41-3.47-.79-.98-1.2-1.03-2.78-.09-3.55.93-.76,2.49-.41,3.47.79Z"/>
        </g>
        <path class="cls-11" d="M266.84,78.21c-1.45-.44-18.67,6.4-18.21,7.68,0,0,12.47.06,21.04-3.85,4.68-2.13-2.83-3.83-2.83-3.83Z"/>
        <path class="cls-13" d="M246.03,86.99l20.92-8.82-.72-2.96-22.16,9.14c.44,1.02,1.2,2.12,1.96,2.64Z"/>
        <path class="cls-11" d="M243.47,85.02c-2.29.87-3.51-.53-1.2-3.18,3.57-4.1,6-14.6,11.29-16.5,3.65-1.31,6.41,2.96,11.25,5.62,2.2,1.2,3.43,2.46,2.6,3.94-2.5,1.87-21.55,9.21-23.95,10.13Z"/>
        <g>
          <path class="cls-15" d="M257.99,69.29c-.03-.07-.04-.1-.04-.12-.52.07-1.05.07-1.55,0-.5-.07-.96-.21-1.36-.4h0s0,0,0,0c-.08.2-.19.41-.32.61-.17.27-.37.52-.61.77-.12.12-.24.24-.37.36-.19.17-.4.33-.62.47.01.04.07.19.26.7.04.1.08.22.13.35.02.07.05.14.08.21.08.22.18.48.3.79.15.41.36.75.61,1.03.08.1.17.18.26.27.27.25.56.45.85.6.29.16.58.27.85.35.36.11.67.17.88.2.1.01.18.02.23.03.08-.09.3-.33.54-.68.1-.14.2-.3.29-.48.05-.09.09-.18.14-.28.35-.76.57-1.77.16-2.85-.46-1.22-.65-1.72-.72-1.93Z"/>
          <path class="cls-5" d="M257.88,71.55c.32.86-.12,1.82-.99,2.14-.87.32-1.83-.12-2.15-.98s.12-1.82.99-2.14c.87-.32,1.83.12,2.15.98Z"/>
        </g>
      </g>
      <g>
        <path class="cls-12" d="M261,109.11l1.1,2.31.17-2.45,1.48,3.94c-.37-.65-1.63-1.23-1.63-1.23,0,0-1.37.63-2.03,2.12l.91-4.69Z"/>
        <path class="cls-13" d="M250.97,104.63c1.64,2.12,6.99,3.57,10.03,4.48l-.91,4.69c-3.66-1.24-8.39-2.64-10.51-7.02-.48-1.19.09-1.85,1.39-2.15Z"/>
        <path class="cls-13" d="M264.99,103.89c-.16.77-.29,3.8-2.72,5.08l1.48,3.94c3.35-1.92,3.53-3.7,3.01-6.48-.21-1.11-.58-2.3-1.78-2.53Z"/>
      </g>
      <path class="cls-12" d="M267.89,156.63c-.08,0-.14-.06-.15-.13-.37-3.48-.68-7.64-1-12.04-.88-11.98-1.87-25.56-4.76-32.73-.03-.08,0-.17.08-.2.08-.03.17,0,.2.08,2.9,7.21,3.9,20.82,4.78,32.82.32,4.4.63,8.55,1,12.02,0,.08-.05.16-.13.17,0,0-.01,0-.02,0Z"/>
      <path class="cls-12" d="M246.47,153.58c7.14,1.91,35.11,1.18,36.23.33,1.7-.38,2.09,5.74,1.1,7.21-1.51,2.25-37.45,1.89-38.59.27-1.14-1.62-.75-8.35,1.26-7.81Z"/>
      <g>
        <path class="cls-15" d="M274.11,120.47c0-.07-.01-.1-.01-.12-.51-.05-1.01-.18-1.46-.36-.45-.18-.86-.42-1.19-.7h0s0,0,0,0c-.13.17-.27.34-.44.5-.22.21-.48.41-.75.59-.14.09-.28.17-.43.25-.22.12-.46.22-.7.3,0,.04.02.2.08.72.01.1.03.22.04.36,0,.07.02.14.03.22.03.23.06.5.09.81.05.42.17.79.33,1.12.06.11.12.21.18.31.19.3.42.55.66.77.24.22.49.39.72.53.31.19.59.32.78.39.1.04.17.06.21.08.1-.06.36-.24.67-.52.12-.11.26-.24.39-.38.07-.07.13-.15.19-.23.51-.64.95-1.53.82-2.65-.15-1.26-.21-1.78-.23-1.99Z"/>
        <rect class="cls-13" x="268.88" y="127.7" width="7.07" height="1.3" transform="translate(-11.16 27) rotate(-5.56)"/>
      </g>
      <path class="cls-12" d="M268.1,177.31h-2.16l.04-.19c.97-4.1,1.1-14.08,1.1-14.18h.3c0,.1-.13,9.82-1.07,14.06h1.53c.2-1,1.54-8.07,1.2-13.81l.3-.02c.37,6.2-1.22,13.93-1.23,14.01l-.02.12Z"/>
      <g>
        <path class="cls-10" d="M232.84,131.01s-2.84,16.08.05,21.75c2.99,5.86,30.62,7.14,30.62,7.14l.99-8.32-19.04-4.83,4.14-12.31-16.76-3.42Z"/>
        <path class="cls-11" d="M240.01,110.33s-8.03,9.79-8.35,23.82c10.46,7.63,17.36,2.13,17.36,2.13,0,0,5.31-14.02,4.13-20.85-1.18-6.82-10.76-7.59-13.13-5.11Z"/>
        <path class="cls-13" d="M232.01,129.95c1.42,1.72,17.68,5.09,18.01,3.2.45,1.81.36,3.57-1.1,5.22-.41,2.63-18.04-.14-17.63-2.77-1.02-1.63-.78-3.51.72-5.64Z"/>
        <path class="cls-12" d="M250.03,133.29s-.05,0-.08-.02c-.07-.04-.1-.13-.05-.21,1.17-1.99,2.16-4.67,2.7-7.37.02-.08.1-.13.18-.12.08.02.13.1.12.18-.55,2.73-1.55,5.45-2.74,7.46-.03.05-.08.07-.13.07Z"/>
      </g>
      <g>
        <g>
          <g>
            <path class="cls-20" d="M251.98,132.07h0c0-.1,0-.14,0-.15,0,.02,0,.15,0,.15Z"/>
            <path class="cls-20" d="M251.98,132.07h0c0-.1,0-.14,0-.15,0,.02,0,.15,0,.15Z"/>
            <path class="cls-20" d="M309.33,132.7s0-.13,0-.15c0,0,0,.05,0,.15h0Z"/>
            <path class="cls-20" d="M309.33,132.7s0-.13,0-.15c0,0,0,.05,0,.15h0Z"/>
            <path class="cls-5" d="M280.88,116.83c-6.73,7.08-17.43,12.85-28.86,15.27,0,.76-.06,4.96-.27,24.34-.29,25.85,24.34,38.64,28.16,40.6,3.73-1.68,28.83-14.13,29.12-39.97.22-19.37.26-23.58.27-24.34-11.37-2.66-21.85-8.67-28.42-15.9Z"/>
          </g>
          <g>
            <path class="cls-22" d="M280.78,121.5c-6.58,5.93-15.68,10.57-25.67,13.07l-.24,21.9c-.11,10.02,3.83,19.11,11.71,27.02,5.18,5.2,10.64,8.44,13.41,9.89.12-.06.25-.13.38-.19l.47-71.64s-.04-.03-.06-.05Z"/>
            <path class="cls-14" d="M280.83,121.56l-.47,71.64c2.9-1.48,8.18-4.54,13.24-9.4,8.05-7.73,12.19-16.74,12.31-26.76l.24-21.9c-9.9-2.71-18.87-7.52-25.32-13.58Z"/>
          </g>
        </g>
        <g>
          <path class="cls-5" d="M269.04,153.04l-.11,16.96c-.01,1.89,23.16,2.04,23.17.15l.11-16.96-23.17-.15ZM281.74,162.14l-.03,4.81c0,.64-.53,1.17-1.17,1.16-.65,0-1.17-.54-1.17-1.18l.03-4.82c-.99-.45-1.68-1.45-1.67-2.61.01-1.57,1.31-2.84,2.89-2.82,1.58.01,2.85,1.29,2.84,2.86,0,1.16-.7,2.16-1.71,2.59Z"/>
          <path class="cls-5" d="M290.19,151.97l-2.35-.02v-1.14c.03-3.96-3.18-7.2-7.16-7.23-3.98-.03-7.23,3.17-7.26,7.13v1.14s-2.35-.02-2.35-.02v-1.14c.04-5.25,4.36-9.49,9.63-9.45,5.27.03,9.53,4.33,9.49,9.58v1.14Z"/>
        </g>
      </g>
    </g>
  </g>
</svg>